<svg width="1025" height="1024" xmlns="http://www.w3.org/2000/svg" xml:space="preserve" version="1.1">

 <g>
  <title>Layer 1</title>
  <g stroke="null" id="svg_1">
   <path stroke="null" id="svg_2" d="m512.33108,498.28618c-1.23868,0 -2.36475,-0.11261 -3.60343,-0.22521c-2.58996,-0.22521 -5.96817,-0.22521 -9.00856,0c-1.46389,0.11261 -3.04039,0.22521 -4.50428,0.11261c-64.74905,-2.13953 -125.21903,-29.05262 -170.14925,-75.55933c-45.04282,-46.61932 -69.81637,-108.10276 -69.81637,-173.30224c0,-66.55076 25.89962,-129.16028 72.85676,-176.23003c47.06975,-47.18235 109.79187,-73.08197 176.45524,-73.08197c137.4932,0 249.312,111.8188 249.312,249.312c0,0 0,0.11261 0,0.11261c-0.22521,65.08687 -25.22398,126.57032 -70.2668,173.07703c-45.04282,46.61932 -105.5128,73.41979 -170.26185,75.55933c-0.22521,0.22521 -0.56304,0.22521 -1.01346,0.22521zm-7.65728,-426.21767c-97.74292,0 -177.24349,79.50057 -177.24349,177.24349c0,95.26556 73.75761,172.51399 168.34753,176.79306c5.85557,-0.45043 11.82374,-0.45043 17.45409,0c94.3647,-4.27907 168.34753,-81.5275 168.79796,-176.79306c-0.11261,-97.74292 -79.61318,-177.24349 -177.3561,-177.24349z"/>
   <path stroke="null" id="svg_3" d="m512.5563,1023.93587c-98.19334,0 -190.75634,-25.67441 -260.4601,-72.40633c-32.76865,-21.73316 -58.33045,-47.63278 -76.12236,-76.91061c-17.90452,-29.50305 -27.02569,-61.03302 -27.1383,-93.57645c0,-32.65604 9.00856,-64.29862 26.91308,-93.91428c17.67931,-29.39044 43.35371,-55.40267 76.23497,-77.47365c0,0 0.11261,-0.11261 0.11261,-0.11261c69.92898,-46.3941 162.60457,-71.9559 260.68531,-71.9559c98.19334,0 190.64373,25.5618 260.12228,71.9559c32.76865,21.84577 58.44306,47.74539 76.12236,76.91061c17.90452,29.50305 27.02569,61.03302 27.1383,93.57645c0,32.65604 -9.00856,64.29862 -26.91308,93.91428c-17.67931,29.39044 -43.35371,55.40267 -76.23497,77.47365c-69.70376,46.73192 -162.15415,72.51894 -260.4601,72.51894zm-220.4846,-354.37437c-45.94367,30.74172 -71.16765,70.2668 -71.16765,111.36837c0.11261,40.87636 25.33659,80.17622 71.16765,110.69273c59.79434,39.9755 140.19577,60.01956 220.4846,60.01956c80.28882,0 160.69025,-19.93145 220.37199,-59.90695c45.94367,-30.74172 71.28026,-70.3794 71.16765,-111.36837c-0.11261,-40.87636 -25.33659,-80.17622 -71.16765,-110.69273c-118.91304,-79.72579 -320.81747,-79.72579 -440.85658,-0.11261z"/>
  </g>
 </g>
</svg>