<svg width="1025" height="1024" xmlns="http://www.w3.org/2000/svg" xml:space="preserve" version="1.1">

 <g>
  <title>Layer 1</title>
  <g id="svg_1">
   <path id="svg_2" d="m606.8,491.0313c-4.8,-6 -12.2,-9.7 -19.7,-11.5c-7.6,-1.9 -15.7,-1.9 -22.4,-0.3l0,0c-19.5,4.7 -37.3,14.3 -54.1,24.4c-7.2,-5.6 -14.8,-11.3 -23.5,-15.5l-1,-0.5l-0.3,-0.1c-6.2,-3 -14.6,-7.1 -23,-9.6c-8.4,-2.5 -17.6,-3.8 -24.7,-0.1c-6.2,3.2 -14.3,8.6 -19.1,16.6c-5,8.2 -6.4,18.9 0.3,31.8c4.8,9.3 16.6,18 32,18c1.8,0 3.8,-0.1 5.8,-0.5c4.3,-0.6 9,-2.7 13.4,-5.1c4.3,-2.4 8.7,-5.2 12.5,-7.7c0.1,-0.1 0.3,-0.2 0.4,-0.3c0.7,-0.4 1.3,-0.8 1.9,-1.2c1.7,-1.1 3.3,-2.1 4.7,-3l0,0c4.4,-2.6 8.8,-5.3 13.2,-8l0,0l0,0c2.2,-1.4 4.5,-2.8 6.7,-4.1c0.3,0.2 0.6,0.5 0.9,0.7c1.4,1.1 2.8,2.2 4.1,3.2c21,15.8 40.3,23.4 58.8,22.5c15.5,-0.7 29.4,-8.5 35.1,-20.5c3.2,-6.7 3.9,-12.6 3.1,-17.5c-0.6,-5.1 -2.8,-8.9 -5.1,-11.7zm-104.3,17.5c-1.3,0.8 -2.5,1.5 -3.7,2.3l0,0c-1.2,0.7 -2.4,1.5 -3.6,2.2c-3.2,1.9 -6.3,3.9 -9.4,5.8c-1.7,1 -3.5,2.2 -5.4,3.5c-0.5,0.3 -1,0.6 -1.5,1l-0.1,0.1c-3.8,2.5 -7.9,5.2 -12,7.4c-4.1,2.3 -7.8,3.8 -10.7,4.2l0,0c-14.4,2 -25,-5.6 -28.8,-12.9c-5,-9.6 -4.2,-16.9 -0.9,-22.6c3.4,-5.9 9.6,-10.5 16.1,-13.9l0,0c1.7,-0.9 3.8,-1.3 6.4,-1.3c4.9,0 10.9,1.6 17,3.9c6,2.2 11.8,5 16.5,7.3l0.1,0.1l1,0.5l0,0c6.8,3.3 13.1,7.8 19.3,12.5c-0.2,-0.1 -0.3,-0.1 -0.3,-0.1zm98.6,7.9l0,0c-4,8.6 -14.6,14.9 -27.6,15.4l0,0c-15.9,0.8 -33.2,-5.9 -53.1,-20.8c-0.7,-0.6 -1.5,-1.2 -2.3,-1.8c15.6,-9.2 31.5,-17.4 48.7,-21.5l0,0c5.3,-1.3 11.9,-1.3 18.1,0.2c6.2,1.5 11.7,4.4 15.2,8.7l0,0c4.1,5.1 4.8,11.7 1,19.8z"/>
   <path id="svg_3" d="m391.3,512.5313c-23.3,-14.6 -51.6,-30.6 -81.8,-28.4c-9.2,0.7 -17.7,3.1 -24.7,7.1c-25.3,-11.7 -56.7,-12.8 -95.4,-3.7c-11.4,2.7 -22.9,6 -33.9,9.2c-20,5.9 -40.4,11.7 -61.1,14c-37.1,4 -68.6,-5.7 -86.8,-26.3l0,0c-1.6,-1.8 -4.4,-2 -6.2,-0.3l0,0c-1.8,1.6 -2,4.3 -0.3,6.2c20.5,23.1 55,33.4 94.2,29.2c21.3,-2.3 42.1,-8.4 62,-14.1l0.6,-0.2c1.1,-0.3 2.2,-0.6 3.2,-0.9c10,-2.9 20.1,-5.8 30.2,-8.1c35,-8.2 62.9,-7.7 85.3,1.2c-0.5,0.5 -1,1 -1.5,1.6c0,0 0,0 0,0l0,0c-9.7,10.4 -12.2,26.1 -5.6,37.4l0,0c3.8,6.3 10.9,10.8 18.5,11.9l0.1,0c1.1,0.1 2.2,0.2 3.4,0.1c5.6,0 10.9,-2 14.7,-5.7c8.5,-8.2 8,-21.3 3.7,-29.9l0,0c-3.2,-6.4 -8.5,-11.8 -15.7,-16.4c4.7,-1.9 10,-3.1 15.8,-3.5c27.3,-1.9 53.5,12.7 76.6,27.1c1.9,1.2 4.7,0.8 6,-1.4c1.3,-2 0.8,-4.8 -1.3,-6.1zm-89.2,4.2l0,0c3.2,6.2 3.1,14.9 -1.9,19.7l0,0c-2.5,2.5 -6.4,3.7 -10.9,3.1c-5.2,-0.7 -9.8,-3.7 -12.1,-7.6l0,0c-4.5,-7.7 -2.9,-19.1 4.4,-27c1.1,-1.2 2.4,-2.4 3.8,-3.5c8.5,4.5 13.9,9.5 16.7,15.3z"/>
   <path id="svg_4" d="m749.9,498.9313c-0.1,0 -0.1,0 0,0c0,0 0,0 0,0l0,0z"/>
   <path id="svg_5" d="m1023.5,484.2313l0,0c-1.8,-1.6 -4.6,-1.4 -6.2,0.3l0,0c-18.2,20.6 -49.7,30.3 -86.8,26.3c-20.6,-2.3 -41.1,-8.2 -61.1,-14c-11,-3.2 -22.4,-6.5 -33.9,-9.2c-38.6,-9.1 -70,-8.1 -95.4,3.7c-7,-4.1 -15.4,-6.5 -24.7,-7.1c-30.2,-2.2 -58.5,13.8 -81.8,28.4c-2.2,1.3 -2.6,4.1 -1.4,6c1.3,2.2 4.1,2.6 6,1.4c23.1,-14.4 49.3,-29 76.6,-27.1c5.8,0.4 11.2,1.6 15.8,3.5c-7.3,4.6 -12.5,10 -15.7,16.4l0,0c-4.3,8.6 -4.8,21.7 3.7,29.9c3.8,3.7 9.1,5.7 14.7,5.7c1.1,0.1 2.3,0 3.4,-0.1l0.1,0c7.6,-1 14.8,-5.5 18.5,-11.9l0,0c6.7,-11.3 4.1,-27 -5.6,-37.4l0,0l0,0c-0.5,-0.5 -1,-1.1 -1.5,-1.6c22.4,-8.9 50.3,-9.4 85.3,-1.2c10.1,2.4 20.2,5.3 30.2,8.1c1.1,0.3 2.2,0.6 3.2,0.9l0.6,0.2c19.9,5.8 40.7,11.8 62,14.1c39.2,4.3 73.7,-6.1 94.2,-29.2c1.8,-1.8 1.6,-4.5 -0.2,-6.1zm-275.7,47.7l0,0c-2.3,3.9 -7,6.9 -12.1,7.6c-4.5,0.6 -8.4,-0.6 -10.9,-3.1l0,0c-5,-4.9 -5.1,-13.5 -1.9,-19.7l0,0c2.9,-5.7 8.2,-10.7 16.7,-15.3c1.4,1.1 2.7,2.3 3.8,3.5c7.4,7.9 9,19.3 4.4,27z"/>
  </g>
 </g>
</svg>