<svg width="1025" height="1024" xmlns="http://www.w3.org/2000/svg" xml:space="preserve" enable-background="new 0 0 1025 1024" version="1.1">

 <g>
  <title>Layer 1</title>
  <g stroke="null" id="svg_1">
   <path stroke="null" id="svg_2" d="m1016.14841,492.28616l-332.1649,-331.62479c-5.40106,-5.40106 -11.88232,-8.10158 -19.4438,-8.10158s-14.04274,2.70053 -19.4438,8.10158s-8.10158,11.88232 -8.10158,19.4438s2.70053,14.04274 8.10158,19.4438l284.63561,284.63561l-900.89601,0c-7.92227,0 -14.58285,2.70053 -19.9839,8.10158s-8.10158,12.06272 -8.10158,19.9839c0,7.56148 2.70053,14.04274 8.10158,19.4438s12.06164,8.10158 19.9839,8.10158l900.89601,0l-284.63561,284.63561c-5.40106,5.40106 -8.10158,11.88232 -8.10158,19.4438s2.70053,14.04274 8.10158,19.4438c2.52013,2.88092 5.49071,4.95061 8.91174,6.21121s6.93171,1.89037 10.53206,1.89037s7.11103,-0.62976 10.53206,-1.89037s6.39161,-3.33029 8.91174,-6.21121l332.1649,-331.62479c5.40106,-5.40106 8.10158,-11.97198 8.10158,-19.71385s-2.70053,-14.3128 -8.10158,-19.71385l0,0z"/>
  </g>
 </g>
</svg>