<svg width="1025" height="1024" xmlns="http://www.w3.org/2000/svg" xml:space="preserve" enable-background="new 0 0 1025 1024" version="1.1">

 <g>
  <title>Layer 1</title>
  <g stroke="null" id="svg_1">
   <path stroke="null" id="svg_2" d="m8.3595,492.26688l332.48946,-331.94882c5.40633,-5.40633 11.89393,-8.1095 19.4628,-8.1095s14.05646,2.70317 19.4628,8.1095s8.1095,11.89393 8.1095,19.4628s-2.70317,14.05646 -8.1095,19.4628l-284.91373,284.91373l901.77628,0c7.92893,0 14.5971,2.70317 20.00343,8.1095s8.1095,12.0745 8.1095,20.00343c0,7.56887 -2.70317,14.05646 -8.1095,19.4628s-12.0745,8.1095 -20.00343,8.1095l-901.77628,0l284.91373,284.91373c5.40633,5.40633 8.1095,11.89393 8.1095,19.4628s-2.70317,14.05646 -8.1095,19.4628c-2.52259,2.88374 -5.49716,4.95544 -8.92045,6.21728s-6.93741,1.89222 -10.54235,1.89222s-7.11906,-0.63038 -10.54235,-1.89222s-6.39677,-3.33354 -8.92045,-6.21728l-332.48946,-331.94882c-5.40633,-5.40633 -8.1095,-11.98368 -8.1095,-19.73311s2.70317,-14.32678 8.1095,-19.73311l0,0z"/>
  </g>
 </g>
</svg>