<svg width="1025" height="1024" xmlns="http://www.w3.org/2000/svg" xml:space="preserve" version="1.1">

 <g>
  <title>Layer 1</title>
  <g stroke="null" id="svg_5">
   <path stroke="null" id="svg_1" d="m721.11252,374.72437c-27.5831,0 -55.1662,-20.68733 -55.1662,-55.1662l0,-62.06198c0,-41.37465 -20.68733,-82.74931 -48.27043,-117.22819c-34.47888,-27.5831 -75.85353,-41.37465 -117.22819,-34.47888c-75.85353,6.89578 -137.91551,82.74931 -137.91551,165.49861l0,41.37465c0,27.5831 -20.68733,55.1662 -55.1662,55.1662s-48.27043,-27.5831 -48.27043,-55.1662l0,-41.37465c0,-131.01974 110.33241,-255.1437 234.45637,-268.93525c75.85353,-6.89578 144.81129,13.79155 199.97749,68.95776c55.1662,48.27043 82.74931,117.22819 82.74931,193.08172l0,62.06198c0,27.5831 -27.5831,48.27043 -55.1662,48.27043z"/>
   <path stroke="null" id="svg_2" d="m652.15477,1022.92728l-275.83102,0c-227.56059,0 -268.93525,-110.33241 -275.83102,-213.76904l-34.47888,-275.83102c-13.79155,-75.85353 0,-137.91551 41.37465,-179.29017c41.37465,-48.27043 117.22819,-75.85353 220.66482,-75.85353l365.47611,0c103.43663,0 179.29017,27.5831 220.66482,75.85353c41.37465,41.37465 55.1662,103.43663 48.27043,186.18594l-34.47888,275.83102c-6.89578,96.54086 -48.27043,206.87327 -275.83102,206.87327zm-324.10145,-641.30713c-75.85353,0 -124.12396,13.79155 -144.81129,41.37465c-13.79155,20.68733 -20.68733,55.1662 -20.68733,103.43663l34.47888,275.83102c6.89578,55.1662 13.79155,117.22819 179.29017,117.22819l275.83102,0c165.49861,0 172.39439,-62.06198 179.29017,-117.22819l34.47888,-275.83102c6.89578,-48.27043 0,-82.74931 -20.68733,-103.43663c-20.68733,-27.5831 -75.85353,-41.37465 -144.81129,-41.37465l-372.37188,0z"/>
   <path stroke="null" id="svg_3" d="m672.8421,581.59764c-41.37465,0 -68.95776,-27.5831 -68.95776,-68.95776s27.5831,-68.95776 68.95776,-68.95776l0,0c41.37465,0 68.95776,27.5831 68.95776,68.95776s-27.5831,68.95776 -68.95776,68.95776z"/>
   <path stroke="null" id="svg_4" d="m355.63642,581.59764c-41.37465,0 -68.95776,-27.5831 -68.95776,-68.95776s27.5831,-68.95776 68.95776,-68.95776l0,0c41.37465,0 68.95776,27.5831 68.95776,68.95776s-34.47888,68.95776 -68.95776,68.95776z"/>
  </g>
 </g>
</svg>