<svg width="1025" height="1024" xmlns="http://www.w3.org/2000/svg" xml:space="preserve" version="1.1">

 <g>
  <title>Layer 1</title>
  <g stroke="null" id="svg_6">
   <path stroke="null" id="svg_1" fill="#191919" d="m507.76978,817.68971c-108.79478,0 -203.39894,-89.87395 -203.39894,-203.39894c0,-18.92083 14.19062,-37.84166 37.84166,-37.84166s37.84166,14.19062 37.84166,37.84166c0,70.95312 56.76249,132.44582 132.44582,132.44582s132.44582,-56.76249 132.44582,-132.44582c0,-18.92083 14.19062,-37.84166 37.84166,-37.84166s37.84166,14.19062 37.84166,37.84166c-9.46042,113.52499 -104.06457,203.39894 -212.85935,203.39894z" class="st0"/>
   <path stroke="null" id="svg_2" fill="#191919" d="m186.11565,245.33456c-9.46042,0 -18.92083,-4.73021 -23.65104,-9.46042c-14.19062,-14.19062 -14.19062,-37.84166 0,-52.03229l170.28748,-170.28748c14.19062,-14.19062 37.84166,-14.19062 52.03229,0s14.19062,37.84166 0,52.03229l-175.01769,170.28748c-4.73021,4.73021 -14.19062,9.46042 -23.65104,9.46042z" class="st0"/>
   <path stroke="null" id="svg_3" fill="#191919" d="m829.42391,245.33456c-9.46042,0 -18.92083,-4.73021 -23.65104,-9.46042l-170.28748,-170.28748c-14.19062,-14.19062 -14.19062,-37.84166 0,-52.03229s37.84166,-14.19062 52.03229,0l170.28748,170.28748c14.19062,14.19062 14.19062,37.84166 0,52.03229c-9.46042,4.73021 -18.92083,9.46042 -28.38125,9.46042z" class="st0"/>
   <path stroke="null" id="svg_4" fill="#191919" d="m895.64682,444.00329c-4.73021,0 -4.73021,0 -9.46042,0l-9.46042,0l-747.37284,0c-33.11145,0 -70.95312,0 -99.33436,-28.38125c-18.92083,-18.92083 -28.38125,-52.03229 -28.38125,-104.06457c0,-132.44582 94.60416,-132.44582 141.90623,-132.44582l737.91242,0c47.30208,0 141.90623,0 141.90623,132.44582c0,47.30208 -9.46042,80.41353 -33.11145,104.06457c-28.38125,28.38125 -61.4927,28.38125 -94.60416,28.38125zm-756.83325,-70.95312l747.37284,0c18.92083,0 42.57187,0 47.30208,-4.73021c4.73021,-4.73021 9.46042,-14.19062 9.46042,-52.03229c0,-52.03229 -14.19062,-61.4927 -70.95312,-61.4927l-733.18221,0c-56.76249,0 -66.22291,4.73021 -66.22291,56.76249c0,37.84166 9.46042,47.30208 9.46042,52.03229c4.73021,4.73021 28.38125,4.73021 47.30208,4.73021l9.46042,0l0,4.73021z" class="st0"/>
   <path stroke="null" id="svg_5" fill="#191919" d="m644.94581,1021.08864l-283.81247,0c-170.28748,0 -208.12914,-99.33436 -222.31977,-189.20831l-66.22291,-411.52808c-4.73021,-18.92083 9.46042,-37.84166 28.38125,-37.84166c18.92083,-4.73021 37.84166,9.46042 42.57187,28.38125l66.22291,406.79787c14.19062,85.14374 42.57187,127.71561 151.36665,127.71561l283.81247,0c122.9854,0 137.17603,-42.57187 151.36665,-122.9854l80.41353,-416.25829c4.73021,-18.92083 23.65104,-33.11145 42.57187,-28.38125c18.92083,4.73021 33.11145,23.65104 28.38125,42.57187l-80.41353,416.25829c-18.92083,94.60416 -52.03229,184.47811 -222.31977,184.47811z" class="st0"/>
  </g>
 </g>
</svg>