<svg width="1025" height="1024" xmlns="http://www.w3.org/2000/svg">

 <g>
  <title>background</title>
  <rect fill="none" id="canvas_background" height="602" width="802" y="-1" x="-1"/>
 </g>
 <g>
  <title>Layer 1</title>
  <g id="svg_1">
   <path id="svg_2" d="m948.5,228l-872,0c-6.627,0 -12,-5.373 -12,-12l0,0l0,-48c0,-6.627 5.373,-12 12,-12l0,0l872,0c6.627,0 12,5.373 12,12l0,0l0,48c0,6.627 -5.373,12 -12,12l0,0zm0,320l-872,0c-6.627,0 -12,-5.373 -12,-12l0,0l0,-48c0,-6.627 5.373,-12 12,-12l0,0l872,0c6.627,0 12,5.373 12,12l0,0l0,48c0,6.627 -5.373,12 -12,12l0,0zm0,320l-872,0c-6.627,0 -12,-5.373 -12,-12l0,0l0,-48c0,-6.627 5.373,-12 12,-12l0,0l872,0c6.627,0 12,5.373 12,12l0,0l0,48c0,6.627 -5.373,12 -12,12l0,0z"/>
  </g>
 </g>
</svg>