<svg width="1025" height="1024" xmlns="http://www.w3.org/2000/svg" xmlns:xlink="http://www.w3.org/1999/xlink" xml:space="preserve" version="1.1">
 <g>
  <title>Layer 1</title>
  <defs>
   <rect height="24" width="24" id="SVGID_1_"/>
  </defs>
  <clipPath id="SVGID_2_">
   <use id="svg_2" xlink:href="#SVGID_1_"/>
  </clipPath>
  <path stroke="null" id="svg_4" fill="#191919" d="m869.48775,396.95326c-8.5196,-4.2598 -17.03921,0 -21.29901,4.2598c-8.5196,12.7794 -25.55881,21.29901 -42.59801,21.29901c0,0 -4.2598,0 -4.2598,0c-25.55881,0 -46.85782,-21.29901 -46.85782,-46.85782c0,0 0,-4.2598 0,-4.2598c0,-25.55881 21.29901,-46.85782 46.85782,-46.85782c0,0 4.2598,0 4.2598,0c17.03921,0 34.07841,12.7794 42.59801,29.81861c4.2598,8.5196 12.7794,12.7794 21.29901,8.5196c8.5196,-4.2598 12.7794,-12.7794 8.5196,-21.29901c-12.7794,-25.55881 -34.07841,-42.59801 -63.89702,-46.85782c-4.2598,-12.7794 -4.2598,-25.55881 -8.5196,-34.07841c34.07841,-25.55881 42.59801,-72.41663 21.29901,-106.49504c-21.29901,-34.07841 -68.15682,-46.85782 -106.49504,-25.55881c-8.5196,-8.5196 -17.03921,-17.03921 -29.81861,-25.55881c12.7794,-38.33821 -8.5196,-80.93623 -46.85782,-97.97543c-38.33821,-12.7794 -85.19603,4.2598 -102.23524,42.59801c-21.29901,0 -42.59801,0 -59.63722,0c-17.03921,-38.33821 -59.63722,-55.37742 -102.23524,-42.59801c-21.29901,8.5196 -34.07841,21.29901 -42.59801,42.59801c-4.2598,17.03921 -4.2598,38.33821 0,55.37742c-8.5196,8.5196 -21.29901,17.03921 -29.81861,25.55881c-17.03921,-12.7794 -34.07841,-12.7794 -55.37742,-8.5196c-21.29901,4.2598 -38.33821,17.03921 -51.11762,34.07841c-21.29901,34.07841 -12.7794,80.93623 21.29901,106.49504c-4.2598,12.7794 -4.2598,25.55881 -8.5196,34.07841c-17.03921,4.2598 -34.07841,12.7794 -46.85782,29.81861c-17.03921,12.7794 -21.29901,34.07841 -21.29901,55.37742l0,0c4.2598,42.59801 34.07841,72.41663 76.67643,72.41663c4.2598,12.7794 4.2598,21.29901 8.5196,34.07841c-34.07841,21.29901 -51.11762,59.63722 -34.07841,97.97543l0,0c12.7794,29.81861 42.59801,51.11762 72.41663,51.11762c8.5196,0 12.7794,0 21.29901,-4.2598c4.2598,8.5196 12.7794,21.29901 17.03921,29.81861c-21.29901,21.29901 -25.55881,51.11762 -17.03921,76.67643c4.2598,8.5196 12.7794,12.7794 17.03921,8.5196c8.5196,-4.2598 12.7794,-12.7794 8.5196,-17.03921c-4.2598,-17.03921 0,-38.33821 12.7794,-51.11762c8.5196,-8.5196 21.29901,-12.7794 34.07841,-12.7794c12.7794,0 25.55881,4.2598 38.33821,17.03921c8.5196,8.5196 12.7794,21.29901 12.7794,34.07841c0,12.7794 -4.2598,25.55881 -17.03921,38.33821c-4.2598,4.2598 -8.5196,8.5196 -17.03921,8.5196c-8.5196,4.2598 -21.29901,4.2598 -29.81861,0c-8.5196,-4.2598 -17.03921,4.2598 -17.03921,8.5196c-4.2598,8.5196 4.2598,17.03921 8.5196,17.03921c8.5196,0 12.7794,4.2598 21.29901,4.2598c8.5196,0 17.03921,0 25.55881,-4.2598c8.5196,-4.2598 12.7794,-4.2598 21.29901,-12.7794c8.5196,4.2598 17.03921,8.5196 25.55881,12.7794c0,4.2598 0,8.5196 0,12.7794l0,0c4.2598,25.55881 17.03921,51.11762 38.33821,63.89702c-4.2598,4.2598 -8.5196,8.5196 -12.7794,12.7794c-21.29901,21.29901 -46.85782,59.63722 -46.85782,127.79404c0,8.5196 8.5196,17.03921 17.03921,17.03921c8.5196,0 17.03921,-8.5196 17.03921,-17.03921c0,-51.11762 17.03921,-80.93623 29.81861,-102.23524c-4.2598,21.29901 -8.5196,55.37742 -8.5196,102.23524c0,8.5196 8.5196,17.03921 17.03921,17.03921c8.5196,0 17.03921,-8.5196 17.03921,-17.03921c0,-59.63722 8.5196,-93.71563 12.7794,-115.01464c8.5196,17.03921 12.7794,55.37742 12.7794,115.01464c0,8.5196 8.5196,17.03921 17.03921,17.03921c8.5196,0 17.03921,-8.5196 17.03921,-17.03921c0,-46.85782 -4.2598,-76.67643 -8.5196,-102.23524c17.03921,21.29901 29.81861,51.11762 29.81861,102.23524c0,8.5196 8.5196,17.03921 17.03921,17.03921s17.03921,-8.5196 17.03921,-17.03921c0,-68.15682 -25.55881,-106.49504 -46.85782,-127.79404c-4.2598,-4.2598 -8.5196,-8.5196 -12.7794,-12.7794c25.55881,-12.7794 42.59801,-42.59801 38.33821,-72.41663c8.5196,-4.2598 17.03921,-8.5196 25.55881,-12.7794c12.7794,8.5196 29.81861,17.03921 46.85782,17.03921c21.29901,0 42.59801,-8.5196 59.63722,-25.55881c12.7794,-17.03921 21.29901,-38.33821 21.29901,-55.37742c0,-17.03921 -8.5196,-34.07841 -21.29901,-46.85782c4.2598,-8.5196 12.7794,-21.29901 17.03921,-29.81861c8.5196,0 12.7794,4.2598 21.29901,4.2598c34.07841,0 59.63722,-21.29901 72.41663,-51.11762c17.03921,-38.33821 0,-80.93623 -34.07841,-97.97543c4.2598,-12.7794 4.2598,-21.29901 8.5196,-34.07841c25.55881,0 51.11762,-17.03921 63.89702,-38.33821c0,-12.7794 0,-21.29901 -8.5196,-25.55881zm-106.49504,-251.32829c17.03921,0 29.81861,8.5196 42.59801,21.29901c12.7794,21.29901 8.5196,51.11762 -12.7794,68.15682c-8.5196,4.2598 -17.03921,8.5196 -25.55881,8.5196c-17.03921,0 -34.07841,-8.5196 -42.59801,-21.29901c-8.5196,-12.7794 -8.5196,-25.55881 -8.5196,-38.33821c4.2598,-12.7794 8.5196,-25.55881 21.29901,-29.81861c8.5196,-4.2598 17.03921,-8.5196 25.55881,-8.5196zm-187.43127,-80.93623c8.5196,-21.29901 25.55881,-29.81861 46.85782,-29.81861c4.2598,0 12.7794,0 17.03921,4.2598c25.55881,8.5196 38.33821,38.33821 29.81861,63.89702c-12.7794,12.7794 -29.81861,25.55881 -51.11762,25.55881c-4.2598,0 -12.7794,0 -17.03921,-4.2598c-25.55881,-8.5196 -38.33821,-38.33821 -25.55881,-59.63722zm-208.73027,-4.2598c4.2598,-12.7794 17.03921,-21.29901 25.55881,-25.55881c4.2598,0 12.7794,-4.2598 17.03921,-4.2598c21.29901,0 38.33821,12.7794 46.85782,29.81861c8.5196,25.55881 -4.2598,55.37742 -29.81861,63.89702c0,4.2598 -8.5196,4.2598 -12.7794,4.2598c-21.29901,0 -38.33821,-12.7794 -46.85782,-29.81861c0,0 0,0 0,0c-4.2598,-12.7794 -4.2598,-25.55881 0,-38.33821zm-140.57345,110.75484c8.5196,-12.7794 17.03921,-17.03921 29.81861,-21.29901c12.7794,-4.2598 25.55881,0 38.33821,8.5196c12.7794,4.2598 21.29901,12.7794 21.29901,25.55881c4.2598,12.7794 0,25.55881 -8.5196,38.33821c-8.5196,12.7794 -25.55881,21.29901 -42.59801,21.29901c-8.5196,0 -17.03921,-4.2598 -25.55881,-8.5196c-17.03921,-12.7794 -25.55881,-42.59801 -12.7794,-63.89702zm-51.11762,208.73027c0,-17.03921 4.2598,-25.55881 12.7794,-38.33821c8.5196,-8.5196 21.29901,-17.03921 34.07841,-17.03921c12.7794,0 25.55881,4.2598 34.07841,12.7794c8.5196,8.5196 17.03921,21.29901 17.03921,34.07841c0,25.55881 -17.03921,51.11762 -46.85782,51.11762c0,0 -4.2598,0 -4.2598,0c-21.29901,0 -42.59801,-17.03921 -46.85782,-42.59801zm51.11762,195.95087c-4.2598,-12.7794 -4.2598,-25.55881 0,-38.33821c4.2598,-12.7794 12.7794,-21.29901 25.55881,-25.55881c12.7794,-4.2598 25.55881,-4.2598 38.33821,0c12.7794,4.2598 21.29901,12.7794 25.55881,25.55881c8.5196,25.55881 0,55.37742 -25.55881,63.89702c-4.2598,4.2598 -12.7794,4.2598 -17.03921,4.2598c-21.29901,0 -42.59801,-12.7794 -46.85782,-29.81861zm293.9263,272.62729c0,0 -4.2598,0 0,0c-29.81861,0 -51.11762,-21.29901 -51.11762,-42.59801c-4.2598,-25.55881 17.03921,-51.11762 42.59801,-51.11762c12.7794,0 25.55881,4.2598 34.07841,12.7794c8.5196,8.5196 17.03921,21.29901 17.03921,34.07841c4.2598,21.29901 -17.03921,42.59801 -42.59801,46.85782zm46.85782,-110.75484c-17.03921,-12.7794 -38.33821,-21.29901 -59.63722,-17.03921c-29.81861,4.2598 -51.11762,21.29901 -63.89702,42.59801c-4.2598,0 -8.5196,-4.2598 -12.7794,-8.5196c8.5196,-12.7794 12.7794,-25.55881 12.7794,-38.33821c0,-21.29901 -8.5196,-38.33821 -21.29901,-51.11762c-17.03921,-17.03921 -38.33821,-25.55881 -59.63722,-25.55881c-12.7794,0 -21.29901,4.2598 -34.07841,8.5196c-4.2598,-8.5196 -8.5196,-17.03921 -17.03921,-25.55881c34.07841,-25.55881 46.85782,-63.89702 29.81861,-97.97543c-8.5196,-21.29901 -21.29901,-34.07841 -42.59801,-42.59801c-12.7794,-4.2598 -25.55881,-8.5196 -42.59801,-4.2598c-4.2598,-8.5196 -4.2598,-21.29901 -8.5196,-29.81861c34.07841,-12.7794 55.37742,-42.59801 51.11762,-80.93623c0,-21.29901 -12.7794,-38.33821 -25.55881,-55.37742c-4.2598,-4.2598 -17.03921,-8.5196 -29.81861,-12.7794c0,-8.5196 4.2598,-17.03921 4.2598,-25.55881c4.2598,0 12.7794,4.2598 17.03921,4.2598c25.55881,0 51.11762,-12.7794 68.15682,-38.33821c12.7794,-17.03921 17.03921,-38.33821 8.5196,-59.63722c4.2598,-12.7794 -4.2598,-25.55881 -8.5196,-34.07841c4.2598,-4.2598 12.7794,-8.5196 17.03921,-17.03921c12.7794,17.03921 38.33821,29.81861 59.63722,29.81861c8.5196,0 17.03921,0 29.81861,-4.2598c34.07841,-12.7794 51.11762,-42.59801 51.11762,-76.67643c17.03921,0 34.07841,0 46.85782,0c0,34.07841 17.03921,63.89702 51.11762,76.67643c8.5196,4.2598 17.03921,4.2598 29.81861,4.2598c25.55881,0 46.85782,-12.7794 59.63722,-29.81861c8.5196,4.2598 12.7794,12.7794 21.29901,17.03921c-8.5196,8.5196 -12.7794,21.29901 -17.03921,34.07841c-4.2598,21.29901 0,42.59801 8.5196,59.63722c12.7794,21.29901 38.33821,38.33821 68.15682,38.33821c4.2598,0 12.7794,0 17.03921,-4.2598c8.5196,8.5196 8.5196,17.03921 12.7794,25.55881c-34.07841,8.5196 -55.37742,38.33821 -59.63722,72.41663c0,0 0,4.2598 0,4.2598c0,34.07841 21.29901,63.89702 51.11762,72.41663c-4.2598,8.5196 -4.2598,17.03921 -8.5196,29.81861c-12.7794,0 -29.81861,0 -42.59801,4.2598c-21.29901,8.5196 -34.07841,21.29901 -42.59801,42.59801c-8.5196,21.29901 -8.5196,42.59801 0,59.63722c4.2598,12.7794 12.7794,25.55881 25.55881,34.07841c-4.2598,8.5196 -8.5196,17.03921 -12.7794,25.55881c-12.7794,-4.2598 -25.55881,-8.5196 -38.33821,-8.5196c-21.29901,0 -38.33821,12.7794 -55.37742,25.55881c-12.7794,17.03921 -21.29901,38.33821 -21.29901,55.37742c0,12.7794 4.2598,25.55881 12.7794,34.07841c-4.2598,4.2598 -8.5196,4.2598 -12.7794,8.5196c0,-4.2598 -8.5196,-12.7794 -17.03921,-21.29901zm136.31365,12.7794c-8.5196,8.5196 -21.29901,17.03921 -38.33821,17.03921c-12.7794,0 -21.29901,-4.2598 -34.07841,-12.7794c-8.5196,-8.5196 -17.03921,-21.29901 -17.03921,-34.07841c0,-12.7794 4.2598,-25.55881 12.7794,-34.07841c8.5196,-8.5196 21.29901,-17.03921 34.07841,-17.03921c0,0 4.2598,0 4.2598,0c12.7794,0 21.29901,4.2598 34.07841,12.7794c8.5196,8.5196 17.03921,21.29901 17.03921,34.07841c0,8.5196 -4.2598,21.29901 -12.7794,34.07841zm102.23524,-174.65186c-8.5196,17.03921 -25.55881,29.81861 -46.85782,29.81861c-4.2598,0 -12.7794,0 -17.03921,-4.2598c-12.7794,-4.2598 -21.29901,-12.7794 -25.55881,-25.55881c-4.2598,-12.7794 -4.2598,-25.55881 0,-38.33821c4.2598,-12.7794 12.7794,-21.29901 25.55881,-25.55881c4.2598,-4.2598 12.7794,-4.2598 17.03921,-4.2598c4.2598,0 12.7794,0 17.03921,4.2598c29.81861,8.5196 42.59801,38.33821 29.81861,63.89702z" class="st1"/>
 </g>
</svg>