<svg width="1025" height="1024" xmlns="http://www.w3.org/2000/svg" xml:space="preserve" version="1.1">

 <g>
  <title>Layer 1</title>
  <g stroke="null" id="svg_5">
   <path stroke="null" id="svg_1" fill="#191919" d="m512.50001,573.94604c-7.11342,0 -11.85571,-2.37114 -18.96913,-4.74228l-417.32083,-241.85639c-16.59799,-9.48456 -23.71141,-30.82483 -11.85571,-49.79396c9.48456,-16.59799 30.82483,-23.71141 49.79396,-11.85571l398.3517,232.37182l398.3517,-230.00068c16.59799,-9.48456 37.93826,-4.74228 49.79396,11.85571c9.48456,16.59799 4.74228,37.93826 -11.85571,49.79396l-417.32083,239.48525c-7.11342,2.37114 -11.85571,4.74228 -18.96913,4.74228z" class="st0"/>
   <path stroke="null" id="svg_2" fill="#191919" d="m512.50001,1003.12257c-18.96913,0 -35.56712,-16.59799 -35.56712,-35.56712l0,-429.17653c0,-18.96913 16.59799,-35.56712 35.56712,-35.56712s35.56712,16.59799 35.56712,35.56712l0,429.17653c0,18.96913 -16.59799,35.56712 -35.56712,35.56712z" class="st0"/>
   <path stroke="null" id="svg_3" fill="#191919" d="m512.50001,1022.0917c-42.68054,0 -82.98994,-9.48456 -116.18591,-26.08255l-253.71209,-142.26846c-68.76309,-37.93826 -123.29933,-130.41276 -123.29933,-208.66041l0,-267.93894c0,-78.24765 54.53624,-170.72216 123.29933,-208.66041l253.71209,-139.89732c64.02081,-35.56712 165.97987,-35.56712 232.37182,0l253.71209,139.89732c68.76309,37.93826 123.29933,130.41276 123.29933,208.66041l0,267.93894c0,78.24765 -54.53624,170.72216 -123.29933,208.66041l-253.71209,139.89732c-33.19597,18.96913 -73.50537,28.45369 -116.18591,28.45369zm0,-948.45642c-30.82483,0 -59.27853,7.11342 -80.6188,18.96913l-253.71209,139.89732c-45.05168,26.08255 -85.36108,92.4745 -85.36108,147.01075l0,267.93894c0,52.1651 40.3094,120.92819 85.36108,147.01075l253.71209,139.89732c42.68054,23.71141 118.55705,23.71141 161.23759,0l253.71209,-139.89732c45.05168,-26.08255 85.36108,-92.4745 85.36108,-147.01075l0,-267.93894c0,-52.1651 -40.3094,-120.92819 -85.36108,-147.01075l-253.71209,-139.89732c-21.34027,-11.85571 -49.79396,-18.96913 -80.6188,-18.96913z" class="st0"/>
   <path stroke="null" id="svg_4" fill="#191919" d="m749.61412,607.14202c-18.96913,0 -35.56712,-16.59799 -35.56712,-35.56712l0,-154.12417l-431.54767,-248.96981c-16.59799,-9.48456 -23.71141,-30.82483 -11.85571,-47.42282c9.48456,-16.59799 30.82483,-23.71141 47.42282,-11.85571l450.5168,260.82552c11.85571,7.11342 18.96913,18.96913 18.96913,30.82483l0,173.0933c-2.37114,16.59799 -18.96913,33.19597 -37.93826,33.19597z" class="st0"/>
  </g>
 </g>
</svg>