<svg width="1025" height="1024" xmlns="http://www.w3.org/2000/svg" xml:space="preserve" version="1.1">

 <g>
  <title>Layer 1</title>
  <g stroke="null" id="svg_4">
   <path stroke="null" id="svg_1" fill="#191919" d="m768.57186,1021.31424c-53.76095,0 -110.35142,-14.14762 -166.94188,-36.78381c-56.59047,-25.46571 -113.18094,-56.59047 -169.77141,-96.2038c-53.76095,-39.61333 -107.52189,-84.8857 -158.45331,-135.81713c-50.93142,-50.93142 -96.2038,-104.69237 -135.81713,-158.45331c-39.61333,-56.59047 -73.56761,-113.18094 -96.2038,-166.94188c-25.46571,-59.41999 -36.78381,-116.01046 -36.78381,-169.77141c0,-36.78381 5.65905,-70.73809 19.80666,-104.69237c11.31809,-33.95428 33.95428,-65.07904 62.24952,-90.54475c36.78381,-36.78381 79.22666,-53.76095 121.66951,-53.76095c19.80666,0 36.78381,5.65905 53.76095,11.31809c16.97714,8.48857 33.95428,22.63619 45.27238,36.78381l110.35142,155.62379c11.31809,14.14762 16.97714,28.29523 22.63619,39.61333c5.65905,14.14762 8.48857,28.29523 8.48857,42.44285c0,16.97714 -5.65905,36.78381 -14.14762,50.93142c-8.48857,11.31809 -16.97714,25.46571 -31.12476,39.61333l-33.95428,33.95428c0,2.82952 0,2.82952 2.82952,2.82952c5.65905,11.31809 16.97714,25.46571 39.61333,53.76095c22.63619,25.46571 45.27238,50.93142 67.90856,73.56761c28.29523,28.29523 50.93142,48.1019 73.56761,67.90856c28.29523,22.63619 45.27238,33.95428 53.76095,39.61333l0,2.82952l33.95428,-33.95428c14.14762,-14.14762 28.29523,-25.46571 42.44285,-31.12476c25.46571,-16.97714 59.41999,-19.80666 93.37427,-5.65905c11.31809,5.65905 25.46571,11.31809 39.61333,22.63619l155.62379,110.35142c16.97714,11.31809 31.12476,25.46571 36.78381,45.27238c8.48857,16.97714 11.31809,33.95428 11.31809,50.93142c0,22.63619 -5.65905,45.27238 -14.14762,67.90856c-8.48857,22.63619 -22.63619,39.61333 -36.78381,56.59047c-25.46571,28.29523 -56.59047,50.93142 -90.54475,65.07904c-39.61333,8.48857 -73.56761,14.14762 -110.35142,14.14762zm-560.24565,-942.23131c-25.46571,0 -50.93142,11.31809 -73.56761,33.95428c-19.80666,19.80666 -36.78381,42.44285 -45.27238,65.07904c-11.31809,25.46571 -14.14762,50.93142 -14.14762,79.22666c0,45.27238 11.31809,90.54475 31.12476,141.47617c22.63619,50.93142 50.93142,101.86284 87.71523,152.79427c36.78381,50.93142 82.05618,101.86284 127.32856,149.96474c48.1019,45.27238 99.03332,90.54475 149.96474,127.32856c50.93142,36.78381 101.86284,67.90856 155.62379,90.54475c82.05618,33.95428 155.62379,42.44285 217.87331,16.97714c25.46571,-8.48857 45.27238,-25.46571 65.07904,-45.27238c11.31809,-11.31809 19.80666,-25.46571 25.46571,-39.61333c5.65905,-11.31809 8.48857,-25.46571 8.48857,-36.78381c0,-8.48857 0,-14.14762 -5.65905,-22.63619c0,-2.82952 -2.82952,-8.48857 -14.14762,-14.14762l-155.62379,-110.35142c-8.48857,-5.65905 -16.97714,-11.31809 -25.46571,-14.14762c-11.31809,-2.82952 -14.14762,-8.48857 -31.12476,0c-8.48857,5.65905 -16.97714,11.31809 -28.29523,22.63619l-36.78381,36.78381c-16.97714,16.97714 -45.27238,22.63619 -67.90856,14.14762l-11.31809,-5.65905c-19.80666,-11.31809 -42.44285,-25.46571 -67.90856,-48.1019c-22.63619,-19.80666 -48.1019,-42.44285 -76.39713,-70.73809c-22.63619,-22.63619 -45.27238,-48.1019 -70.73809,-76.39713c-22.63619,-25.46571 -39.61333,-48.1019 -48.1019,-65.07904l-5.65905,-14.14762c-2.82952,-11.31809 -2.82952,-16.97714 -2.82952,-22.63619c0,-16.97714 5.65905,-31.12476 16.97714,-45.27238l36.78381,-36.78381c8.48857,-8.48857 16.97714,-16.97714 22.63619,-25.46571c2.82952,-5.65905 5.65905,-11.31809 5.65905,-16.97714c0,-2.82952 -2.82952,-8.48857 -2.82952,-14.14762c-2.82952,-8.48857 -8.48857,-16.97714 -14.14762,-25.46571l-110.35142,-155.62379c-5.65905,-5.65905 -11.31809,-11.31809 -16.97714,-14.14762c-8.48857,-11.31809 -16.97714,-11.31809 -25.46571,-11.31809zm393.30376,577.22279l-5.65905,31.12476l11.31809,-33.95428c-2.82952,2.82952 -2.82952,2.82952 -5.65905,2.82952z" class="st0"/>
   <path stroke="null" id="svg_2" fill="#191919" d="m816.67376,410.13717c-19.80666,0 -36.78381,-16.97714 -36.78381,-33.95428c0,-16.97714 -16.97714,-53.76095 -45.27238,-82.05618c-28.29523,-31.12476 -59.41999,-48.1019 -84.8857,-48.1019c-19.80666,0 -36.78381,-16.97714 -36.78381,-36.78381c0,-19.80666 16.97714,-36.78381 36.78381,-36.78381c45.27238,0 93.37427,25.46571 135.81713,70.73809c39.61333,42.44285 65.07904,93.37427 65.07904,130.15808c2.82952,19.80666 -14.14762,36.78381 -33.95428,36.78381z" class="st0"/>
   <path stroke="null" id="svg_3" fill="#191919" d="m983.61564,407.30765c-19.80666,0 -36.78381,-16.97714 -36.78381,-36.78381c0,-164.11236 -132.9876,-294.27044 -294.27044,-294.27044c-19.80666,0 -36.78381,-16.97714 -36.78381,-36.78381c0,-19.80666 16.97714,-36.78381 36.78381,-36.78381c200.89617,0 365.00853,164.11236 365.00853,365.00853c0,25.46571 -16.97714,39.61333 -33.95428,39.61333z" class="st0"/>
  </g>
 </g>
</svg>