<svg width="1025" height="1024" xmlns="http://www.w3.org/2000/svg" xml:space="preserve" version="1.1">

 <g>
  <title>Layer 1</title>
  <g stroke="null" id="svg_5">
   <path stroke="null" id="svg_1" fill="#231F20" d="m985.50715,381.92301l-946.01433,0c-18.92029,0 -37.84057,-14.19021 -37.84057,-37.84057s18.92029,-33.1105 37.84057,-33.1105l946.01433,0c18.92029,0 37.84057,14.19021 37.84057,37.84057s-18.92029,33.1105 -37.84057,33.1105z" class="st0"/>
   <path stroke="null" id="svg_2" fill="#231F20" d="m323.29712,760.32874l-94.60143,0c-18.92029,0 -37.84057,-14.19021 -37.84057,-37.84057s14.19021,-37.84057 37.84057,-37.84057l94.60143,0c18.92029,0 37.84057,14.19021 37.84057,37.84057s-18.92029,37.84057 -37.84057,37.84057z" class="st0"/>
   <path stroke="null" id="svg_3" fill="#231F20" d="m630.75178,760.32874l-189.20287,0c-18.92029,0 -37.84057,-14.19021 -37.84057,-37.84057s14.19021,-37.84057 37.84057,-37.84057l189.20287,0c18.92029,0 37.84057,14.19021 37.84057,37.84057s-18.92029,37.84057 -37.84057,37.84057z" class="st0"/>
   <path stroke="null" id="svg_4" fill="#231F20" d="m777.384,949.53161l-529.76802,0c-189.20287,0 -245.96373,-56.76086 -245.96373,-241.23365l0,-392.59595c0,-184.47279 56.76086,-241.23365 245.96373,-241.23365l525.03795,0c189.20287,0 245.96373,56.76086 245.96373,241.23365l0,387.86587c4.73007,184.47279 -56.76086,245.96373 -241.23365,245.96373zm-529.76802,-804.11218c-146.63222,0 -175.01265,23.65036 -175.01265,170.28258l0,387.86587c0,146.63222 23.65036,170.28258 175.01265,170.28258l525.03795,0c146.63222,0 175.01265,-23.65036 175.01265,-170.28258l0,-387.86587c0,-146.63222 -23.65036,-170.28258 -175.01265,-170.28258l-525.03795,0z" class="st0"/>
  </g>
 </g>
</svg>