<svg width="1025" height="1024" xmlns="http://www.w3.org/2000/svg" xml:space="preserve" version="1.1">

 <g>
  <title>Layer 1</title>
  <g stroke="null" id="svg_6">
   <path stroke="null" id="svg_1" fill="#191919" d="m131.14162,732.43695c-9.47474,0 -18.94948,-2.36869 -26.05554,-9.47474c-14.21211,-14.21211 -14.21211,-35.53028 0,-49.7424l566.11584,-568.48453c14.21211,-14.21211 35.53028,-14.21211 49.7424,0c14.21211,14.21211 14.21211,35.53028 0,49.7424l-566.11584,566.11584c-7.10606,7.10606 -16.5808,11.84343 -23.68686,11.84343z" class="st0"/>
   <path stroke="null" id="svg_2" fill="#191919" d="m469.86365,846.13386c-9.47474,0 -18.94948,-2.36869 -26.05554,-9.47474c-14.21211,-14.21211 -14.21211,-35.53028 0,-49.7424l56.84845,-56.84845c14.21211,-14.21211 35.53028,-14.21211 49.7424,0c14.21211,14.21211 14.21211,35.53028 0,49.7424l-56.84845,56.84845c-4.73737,4.73737 -14.21211,9.47474 -23.68686,9.47474z" class="st0"/>
   <path stroke="null" id="svg_3" fill="#191919" d="m597.77267,718.22484c-9.47474,0 -18.94948,-2.36869 -26.05554,-9.47474c-14.21211,-14.21211 -14.21211,-35.53028 0,-49.7424l113.69691,-113.69691c14.21211,-14.21211 35.53028,-14.21211 49.7424,0c14.21211,14.21211 14.21211,35.53028 0,49.7424l-113.69691,113.69691c-4.73737,4.73737 -14.21211,9.47474 -23.68686,9.47474z" class="st0"/>
   <path stroke="null" id="svg_4" fill="#191919" d="m469.86365,1021.41659c-47.37371,0 -92.37874,-28.42423 -149.22719,-85.27268l-232.13118,-232.13118c-113.69691,-113.69691 -113.69691,-187.12616 2.36869,-300.82306l312.66649,-315.03518c113.69691,-113.69691 187.12616,-113.69691 300.82306,-2.36869l232.13118,232.13118c113.69691,113.69691 113.69691,187.12616 -2.36869,300.82306l-312.66649,317.40386c-56.84845,56.84845 -104.22216,85.27268 -151.59587,85.27268zm85.27268,-947.47421c-23.68686,0 -56.84845,21.31817 -101.85348,66.32319l-312.66649,312.66649c-45.00503,45.00503 -66.32319,75.79794 -66.32319,99.48479c0,23.68686 18.94948,54.47977 63.95451,99.48479l232.13118,232.13118c45.00503,45.00503 73.42925,63.95451 99.48479,63.95451c0,0 0,0 0,0c23.68686,0 54.47977,-21.31817 99.48479,-66.32319l315.03518,-315.03518c45.00503,-45.00503 66.32319,-75.79794 66.32319,-99.48479c0,-23.68686 -18.94948,-54.47977 -63.95451,-99.48479l-232.13118,-229.7625c-45.00503,-45.00503 -75.79794,-63.95451 -99.48479,-63.95451z" class="st0"/>
   <path stroke="null" id="svg_5" fill="#191919" d="m986.2371,1021.41659l-947.47421,0c-18.94948,0 -35.53028,-16.5808 -35.53028,-35.53028s16.5808,-35.53028 35.53028,-35.53028l947.47421,0c18.94948,0 35.53028,16.5808 35.53028,35.53028s-16.5808,35.53028 -35.53028,35.53028z" class="st0"/>
  </g>
 </g>
</svg>