<svg width="1024" height="1024" xmlns="http://www.w3.org/2000/svg" xml:space="preserve" version="1.1">

 <g>
  <title>Layer 1</title>
  <g stroke="null" id="svg_1">
   <path stroke="null" id="svg_2" d="m512.05389,1023.64998c-68.98894,0 -136.03756,-13.5822 -199.09776,-40.20762c-60.9043,-25.76306 -115.66427,-62.62902 -162.66298,-109.62773c-46.99871,-46.99871 -83.86468,-101.75868 -109.62773,-162.66298c-26.73321,-63.0602 -40.31541,-130.10882 -40.31541,-199.09776c0,-68.98894 13.5822,-136.03756 40.20762,-199.09776c25.76306,-60.9043 62.62902,-115.66427 109.62773,-162.66298s101.65089,-83.86468 162.66298,-109.62773c63.168,-26.73321 130.10882,-40.31541 199.20556,-40.31541c68.98894,0 136.03756,13.5822 199.09776,40.20762c60.9043,25.76306 115.66427,62.62902 162.66298,109.62773c46.99871,46.99871 83.86468,101.65089 109.62773,162.66298c26.73321,63.168 40.20762,130.10882 40.20762,199.09776c0,68.98894 -13.5822,136.03756 -40.20762,199.09776c-25.76306,60.9043 -62.62902,115.66427 -109.62773,162.66298c-46.99871,46.99871 -101.65089,83.86468 -162.66298,109.62773c-63.0602,26.84101 -130.10882,40.31541 -199.09776,40.31541zm0,-919.81657c-225.07641,0 -408.22048,183.14407 -408.22048,408.22048c0,225.07641 183.14407,408.22048 408.22048,408.22048c225.07641,0 408.22048,-183.14407 408.22048,-408.22048c-0.1078,-225.07641 -183.14407,-408.22048 -408.22048,-408.22048z"/>
   <path stroke="null" id="svg_3" d="m682.58592,710.0737c-9.0548,0 -18.1096,-2.37149 -26.51762,-7.33007l-142.39748,-85.05042c-40.74659,-24.25392 -70.39028,-76.21122 -70.39028,-123.53332l0,-188.64163c0,-28.56573 23.17597,-51.7417 51.7417,-51.7417c28.56573,0 51.7417,23.17597 51.7417,51.7417l0,188.53383c0,10.67173 10.45614,29.10471 19.72652,34.60226c0,0 0.1078,0 0.1078,0.1078l142.61307,85.05042c24.57731,14.66015 32.55415,46.45974 17.89401,70.92925c-9.70157,16.27708 -26.84101,25.33188 -44.51942,25.33188z"/>
  </g>
 </g>
</svg>