<svg width="1025" height="1024" xmlns="http://www.w3.org/2000/svg" xml:space="preserve" version="1.1">

 <g>
  <title>Layer 1</title>
  <g stroke="null" id="svg_1">
   <path stroke="null" id="svg_2" d="m782.30887,982.37525c-17.22986,0 -34.56741,-4.63053 -50.18197,-13.99926l-180.48281,-107.25589c-18.41442,-0.53843 -36.72114,-1.93836 -54.48944,-4.41515c-18.73748,-2.58448 -34.56741,-15.07613 -41.24398,-32.73674s-3.33829,-37.58264 8.93799,-51.90496c27.46009,-32.19831 41.8901,-70.85781 41.8901,-111.67104c0,-101.76387 -90.13372,-184.46721 -201.05095,-184.46721c-41.78242,0 -81.62647,11.52247 -115.11702,33.38286c-14.96844,9.79948 -33.92129,11.09172 -50.07429,3.55366c-16.153,-7.53806 -27.35241,-22.93725 -29.39845,-40.70555c-1.50761,-12.49165 -2.15373,-25.62942 -2.15373,-41.02861c0,-58.47384 12.27628,-115.2247 36.50577,-168.63728c23.26031,-51.36653 56.4278,-97.34872 98.74865,-136.76203c41.99779,-39.19794 90.88752,-69.99632 145.26928,-91.42596c56.10474,-22.18345 115.65545,-33.38286 176.92915,-33.38286s120.82441,11.19941 176.92915,33.38286c54.38175,21.42964 103.27149,52.22802 145.26928,91.42596c42.21316,39.41331 75.48833,85.50319 98.74865,136.76203c24.22949,53.41257 36.50577,110.16343 36.50577,168.63728c0,68.38102 -17.44524,136.54666 -50.61272,196.95886c-26.81397,48.88973 -63.96586,93.04126 -108.33276,129.11628l13.99926,115.44008c0,0 0,0.10769 0,0.10769c4.52284,37.58264 -12.38396,73.54997 -44.04384,94.01044c-16.04531,10.4456 -34.35204,15.61456 -52.55108,15.61456zm-192.75908,-218.81925c1.07687,0.53843 2.04605,1.07687 3.01523,1.6153l182.31348,108.33276l-16.47606,-133.31606c-2.36911,-18.95285 6.03045,-37.69032 21.64501,-48.67436c89.05685,-62.45825 140.208,-157.33018 140.208,-260.49398c0,-180.26743 -158.83779,-326.93664 -353.96598,-326.93664c-178.32907,0 -326.3982,122.43971 -350.52001,281.06213c28.86002,-8.39956 59.11996,-12.81471 90.02603,-12.81471c80.65729,0 156.68406,29.50614 214.08104,83.0264c28.2139,26.38323 50.39735,57.18161 65.90422,91.53364c16.26068,35.85965 24.44487,73.98072 24.44487,113.28634c-0.21537,35.53659 -7.215,70.64244 -20.67583,103.37917z"/>
   <path stroke="null" id="svg_3" d="m170.97182,1023.0808c-14.96844,0 -29.93689,-4.30747 -43.18234,-12.70702c-26.27554,-16.79912 -40.38249,-46.41294 -36.72114,-77.21132c0,-0.10769 0,-0.32306 0.10769,-0.43075l7.75344,-61.38138c-25.95248,-22.61419 -47.81287,-49.53585 -63.96586,-79.04199c-22.07576,-40.38249 -33.8136,-86.04162 -33.8136,-131.91613c0,-95.62574 49.75123,-184.46721 132.993,-237.7721c50.39735,-32.73674 109.625,-50.07429 171.32944,-50.07429c80.65729,0 156.68406,29.50614 213.97335,83.0264c28.2139,26.38323 50.39735,57.18161 65.90422,91.53364c16.26068,35.85965 24.44487,73.98072 24.44487,113.28634c0,64.61198 -23.58337,128.03941 -66.33497,178.43676c-27.56778,33.27517 -63.42743,60.84295 -103.80992,79.58043c-37.58264,17.44524 -77.74975,27.24472 -119.53217,29.07539l-107.90201,64.07355c-12.81471,7.64575 -27.02935,11.52247 -41.24398,11.52247zm134.50061,-547.2635c-41.78242,0 -81.62647,11.52247 -115.11702,33.38286c-0.10769,0.10769 -0.21537,0.21537 -0.43075,0.21537c-53.52026,34.24435 -85.50319,90.56446 -85.50319,150.76129c0,57.93541 28.75233,111.13261 78.82662,145.9154c15.82994,10.98404 24.22949,29.8292 21.86039,48.99742l-5.49202,43.61309l79.47274,-47.16675c7.96881,-4.73821 17.12218,-7.215 26.38323,-7.215c62.24288,0 121.57822,-26.81397 158.62242,-71.7193c0.21537,-0.21537 0.32306,-0.43075 0.53843,-0.64612c27.46009,-32.19831 41.8901,-70.85781 41.8901,-111.67104c0,-101.65619 -90.2414,-184.46721 -201.05095,-184.46721z"/>
  </g>
 </g>
</svg>