<svg width="1025" height="1024" xmlns="http://www.w3.org/2000/svg" xml:space="preserve" version="1.1">

 <g>
  <title>Layer 1</title>
  <g stroke="null" id="svg_9">
   <path stroke="null" id="svg_1" fill="#191919" d="m653.28361,1021.89693c-11.83055,0 -23.66111,-7.09833 -30.75944,-18.92889c-7.09833,-11.83055 -7.09833,-23.66111 0,-35.49166l49.68833,-82.81388c9.46444,-16.56278 30.75944,-21.295 49.68833,-11.83055c16.56278,9.46444 21.295,30.75944 11.83055,49.68833l-11.83055,21.295c130.1361,-30.75944 229.51277,-149.06499 229.51277,-288.66554c0,-18.92889 16.56278,-35.49166 35.49166,-35.49166s35.49166,16.56278 35.49166,35.49166c-2.36611,201.11943 -167.99388,366.7472 -369.11331,366.7472z" class="st0"/>
   <path stroke="null" id="svg_2" fill="#191919" d="m38.09475,406.70807c-18.92889,0 -35.49166,-16.56278 -35.49166,-35.49166c0,-201.11943 165.62777,-366.7472 366.7472,-366.7472c11.83055,0 23.66111,7.09833 30.75944,18.92889c7.09833,11.83055 7.09833,23.66111 0,35.49166l-49.68833,82.81388c-9.46444,16.56278 -30.75944,21.295 -49.68833,11.83055s-21.295,-30.75944 -11.83055,-49.68833l11.83055,-21.295c-130.1361,30.75944 -227.14666,149.06499 -227.14666,288.66554c0,18.92889 -16.56278,35.49166 -35.49166,35.49166z" class="st0"/>
   <path stroke="null" id="svg_3" fill="#191919" d="m781.0536,300.23307c-7.09833,0 -11.83055,-2.36611 -18.92889,-4.73222l-186.92277,-108.84111c-16.56278,-9.46444 -23.66111,-30.75944 -11.83055,-49.68833s30.75944,-23.66111 47.32222,-11.83055l170.35999,99.37666l167.99388,-97.01055c16.56278,-9.46444 37.85778,-4.73222 47.32222,11.83055c9.46444,16.56278 4.73222,37.85778 -11.83055,49.68833l-186.92277,108.84111c-4.73222,0 -11.83055,2.36611 -16.56278,2.36611z" class="st0"/>
   <path stroke="null" id="svg_4" fill="#191919" d="m781.0536,491.88806c-18.92889,0 -35.49166,-16.56278 -35.49166,-35.49166l0,-194.0211c0,-18.92889 16.56278,-35.49166 35.49166,-35.49166c18.92889,0 35.49166,16.56278 35.49166,35.49166l0,194.0211c0,21.295 -16.56278,35.49166 -35.49166,35.49166z" class="st0"/>
   <path stroke="null" id="svg_5" fill="#191919" d="m781.0536,501.35251c-21.295,0 -44.95611,-4.73222 -61.51889,-14.19667l-113.57333,-63.885c-37.85778,-21.295 -63.885,-68.61722 -63.885,-111.20722l0,-120.67166c0,-42.59 28.39333,-89.91222 66.25111,-111.20722l113.57333,-63.885c35.49166,-18.92889 87.54611,-18.92889 123.03777,0l113.57333,63.885c37.85778,21.295 63.885,68.61722 63.885,111.20722l0,120.67166c0,42.59 -28.39333,89.91222 -63.885,111.20722l-115.93944,63.885c-18.92889,9.46444 -40.22389,14.19667 -61.51889,14.19667zm-28.39333,-421.16776l-113.57333,63.885c-14.19667,7.09833 -28.39333,33.12555 -28.39333,47.32222l0,120.67166c0,16.56278 14.19667,40.22389 28.39333,47.32222l113.57333,63.885c14.19667,7.09833 40.22389,7.09833 54.42055,0l113.57333,-63.885c14.19667,-7.09833 28.39333,-33.12555 28.39333,-47.32222l0,-120.67166c0,-16.56278 -14.19667,-40.22389 -28.39333,-47.32222l-113.57333,-63.885c-14.19667,-7.09833 -40.22389,-7.09833 -54.42055,0z" class="st0"/>
   <path stroke="null" id="svg_6" fill="#191919" d="m241.5803,820.77749c-7.09833,0 -11.83055,-2.36611 -18.92889,-4.73222l-186.92277,-108.84111c-16.56278,-9.46444 -23.66111,-30.75944 -11.83055,-49.68833c9.46444,-16.56278 30.75944,-23.66111 47.32222,-11.83055l170.35999,99.37666l167.99388,-97.01055c16.56278,-9.46444 37.85778,-4.73222 47.32222,11.83055c9.46444,16.56278 4.73222,37.85778 -11.83055,49.68833l-186.92277,108.84111c-2.36611,0 -9.46444,2.36611 -16.56278,2.36611z" class="st0"/>
   <path stroke="null" id="svg_7" fill="#191919" d="m241.5803,1012.43248c-18.92889,0 -35.49166,-16.56278 -35.49166,-35.49166l0,-194.0211c0,-18.92889 16.56278,-35.49166 35.49166,-35.49166c18.92889,0 35.49166,16.56278 35.49166,35.49166l0,194.0211c0,21.295 -14.19667,35.49166 -35.49166,35.49166z" class="st0"/>
   <path stroke="null" id="svg_8" fill="#191919" d="m241.5803,1021.89693c-21.295,0 -44.95611,-4.73222 -61.51889,-14.19667l-113.57333,-63.885c-37.85778,-21.295 -63.885,-68.61722 -63.885,-111.20722l0,-120.67166c0,-42.59 28.39333,-89.91222 63.885,-111.20722l113.57333,-63.885c35.49166,-18.92889 87.54611,-18.92889 123.03777,0l113.57333,63.885c37.85778,21.295 63.885,68.61722 63.885,111.20722l0,120.67166c0,42.59 -28.39333,89.91222 -66.25111,111.20722l-113.57333,63.885c-14.19667,9.46444 -35.49166,14.19667 -59.15277,14.19667zm-26.02722,-421.16776l-113.57333,63.885c-14.19667,7.09833 -28.39333,33.12555 -28.39333,47.32222l0,120.67166c0,16.56278 14.19667,40.22389 28.39333,47.32222l113.57333,63.885c14.19667,7.09833 40.22389,7.09833 54.42055,0l113.57333,-63.885c14.19667,-7.09833 28.39333,-33.12555 28.39333,-47.32222l0,-120.67166c0,-16.56278 -14.19667,-40.22389 -28.39333,-47.32222l-113.57333,-63.885c-14.19667,-7.09833 -40.22389,-7.09833 -54.42055,0z" class="st0"/>
  </g>
 </g>
</svg>