<?xml version="1.0" encoding="utf-8"?>
<!-- Generator: Adobe Illustrator 17.0.0, SVG Export Plug-In . SVG Version: 6.00 Build 0)  -->
<!DOCTYPE svg PUBLIC "-//W3C//DTD SVG 1.1//EN" "http://www.w3.org/Graphics/SVG/1.1/DTD/svg11.dtd">
<svg version="1.1" id="Layer_1" xmlns="http://www.w3.org/2000/svg" xmlns:xlink="http://www.w3.org/1999/xlink" x="0px" y="0px"
	 width="1025px" height="1024px" viewBox="0 0 1025 1024" enable-background="new 0 0 1025 1024" xml:space="preserve">
<g>
	<path fill="rgb(0, 0, 0)" d="M951.467 192v8.533c8.533 8.533 12.8 17.067 17.067 29.867 4.267 21.333 0 46.933-8.533 76.8l-170.667 482.133c-12.8 29.867-42.667 51.2-72.533 51.2h-405.333v0c-29.867 0-64-21.333-72.533-51.2v0 0l-179.2-494.933c-8.533-25.6-12.8-51.2-8.533-68.267 4.267-12.8 8.533-25.6 21.333-34.133 8.533-8.533 21.333-12.8 38.4-8.533 17.067 0 42.667 12.8 64 29.867l162.133 119.467 17.067 4.267c0 0 4.267-4.267 4.267-8.533l76.8-200.533c8.533-25.6 21.333-46.933 38.4-55.467 21.333-17.067 46.933-17.067 68.267 0 17.067 12.8 29.867 29.867 38.4 55.467l72.533 170.667 187.733-85.333c25.6-17.067 46.933-25.6 68.267-29.867 12.8 0 25.6 0 34.133 8.533h8.533zM379.733 776.533h332.8c4.267 0 4.267 0 8.533-4.267 0 0 4.267 0 4.267-4.267l170.667-477.867v-8.533h4.267c4.267-12.8 4.267-21.333 4.267-25.6v0c-8.533 4.267-17.067 8.533-25.6 12.8l-85.333 59.733-413.867 448zM256 652.8l42.667 115.2c0 0 4.267 4.267 4.267 8.533 0 0 4.267 0 4.267 4.267h12.8l349.867-379.733c-8.533 0-12.8 0-21.333-4.267-21.333-4.267-34.133-21.333-46.933-38.4l-192 12.8c-12.8 8.533-21.333 17.067-38.4 21.333-21.333 8.533-42.667 4.267-64-12.8l-102.4-38.4 51.2 311.467zM136.533 315.733l38.4 102.4-17.067-93.867-21.333-8.533zM358.4 349.867v0c0 4.267 0 4.267 0 0v0zM328.533 345.6c0 0 0 0 0 0v0 0zM640 328.533v0 0 0zM512 119.467c-4.267 4.267-8.533 12.8-12.8 25.6l-68.267 179.2 157.867-12.8-64-166.4c-4.267-17.067-8.533-21.333-12.8-25.6v0z"></path><path fill="rgb(25, 25, 25)" d="M746.667 972.8h-469.333c-17.067 0-34.133-12.8-34.133-34.133s12.8-34.133 34.133-34.133h469.333c17.067 0 34.133 12.8 34.133 34.133s-17.067 34.133-34.133 34.133z"></path><path fill="rgb(25, 25, 25)" d="M618.667 631.467h-213.333c-17.067 0-34.133-12.8-34.133-34.133s12.8-34.133 34.133-34.133h213.333c17.067 0 34.133 12.8 34.133 34.133s-17.067 34.133-34.133 34.133z"></path><path fill="rgb(0, 0, 0)" d="M507.733 388.267z"></path><path fill="rgb(255, 255, 255)" d="M524.8 396.8c51.2-21.333 93.867-12.8 85.333-29.867-29.867-59.733-55.467-166.4-89.6-157.867 0 0-59.733 25.6-68.267 55.467s-25.6 76.8-55.467 119.467c-25.6 34.133 29.867 42.667 51.2 55.467 12.8 4.267 25.6-21.333 76.8-42.667z"></path><path fill="rgb(255, 255, 255)" d="M418.133 349.867c0 4.267-4.267 17.067-12.8 25.6-17.067 17.067-42.667 29.867-68.267 21.333-12.8-4.267-21.333-8.533-25.6-12.8-115.2-72.533-196.267-123.733-192-123.733 0 0 17.067 12.8 17.067 12.8s-12.8-8.533-17.067-4.267c-12.8 8.533 59.733 192 140.8 388.267z"></path>
</g>
</svg>
