<svg width="1025" height="1024" xmlns="http://www.w3.org/2000/svg" xml:space="preserve" version="1.1">

 <g>
  <title>Layer 1</title>
  <g stroke="null" id="svg_8">
   <path stroke="null" id="svg_1" d="m909.28357,516.24368l-110.33554,-169.74698c-8.48735,-12.73102 -21.21837,-21.21837 -38.19307,-21.21837l-492.26624,0c-16.9747,0 -29.70572,8.48735 -38.19307,21.21837l-110.33554,169.74698c-12.73102,16.9747 -8.48735,42.43674 4.24367,55.16777l356.46866,398.9054c8.48735,8.48735 21.21837,16.9747 33.9494,16.9747l0,0c12.73102,0 25.46205,-4.24367 33.9494,-16.9747l356.46866,-398.9054c12.73102,-12.73102 16.9747,-38.19307 4.24367,-55.16777zm-173.99065,-152.77228l-93.36084,144.28493l-93.36084,-144.28493l186.72168,0zm-127.31023,161.25963l-186.72168,0l93.36084,-140.04126l93.36084,140.04126zm-127.31023,-161.25963l-93.36084,144.28493l-93.36084,-144.28493l186.72168,0zm-224.91475,16.9747l93.36084,144.28493l-186.72168,0l93.36084,-144.28493zm-84.87349,186.72168l199.4527,0l106.09186,343.73763l-305.54456,-343.73763zm343.73763,331.00661l-101.84819,-331.00661l203.69637,0l-101.84819,331.00661zm38.19307,12.73102l106.09186,-343.73763l199.4527,0l-305.54456,343.73763zm127.31023,-386.17438l93.36084,-144.28493l93.36084,144.28493l-186.72168,0z"/>
   <path stroke="null" id="svg_2" d="m64.79235,524.73103l-42.43674,0c-12.73102,0 -21.21837,8.48735 -21.21837,21.21837s8.48735,21.21837 21.21837,21.21837l42.43674,0c12.73102,0 21.21837,-8.48735 21.21837,-21.21837s-8.48735,-21.21837 -21.21837,-21.21837z"/>
   <path stroke="null" id="svg_3" d="m1002.64441,524.73103l-42.43674,0c-12.73102,0 -21.21837,8.48735 -21.21837,21.21837s8.48735,21.21837 21.21837,21.21837l42.43674,0c12.73102,0 21.21837,-8.48735 21.21837,-21.21837s-8.48735,-21.21837 -21.21837,-21.21837z"/>
   <path stroke="null" id="svg_4" d="m875.33418,185.23707c-8.48735,-8.48735 -21.21837,-8.48735 -29.70572,0l-67.89879,67.89879c-8.48735,8.48735 -8.48735,21.21837 0,29.70572c4.24367,4.24367 8.48735,4.24367 12.73102,4.24367c4.24367,0 8.48735,0 12.73102,-4.24367l72.14247,-67.89879c8.48735,-8.48735 8.48735,-21.21837 0,-29.70572z"/>
   <path stroke="null" id="svg_5" d="m247.27036,253.13586l-63.65512,-67.89879c-8.48735,-8.48735 -21.21837,-8.48735 -29.70572,0c-8.48735,8.48735 -8.48735,21.21837 0,29.70572l67.89879,67.89879c4.24367,4.24367 8.48735,4.24367 12.73102,4.24367s8.48735,0 12.73102,-4.24367c8.48735,-12.73102 8.48735,-25.46205 0,-29.70572z"/>
   <path stroke="null" id="svg_6" d="m514.62185,36.70847c-12.73102,0 -21.21837,8.48735 -21.21837,21.21837l0,131.55391c0,12.73102 8.48735,21.21837 21.21837,21.21837c12.73102,0 21.21837,-8.48735 21.21837,-21.21837l0,-131.55391c0,-12.73102 -8.48735,-21.21837 -21.21837,-21.21837z"/>
   <path stroke="null" id="svg_7" d="m527.35287,240.40484c-4.24367,-4.24367 -8.48735,-4.24367 -12.73102,-4.24367c-4.24367,0 -8.48735,4.24367 -12.73102,4.24367c-4.24367,4.24367 -4.24367,8.48735 -4.24367,12.73102c0,4.24367 4.24367,8.48735 4.24367,12.73102c4.24367,4.24367 8.48735,4.24367 12.73102,4.24367c4.24367,0 8.48735,0 12.73102,-4.24367c4.24367,-4.24367 4.24367,-8.48735 4.24367,-12.73102s0,-8.48735 -4.24367,-12.73102z"/>
  </g>
 </g>
</svg>