<svg width="1025" height="1024" xmlns="http://www.w3.org/2000/svg" xmlns:xlink="http://www.w3.org/1999/xlink" xml:space="preserve" version="1.1">
 <g>
  <title>Layer 1</title>
  <defs>
   <rect height="24" width="24" id="SVGID_1_"/>
  </defs>
  <clipPath id="SVGID_2_">
   <use id="svg_2" xlink:href="#SVGID_1_"/>
  </clipPath>
  <g stroke="null" id="svg_6">
   <path stroke="null" id="svg_4" fill="#191919" d="m4.59515,793.46395c0,122.74367 101.58097,224.32465 224.32465,224.32465c122.74367,0 224.32465,-101.58097 224.32465,-224.32465c0,-105.81351 -76.18573,-194.69686 -173.53416,-220.09211c12.69762,-12.69762 21.1627,-29.62778 21.1627,-50.79049c0,-25.39524 -12.69762,-46.55795 -29.62778,-59.25557c16.93016,-8.46508 29.62778,-29.62778 29.62778,-55.02303c0,-33.86032 -25.39524,-63.48811 -59.25557,-67.72065l0,-169.30162c38.09286,-8.46508 71.95319,-42.3254 71.95319,-84.65081c0,-46.55795 -38.09286,-84.65081 -84.65081,-84.65081c-46.55795,0 -84.65081,38.09286 -84.65081,84.65081c0,8.46508 4.23254,12.69762 12.69762,12.69762c8.46508,0 12.69762,-4.23254 12.69762,-12.69762c0,-33.86032 25.39524,-59.25557 59.25557,-59.25557c29.62778,0 59.25557,25.39524 59.25557,59.25557c0,33.86032 -25.39524,59.25557 -59.25557,59.25557c-8.46508,-4.23254 -12.69762,4.23254 -12.69762,8.46508l0,186.23178c-33.86032,4.23254 -59.25557,33.86032 -59.25557,67.72065c0,25.39524 12.69762,46.55795 29.62778,59.25557c-16.93016,12.69762 -29.62778,33.86032 -29.62778,59.25557c0,21.1627 8.46508,38.09286 21.1627,50.79049c-97.34843,21.1627 -173.53416,110.04605 -173.53416,215.85957zm46.55795,-88.88335l67.72065,38.09286c-8.46508,16.93016 -12.69762,33.86032 -12.69762,50.79049s4.23254,33.86032 12.69762,50.79049l-67.72065,38.09286c-12.69762,-25.39524 -21.1627,-55.02303 -21.1627,-88.88335c0,-29.62778 8.46508,-59.25557 21.1627,-88.88335zm177.7667,-8.46508c55.02303,0 97.34843,42.3254 97.34843,97.34843c0,55.02303 -42.3254,97.34843 -97.34843,97.34843s-97.34843,-42.3254 -97.34843,-97.34843c0,-55.02303 42.3254,-97.34843 97.34843,-97.34843zm-165.06908,207.39448l67.72065,-38.09286c21.1627,25.39524 50.79049,46.55795 84.65081,50.79049l0,76.18573c-63.48811,-4.23254 -118.51113,-38.09286 -152.37146,-88.88335zm177.7667,88.88335l0,-76.18573c33.86032,-4.23254 67.72065,-21.1627 84.65081,-50.79049l67.72065,38.09286c-33.86032,50.79049 -88.88335,84.65081 -152.37146,88.88335zm165.06908,-110.04605l-67.72065,-38.09286c8.46508,-16.93016 12.69762,-33.86032 12.69762,-50.79049s-4.23254,-33.86032 -12.69762,-50.79049l67.72065,-38.09286c12.69762,29.62778 21.1627,59.25557 21.1627,88.88335c0,33.86032 -8.46508,63.48811 -21.1627,88.88335zm-12.69762,-198.9294l-67.72065,38.09286c-21.1627,-25.39524 -50.79049,-46.55795 -84.65081,-50.79049l0,-76.18573c63.48811,4.23254 118.51113,38.09286 152.37146,88.88335zm-211.62702,-275.11513c0,-25.39524 21.1627,-46.55795 46.55795,-46.55795c25.39524,0 46.55795,21.1627 46.55795,46.55795c0,25.39524 -21.1627,46.55795 -46.55795,46.55795c-25.39524,0 -46.55795,-21.1627 -46.55795,-46.55795zm0,114.27859c0,-25.39524 21.1627,-46.55795 46.55795,-46.55795c25.39524,0 46.55795,21.1627 46.55795,46.55795c0,25.39524 -21.1627,46.55795 -46.55795,46.55795c-25.39524,0 -46.55795,-21.1627 -46.55795,-46.55795zm33.86032,71.95319l0,76.18573c-33.86032,4.23254 -67.72065,21.1627 -84.65081,50.79049l-67.72065,-38.09286c33.86032,-50.79049 88.88335,-84.65081 152.37146,-88.88335z" class="st1"/>
   <path stroke="null" id="svg_5" fill="#191919" d="m846.87071,573.37185c12.69762,-12.69762 21.1627,-29.62778 21.1627,-50.79049c0,-25.39524 -12.69762,-46.55795 -29.62778,-59.25557c16.93016,-12.69762 29.62778,-33.86032 29.62778,-59.25557c0,-33.86032 -25.39524,-63.48811 -59.25557,-67.72065l0,-169.30162c42.3254,-4.23254 71.95319,-38.09286 71.95319,-80.41827c0,-46.55795 -38.09286,-84.65081 -84.65081,-84.65081c-46.55795,0 -84.65081,38.09286 -84.65081,84.65081c0,8.46508 4.23254,12.69762 12.69762,12.69762c8.46508,0 12.69762,-4.23254 12.69762,-12.69762c0,-33.86032 25.39524,-59.25557 59.25557,-59.25557c33.86032,0 59.25557,25.39524 59.25557,59.25557c0,33.86032 -25.39524,59.25557 -59.25557,59.25557c-8.46508,0 -12.69762,4.23254 -12.69762,12.69762l0,181.99924c-33.86032,4.23254 -59.25557,33.86032 -59.25557,67.72065c0,25.39524 12.69762,46.55795 29.62778,59.25557c-16.93016,12.69762 -29.62778,33.86032 -29.62778,59.25557c0,21.1627 8.46508,38.09286 21.1627,50.79049c-101.58097,21.1627 -173.53416,110.04605 -173.53416,220.09211c0,122.74367 101.58097,224.32465 224.32465,224.32465c122.74367,0 224.32465,-101.58097 224.32465,-224.32465c0,-110.04605 -76.18573,-198.9294 -173.53416,-224.32465zm114.27859,110.04605l-67.72065,38.09286c-21.1627,-25.39524 -50.79049,-46.55795 -84.65081,-50.79049l0,-76.18573c63.48811,4.23254 118.51113,38.09286 152.37146,88.88335zm-165.06908,207.39448c-55.02303,0 -97.34843,-42.3254 -97.34843,-97.34843c0,-55.02303 42.3254,-97.34843 97.34843,-97.34843c55.02303,0 97.34843,42.3254 97.34843,97.34843c0,55.02303 -42.3254,97.34843 -97.34843,97.34843zm-46.55795,-482.50962c0,-25.39524 21.1627,-46.55795 46.55795,-46.55795c25.39524,0 46.55795,21.1627 46.55795,46.55795c0,25.39524 -21.1627,46.55795 -46.55795,46.55795c-25.39524,0 -46.55795,-21.1627 -46.55795,-46.55795zm0,114.27859c0,-25.39524 21.1627,-46.55795 46.55795,-46.55795c25.39524,0 46.55795,21.1627 46.55795,46.55795c0,25.39524 -21.1627,46.55795 -46.55795,46.55795c-25.39524,0 -46.55795,-21.1627 -46.55795,-46.55795zm33.86032,71.95319l0,76.18573c-33.86032,4.23254 -67.72065,21.1627 -84.65081,50.79049l-67.72065,-38.09286c33.86032,-50.79049 88.88335,-84.65081 152.37146,-88.88335zm-165.06908,110.04605l67.72065,38.09286c-8.46508,16.93016 -12.69762,33.86032 -12.69762,50.79049s4.23254,33.86032 12.69762,50.79049l-67.72065,38.09286c-12.69762,-25.39524 -21.1627,-55.02303 -21.1627,-88.88335c0,-29.62778 8.46508,-59.25557 21.1627,-88.88335zm12.69762,198.9294l67.72065,-38.09286c21.1627,25.39524 50.79049,46.55795 84.65081,50.79049l0,76.18573c-63.48811,-4.23254 -118.51113,-38.09286 -152.37146,-88.88335zm177.7667,88.88335l0,-76.18573c33.86032,-4.23254 67.72065,-21.1627 84.65081,-50.79049l67.72065,38.09286c-33.86032,50.79049 -88.88335,84.65081 -152.37146,88.88335zm165.06908,-110.04605l-67.72065,-38.09286c8.46508,-16.93016 12.69762,-33.86032 12.69762,-50.79049s-4.23254,-33.86032 -12.69762,-50.79049l67.72065,-38.09286c12.69762,25.39524 21.1627,55.02303 21.1627,88.88335c0,33.86032 -8.46508,63.48811 -21.1627,88.88335z" class="st1"/>
  </g>
 </g>
</svg>