<svg width="1025" height="1024" xmlns="http://www.w3.org/2000/svg" xml:space="preserve" version="1.1">

 <g>
  <title>Layer 1</title>
  <g stroke="null" id="svg_1">
   <path stroke="null" id="svg_2" d="m742.48108,954.66105l-459.96218,0c-85.05042,0 -153.0692,-23.06818 -201.90044,-68.44996c-52.92745,-49.15462 -79.76846,-120.94623 -79.76846,-213.21893l0,-321.98431c0,-92.3805 26.84101,-164.06432 79.76846,-213.21893c48.93903,-45.38179 116.85001,-68.44996 201.90044,-68.44996l459.96218,0c85.05042,0 153.0692,23.06818 201.90044,68.44996c52.92745,49.15462 79.76846,120.94623 79.76846,213.21893l0,321.98431c0,92.3805 -26.84101,164.06432 -79.76846,213.21893c-48.83123,45.48958 -116.85001,68.44996 -201.90044,68.44996zm-459.96218,-781.83869c-58.10162,0 -102.40545,13.68999 -131.51016,40.74659c-31.04502,28.78132 -46.67533,75.02547 -46.67533,137.4389l0,321.98431c0,62.41343 15.7381,108.65758 46.67533,137.4389c29.10471,27.0566 73.40854,40.74659 131.51016,40.74659l459.96218,0c58.10162,0 102.40545,-13.68999 131.51016,-40.74659c31.04502,-28.78132 46.67533,-75.02547 46.67533,-137.4389l0,-321.98431c0,-62.41343 -15.7381,-108.65758 -46.67533,-137.4389c-29.10471,-27.0566 -73.40854,-40.74659 -131.51016,-40.74659l-459.96218,0z"/>
   <path stroke="null" id="svg_3" d="m512.3383,569.07757c-44.41163,0 -86.45176,-14.01338 -118.46694,-39.56084c0,0 -0.1078,-0.1078 -0.1078,-0.1078l-143.47543,-114.9097c-22.31361,-17.89401 -25.87085,-50.44816 -7.97685,-72.76177c17.89401,-22.31361 50.44816,-25.87085 72.76177,-7.97685l143.36764,114.9097c28.24235,22.4214 79.76846,22.4214 108.01081,0l143.90661,-114.9097c22.31361,-17.78621 54.86776,-14.22897 72.76177,8.08464c17.78621,22.31361 14.22897,54.86776 -8.08464,72.76177l-144.1222,114.9097c-32.12297,25.54747 -74.16311,39.56084 -118.57474,39.56084z"/>
  </g>
 </g>
</svg>