<svg width="1025" height="1024" xmlns="http://www.w3.org/2000/svg" xml:space="preserve" version="1.1">

 <g>
  <title>Layer 1</title>
  <g stroke="null" id="svg_1">
   <path stroke="null" id="svg_2" d="m512.50002,732.91342c-59.06423,0 -114.49882,-22.98776 -156.18475,-64.67369s-64.67369,-97.12052 -64.67369,-156.18475s22.98776,-114.49882 64.67369,-156.18475s97.12052,-64.67369 156.18475,-64.67369s114.49882,22.98776 156.18475,64.67369s64.67369,97.12052 64.67369,156.18475s-22.98776,114.60881 -64.67369,156.29474s-97.12052,64.5637 -156.18475,64.5637zm0,-335.90721c-63.57379,0 -115.15876,51.69495 -115.15876,115.15876c0,63.57379 51.69495,115.15876 115.15876,115.15876c63.57379,0 115.15876,-51.69495 115.15876,-115.15876c0,-63.57379 -51.58496,-115.15876 -115.15876,-115.15876z"/>
   <path stroke="null" id="svg_3" d="m512.50002,953.11193c-46.0855,0 -92.06101,-6.70934 -136.71665,-20.12803c-43.77573,-13.08872 -86.45156,-32.55682 -126.92761,-57.85435c-80.40215,-50.37508 -150.46531,-122.08808 -208.42965,-213.0492c-25.73749,-40.36606 -39.9261,-93.60086 -39.9261,-150.13534c0,-56.42449 14.18861,-109.76928 39.9261,-150.13534c57.85435,-90.96112 128.0275,-162.67412 208.42965,-212.93921c40.47605,-25.29753 83.15188,-44.76563 126.92761,-57.85435c44.65564,-13.3087 90.63115,-20.12803 136.71665,-20.12803c46.0855,0 92.06101,6.70934 136.71665,20.12803c43.77573,13.08872 86.45156,32.55682 126.92761,57.85435c80.40215,50.37508 150.5753,121.97809 208.42965,213.0492c25.73749,40.25607 39.9261,93.60086 39.9261,150.13534c0,56.42449 -14.18861,109.76928 -39.9261,150.13534c-57.96434,90.85113 -128.0275,162.56413 -208.53964,212.93921c-40.47605,25.29753 -83.15188,44.76563 -126.92761,57.85435c-44.54565,13.3087 -90.52116,20.12803 -136.60666,20.12803zm0,-776.74417c-145.51579,0 -285.09217,88.21139 -382.98261,242.08636c-31.23695,48.94522 -31.23695,137.92653 0,186.87176c97.89044,153.87498 237.46682,242.19635 382.98261,242.19635c145.51579,0 285.09217,-88.21139 382.98261,-242.08636c31.23695,-48.94522 31.23695,-137.92653 0,-186.87176c-97.89044,-153.98497 -237.46682,-242.19635 -382.98261,-242.19635z"/>
  </g>
 </g>
</svg>