<svg width="1025" height="1024" xmlns="http://www.w3.org/2000/svg" xml:space="preserve" version="1.1">

 <g>
  <title>Layer 1</title>
  <g stroke="null" id="svg_1">
   <path stroke="null" id="svg_2" d="m461.85892,1023.37434c-22.75502,0 -45.62157,-5.8003 -66.36879,-17.28935c-42.38679,-23.64737 -67.59578,-66.36879 -67.59578,-114.44434l0,-254.76693c0,-24.20509 -15.17001,-59.11842 -29.67076,-77.30012l-181.59394,-190.96366c-30.45156,-30.67465 -53.42967,-82.65425 -53.42967,-121.02545l0,-110.42875c0,-36.92113 13.60839,-71.27674 38.25966,-96.82036c24.76281,-25.65516 58.00298,-39.70973 93.58558,-39.70973l634.90954,0c72.72681,0 131.84523,59.11842 131.84523,131.84523l0,105.63235c0,50.08334 -30.11693,107.30551 -58.5607,135.63774c-13.94302,13.94302 -36.58649,13.94302 -50.52952,0c-13.94302,-13.94302 -13.94302,-36.58649 0,-50.52952c17.73553,-17.73553 37.59039,-57.11063 37.59039,-85.21976l0,-105.63235c0,-33.35171 -27.10524,-60.45695 -60.45695,-60.45695l-634.798,0c-33.90943,0 -60.45695,28.66686 -60.45695,65.25335l0,110.42875c0,17.95861 14.05457,52.09114 32.90554,70.94211c0.22309,0.22309 0.44618,0.44618 0.66927,0.66927l182.70939,192.30219c0.55772,0.66927 1.22699,1.33853 1.78471,2.0078c23.20119,28.22068 46.62547,79.7541 46.62547,123.47942l0,254.65539c0,31.45546 21.63957,46.9601 31.00929,52.09114c20.1895,11.26596 44.39459,11.04287 63.24556,-0.44618l66.81497,-43.05606c0.22309,-0.22309 0.55772,-0.33463 0.78081,-0.55772c12.93913,-7.91964 26.21289,-33.79789 26.21289,-51.31033c0,-19.74332 15.95082,-35.69414 35.69414,-35.69414s35.69414,15.95082 35.69414,35.69414c0,19.85487 -5.91184,42.1637 -16.62008,62.79938c-11.15442,21.41648 -26.54752,38.92892 -43.39069,49.30253l-66.70343,43.05606c-0.22309,0.11154 -0.33463,0.22309 -0.55772,0.33463c-21.30494,12.93913 -45.39849,19.52023 -69.60358,19.52023z"/>
   <path stroke="null" id="svg_3" d="m706.25225,762.58402c-103.62455,0 -187.95196,-84.32741 -187.95196,-187.95196s84.32741,-187.95196 187.95196,-187.95196s187.95196,84.32741 187.95196,187.95196s-84.32741,187.95196 -187.95196,187.95196zm0,-304.62719c-64.24945,0 -116.56368,52.31423 -116.56368,116.56368s52.20268,116.67522 116.56368,116.67522s116.56368,-52.31423 116.56368,-116.67522s-52.31423,-116.56368 -116.56368,-116.56368z"/>
   <path stroke="null" id="svg_4" fill="none" d="m887.06538,755.44519l-47.62937,-47.62937" class="st0"/>
  </g>
 </g>
</svg>