<svg width="1025" height="1024" xmlns="http://www.w3.org/2000/svg" xml:space="preserve" version="1.1">

 <g>
  <title>Layer 1</title>
  <path stroke="null" id="svg_1" fill="#191919" d="m300.16228,371.50584l495.56112,0c10.21776,0 22.98995,-5.10888 30.65327,-12.77219c7.66332,-7.66332 12.77219,-17.88107 12.77219,-30.65327l0,-280.98827c0,-10.21776 -5.10888,-22.98995 -12.77219,-30.65327c-7.66332,-7.66332 -17.88107,-12.77219 -30.65327,-12.77219l-495.56112,0c-10.21776,0 -22.98995,5.10888 -30.65327,12.77219c-7.66332,7.66332 -12.77219,17.88107 -12.77219,30.65327l0,283.5427c0,10.21776 5.10888,22.98995 12.77219,30.65327c7.66332,5.10888 17.88107,10.21776 30.65327,10.21776zm495.56112,-35.76214l-495.56112,0c-2.55444,0 -2.55444,0 -5.10888,-2.55444s-2.55444,-2.55444 -2.55444,-5.10888l0,-137.93969c2.55444,0 5.10888,0 5.10888,0l495.56112,0c2.55444,0 5.10888,0 5.10888,0l0,137.93969c0,2.55444 0,2.55444 -2.55444,5.10888c2.55444,0 2.55444,2.55444 0,2.55444zm-503.22444,-217.1273c2.55444,0 5.10888,0 5.10888,0l495.56112,0c2.55444,0 5.10888,0 5.10888,0l0,30.65327c0,2.55444 0,2.55444 -2.55444,5.10888c0,0 -2.55444,2.55444 -5.10888,2.55444l-490.45225,0c-2.55444,0 -2.55444,0 -5.10888,-2.55444c0,0 -2.55444,-2.55444 -2.55444,-5.10888l0,-30.65327zm0,-71.52429c0,-2.55444 0,-2.55444 2.55444,-5.10888c0,0 2.55444,-2.55444 5.10888,-2.55444l495.56112,0c2.55444,0 2.55444,0 5.10888,2.55444c0,0 2.55444,2.55444 2.55444,5.10888l0,30.65327c0,2.55444 0,2.55444 -2.55444,5.10888c0,0 -2.55444,2.55444 -5.10888,2.55444l-495.56112,0c-2.55444,0 -2.55444,0 -5.10888,-2.55444c0,0 -2.55444,-2.55444 -2.55444,-5.10888l0,-30.65327zm462.35342,232.45393c0,5.10888 -2.55444,10.21776 -5.10888,12.77219c-2.55444,2.55444 -7.66332,5.10888 -12.77219,5.10888l-107.28643,0c-5.10888,0 -10.21776,-2.55444 -12.77219,-5.10888c-2.55444,-2.55444 -5.10888,-7.66332 -5.10888,-12.77219c0,-5.10888 2.55444,-10.21776 5.10888,-12.77219c2.55444,-2.55444 7.66332,-5.10888 12.77219,-5.10888l107.28643,0c5.10888,0 10.21776,2.55444 12.77219,5.10888c2.55444,2.55444 5.10888,7.66332 5.10888,12.77219zm181.36515,94.51423c-10.21776,-5.10888 -20.43551,-10.21776 -30.65327,-10.21776s-20.43551,0 -33.2077,2.55444c-10.21776,2.55444 -20.43551,7.66332 -28.09883,12.77219c-7.66332,7.66332 -15.32663,15.32663 -20.43551,22.98995l-102.17755,166.03852c-10.21776,-5.10888 -22.98995,-10.21776 -35.76214,-10.21776l-173.70184,5.10888c-125.1675,-56.19765 -232.45393,0 -293.76046,74.07872c-15.32663,2.55444 -33.2077,7.66332 -45.9799,17.88107l-107.28643,86.85092c-2.55444,2.55444 -2.55444,2.55444 -5.10888,5.10888c0,2.55444 -2.55444,5.10888 -2.55444,7.66332c0,2.55444 0,5.10888 0,7.66332c0,2.55444 2.55444,5.10888 5.10888,7.66332l245.22612,245.22612c2.55444,2.55444 7.66332,5.10888 12.77219,5.10888l0,0c2.55444,0 5.10888,0 7.66332,-2.55444c2.55444,0 5.10888,-2.55444 5.10888,-5.10888l86.85092,-107.28643c7.66332,-10.21776 12.77219,-20.43551 15.32663,-33.2077c2.55444,-12.77219 2.55444,-22.98995 2.55444,-35.76214l30.65327,-28.09883c5.10888,-2.55444 10.21776,-5.10888 15.32663,-5.10888l273.32495,0c22.98995,0 45.9799,-7.66332 63.86097,-20.43551c17.88107,-12.77219 33.2077,-30.65327 40.87102,-53.64321l99.62311,-260.55276c7.66332,-17.88107 7.66332,-35.76214 0,-53.64321c2.55444,-17.88107 -10.21776,-30.65327 -25.54439,-40.87102l0,0zm-538.98658,510.88776l-74.07872,89.40536l-217.1273,-217.1273l89.40536,-74.07872c10.21776,-7.66332 20.43551,-12.77219 30.65327,-12.77219c5.10888,0 10.21776,0 17.88107,2.55444c5.10888,2.55444 10.21776,5.10888 15.32663,10.21776l135.38526,135.38526c2.55444,2.55444 5.10888,5.10888 7.66332,10.21776c2.55444,2.55444 2.55444,5.10888 2.55444,7.66332c2.55444,7.66332 2.55444,15.32663 0,22.98995c0,12.77219 -2.55444,20.43551 -7.66332,25.54439zm536.43214,-426.59128l-99.62311,260.55276c-5.10888,15.32663 -15.32663,25.54439 -28.09883,35.76214c-12.77219,7.66332 -28.09883,12.77219 -43.42546,12.77219l-273.32495,0c-15.32663,0 -28.09883,5.10888 -38.31658,15.32663l-20.43551,20.43551c-2.55444,-2.55444 -5.10888,-5.10888 -7.66332,-7.66332l-135.38526,-135.38526c-7.66332,-7.66332 -15.32663,-12.77219 -22.98995,-15.32663c40.87102,-40.87102 122.61306,-99.62311 237.56281,-45.9799c2.55444,0 5.10888,2.55444 7.66332,2.55444l176.25628,-5.10888l2.55444,0c10.21776,0 20.43551,5.10888 28.09883,10.21776c7.66332,7.66332 10.21776,17.88107 10.21776,28.09883c0,10.21776 -5.10888,20.43551 -10.21776,28.09883c-7.66332,7.66332 -17.88107,10.21776 -28.09883,10.21776l-109.84087,0c-5.10888,0 -10.21776,2.55444 -12.77219,5.10888c-2.55444,2.55444 -5.10888,7.66332 -5.10888,12.77219c0,5.10888 2.55444,10.21776 5.10888,12.77219c2.55444,2.55444 7.66332,5.10888 12.77219,5.10888l109.84087,0c12.77219,0 28.09883,-2.55444 38.31658,-10.21776s20.43551,-17.88107 28.09883,-28.09883c7.66332,-12.77219 10.21776,-25.54439 10.21776,-38.31658c0,-12.77219 -5.10888,-28.09883 -12.77219,-38.31658l104.73199,-173.70184c5.10888,-7.66332 10.21776,-12.77219 15.32663,-15.32663c7.66332,-5.10888 15.32663,-5.10888 22.98995,-5.10888c7.66332,0 15.32663,2.55444 20.43551,5.10888c7.66332,2.55444 12.77219,7.66332 15.32663,15.32663c5.10888,5.10888 7.66332,12.77219 7.66332,20.43551c0,2.55444 -2.55444,10.21776 -5.10888,17.88107z" class="st0"/>
 </g>
</svg>