<svg width="1025" height="1024" xmlns="http://www.w3.org/2000/svg" xml:space="preserve" version="1.1">

 <g>
  <title>Layer 1</title>
  <g stroke="null" id="svg_3">
   <path stroke="null" id="svg_1" d="m736.86089,1021.91109l-448.72175,0c-210.76325,0 -278.75139,-67.98814 -278.75139,-278.75139l0,-448.72175c0,-210.76325 67.98814,-278.75139 278.75139,-278.75139l67.98814,0c88.38459,0 115.57984,27.19526 149.57392,74.78696l67.98814,88.38459c6.79881,20.39644 6.79881,20.39644 27.19526,20.39644l135.97629,0c210.76325,0 278.75139,67.98814 278.75139,278.75139l0,271.95258c0,203.96443 -67.98814,271.95258 -278.75139,271.95258zm-448.72175,-904.24231c-149.57392,0 -176.76917,20.39644 -176.76917,176.76917l0,455.52056c0,149.57392 20.39644,176.76917 176.76917,176.76917l455.52056,0c149.57392,0 176.76917,-20.39644 176.76917,-176.76917l0,-271.95258c0,-149.57392 -20.39644,-176.76917 -176.76917,-176.76917l-135.97629,0c-67.98814,0 -88.38459,-27.19526 -115.57984,-54.39052l-67.98814,-88.38459c-20.39644,-27.19526 -27.19526,-33.99407 -67.98814,-33.99407l-67.98814,0l0,-6.79881z"/>
   <path stroke="null" id="svg_2" d="m872.83718,314.83439c-27.19526,0 -54.39052,-20.39644 -54.39052,-54.39052l0,-61.18933c0,-61.18933 -20.39644,-88.38459 -88.38459,-88.38459l-407.92886,0c-27.19526,0 -54.39052,-20.39644 -54.39052,-54.39052s20.39644,-54.39052 54.39052,-54.39052l407.92886,0c115.57984,0 190.3668,67.98814 190.3668,190.3668l0,61.18933c6.79881,40.79289 -20.39644,61.18933 -47.5917,61.18933z"/>
  </g>
 </g>
</svg>