<svg width="1025" height="1024" xmlns="http://www.w3.org/2000/svg" xml:space="preserve" version="1.1">

 <g>
  <title>Layer 1</title>
  <g stroke="null" id="svg_10">
   <path stroke="null" id="svg_1" fill="#191919" d="m872.35602,798.12404c-17.60763,0 -35.21527,-4.40191 -50.62195,-15.40668c-15.40668,-11.00477 -26.41145,-24.2105 -33.01431,-39.61718c-6.60286,-17.60763 -8.80382,-35.21527 -4.40191,-52.8229c4.40191,-17.60763 11.00477,-33.01431 24.2105,-46.22004c13.20573,-13.20573 28.61241,-22.00954 46.22004,-24.2105c17.60763,-4.40191 35.21527,-2.20095 52.8229,4.40191c17.60763,6.60286 30.81336,17.60763 39.61718,33.01431c11.00477,15.40668 15.40668,33.01431 15.40668,50.62195c0,24.2105 -8.80382,46.22004 -26.41145,63.82767c-17.60763,17.60763 -39.61718,26.41145 -63.82767,26.41145zm0,-147.46393c-11.00477,0 -22.00954,4.40191 -33.01431,8.80382c-8.80382,6.60286 -17.60763,15.40668 -22.00954,26.41145c-4.40191,11.00477 -6.60286,22.00954 -2.20095,33.01431c2.20095,11.00477 6.60286,22.00954 15.40668,28.61241c8.80382,8.80382 17.60763,13.20573 28.61241,15.40668c11.00477,2.20095 22.00954,0 33.01431,-2.20095c11.00477,-4.40191 19.80859,-11.00477 26.41145,-22.00954c6.60286,-8.80382 8.80382,-19.80859 8.80382,-33.01431c0,-15.40668 -6.60286,-30.81336 -17.60763,-39.61718c-6.60286,-11.00477 -22.00954,-15.40668 -37.41622,-15.40668z" class="st0"/>
   <path stroke="null" id="svg_2" fill="#191919" d="m394.74895,798.12404c-17.60763,0 -35.21527,-4.40191 -50.62195,-15.40668c-15.40668,-11.00477 -26.41145,-24.2105 -33.01431,-39.61718c-6.60286,-17.60763 -8.80382,-35.21527 -4.40191,-52.8229c4.40191,-17.60763 11.00477,-33.01431 24.2105,-46.22004c13.20573,-13.20573 28.61241,-22.00954 46.22004,-24.2105c17.60763,-4.40191 35.21527,-2.20095 52.8229,4.40191s30.81336,17.60763 39.61718,33.01431c11.00477,15.40668 15.40668,33.01431 15.40668,50.62195c0,24.2105 -8.80382,46.22004 -26.41145,63.82767s-39.61718,26.41145 -63.82767,26.41145zm0,-147.46393c-11.00477,0 -22.00954,4.40191 -33.01431,8.80382c-8.80382,6.60286 -17.60763,15.40668 -22.00954,26.41145c-4.40191,11.00477 -6.60286,22.00954 -4.40191,33.01431c2.20095,11.00477 6.60286,22.00954 15.40668,28.61241c8.80382,8.80382 17.60763,13.20573 28.61241,15.40668s22.00954,0 33.01431,-2.20095c11.00477,-4.40191 19.80859,-11.00477 26.41145,-22.00954c6.60286,-8.80382 8.80382,-19.80859 8.80382,-33.01431c0,-15.40668 -6.60286,-30.81336 -17.60763,-39.61718c-4.40191,-11.00477 -19.80859,-15.40668 -35.21527,-15.40668z" class="st0"/>
   <path stroke="null" id="svg_3" fill="#191919" d="m991.20755,723.2916l-46.22004,0c-4.40191,0 -8.80382,-2.20095 -11.00477,-4.40191c-2.20095,-2.20095 -4.40191,-6.60286 -4.40191,-11.00477c0,-4.40191 2.20095,-8.80382 4.40191,-11.00477c2.20095,-2.20095 6.60286,-4.40191 11.00477,-4.40191l39.61718,0l0,-88.03817c0,-11.00477 -2.20095,-24.2105 -8.80382,-33.01431l-90.23912,-160.66966c0,-2.20095 -2.20095,-2.20095 -2.20095,-2.20095c-2.20095,0 -2.20095,-2.20095 -4.40191,-2.20095l-121.05248,0l0,286.12405l39.61718,0c4.40191,0 8.80382,2.20095 11.00477,4.40191c2.20095,2.20095 4.40191,6.60286 4.40191,11.00477c0,4.40191 -2.20095,8.80382 -4.40191,11.00477c-2.20095,2.20095 -6.60286,4.40191 -11.00477,4.40191l-55.02386,0c-4.40191,0 -8.80382,-2.20095 -11.00477,-4.40191c-2.20095,-2.20095 -4.40191,-6.60286 -4.40191,-11.00477l0,-319.13837c0,-4.40191 2.20095,-8.80382 4.40191,-11.00477c2.20095,-2.20095 6.60286,-4.40191 11.00477,-4.40191l138.66012,0c6.60286,0 15.40668,2.20095 22.00954,6.60286c6.60286,4.40191 11.00477,8.80382 15.40668,15.40668l90.23912,160.66966c8.80382,15.40668 13.20573,33.01431 13.20573,50.62195l0,92.44008c0,6.60286 -2.20095,15.40668 -8.80382,19.80859c-6.60286,2.20095 -13.20573,4.40191 -22.00954,4.40191z" class="st0"/>
   <path stroke="null" id="svg_4" fill="#191919" d="m322.11746,723.2916l-158.46871,0c-4.40191,0 -8.80382,-2.20095 -11.00477,-4.40191c-2.20095,-2.20095 -4.40191,-6.60286 -4.40191,-11.00477l0,-127.65535c0,-4.40191 2.20095,-8.80382 4.40191,-11.00477c2.20095,-2.20095 6.60286,-4.40191 11.00477,-4.40191c4.40191,0 8.80382,2.20095 11.00477,4.40191c2.20095,2.20095 4.40191,6.60286 4.40191,11.00477l0,110.04771l140.86107,0c4.40191,0 8.80382,2.20095 11.00477,4.40191c2.20095,2.20095 4.40191,6.60286 4.40191,11.00477c0,4.40191 -2.20095,8.80382 -4.40191,11.00477c0,4.40191 -4.40191,6.60286 -8.80382,6.60286z" class="st0"/>
   <path stroke="null" id="svg_5" fill="#191919" d="m163.64876,520.80381c-4.40191,0 -8.80382,-2.20095 -11.00477,-4.40191c-2.20095,-2.20095 -4.40191,-6.60286 -4.40191,-11.00477l0,-110.04771c0,-4.40191 2.20095,-8.80382 4.40191,-11.00477c2.20095,-2.20095 6.60286,-4.40191 11.00477,-4.40191c4.40191,0 8.80382,2.20095 11.00477,4.40191c2.20095,2.20095 4.40191,6.60286 4.40191,11.00477l0,110.04771c0,4.40191 -2.20095,8.80382 -4.40191,11.00477c-2.20095,4.40191 -6.60286,4.40191 -11.00477,4.40191z" class="st0"/>
   <path stroke="null" id="svg_6" fill="#191919" d="m742.49972,723.2916l-272.91833,0c-4.40191,0 -8.80382,-2.20095 -11.00477,-4.40191c-2.20095,-2.20095 -4.40191,-6.60286 -4.40191,-11.00477c0,-4.40191 2.20095,-8.80382 4.40191,-11.00477c2.20095,-2.20095 6.60286,-4.40191 11.00477,-4.40191l257.51165,0l0,-433.58799l-548.03761,0l0,68.22958c0,4.40191 -2.20095,8.80382 -4.40191,11.00477c-2.20095,2.20095 -6.60286,4.40191 -11.00477,4.40191c-4.40191,0 -8.80382,-2.20095 -11.00477,-4.40191c-2.20095,-2.20095 -4.40191,-6.60286 -4.40191,-11.00477l0,-70.43054c0,-8.80382 2.20095,-15.40668 8.80382,-22.00954c6.60286,-6.60286 13.20573,-8.80382 22.00954,-8.80382l552.43952,0c8.80382,0 15.40668,2.20095 22.00954,8.80382c6.60286,6.60286 8.80382,13.20573 8.80382,22.00954l0,451.19562c0,4.40191 -2.20095,8.80382 -4.40191,11.00477c-6.60286,2.20095 -11.00477,4.40191 -15.40668,4.40191z" class="st0"/>
   <path stroke="null" id="svg_7" fill="#191919" d="m229.67738,597.83721l-211.29161,0c-4.40191,0 -8.80382,-2.20095 -11.00477,-4.40191c-2.20095,-2.20095 -4.40191,-6.60286 -4.40191,-11.00477s2.20095,-8.80382 4.40191,-11.00477c2.20095,-2.20095 6.60286,-4.40191 11.00477,-4.40191l211.29161,0c4.40191,0 8.80382,2.20095 11.00477,4.40191c2.20095,2.20095 4.40191,6.60286 4.40191,11.00477s-2.20095,8.80382 -4.40191,11.00477c-4.40191,2.20095 -6.60286,4.40191 -11.00477,4.40191z" class="st0"/>
   <path stroke="null" id="svg_8" fill="#191919" d="m394.74895,520.80381l-290.52596,0c-4.40191,0 -8.80382,-2.20095 -11.00477,-4.40191c-2.20095,-2.20095 -4.40191,-6.60286 -4.40191,-11.00477c0,-4.40191 2.20095,-8.80382 4.40191,-11.00477c2.20095,-2.20095 6.60286,-4.40191 11.00477,-4.40191l292.72691,0c4.40191,0 8.80382,2.20095 11.00477,4.40191c2.20095,2.20095 4.40191,6.60286 4.40191,11.00477c0,4.40191 -2.20095,8.80382 -4.40191,11.00477c-4.40191,4.40191 -8.80382,4.40191 -13.20573,4.40191z" class="st0"/>
   <path stroke="null" id="svg_9" fill="#191919" d="m278.09838,342.52651l-202.48779,0c-4.40191,0 -8.80382,-2.20095 -11.00477,-4.40191c-2.20095,-2.20095 -4.40191,-6.60286 -4.40191,-11.00477c0,-4.40191 2.20095,-8.80382 4.40191,-11.00477c2.20095,-2.20095 6.60286,-4.40191 11.00477,-4.40191l202.48779,0c4.40191,0 8.80382,2.20095 11.00477,4.40191c2.20095,2.20095 4.40191,6.60286 4.40191,11.00477c0,4.40191 -2.20095,8.80382 -4.40191,11.00477c-2.20095,4.40191 -6.60286,4.40191 -11.00477,4.40191z" class="st0"/>
  </g>
 </g>
</svg>