<?xml version="1.0" encoding="utf-8"?>
<!-- Generator: Adobe Illustrator 23.0.0, SVG Export Plug-In . SVG Version: 6.00 Build 0)  -->
<svg version="1.1" id="Layer_1" xmlns="http://www.w3.org/2000/svg" xmlns:xlink="http://www.w3.org/1999/xlink" x="0px" y="0px"
	 viewBox="0 0 1025 1024" style="enable-background:new 0 0 1025 1024;" xml:space="preserve">
<g>
	<title>Layer 1</title>
	<g id="svg_4">
		<path id="svg_1" d="M450.8,231.4c4.3,0,8.5-4.3,12.8-8.5c4.3-4.3,4.3-8.5,4.3-17C455,171.8,433.7,133.4,404,99.4
			c-21.3-25.5-55.3-34.1-89.4-25.5c-4.3,0-8.5,4.3-8.5,8.5c0,4.3,0,4.3,0,8.5c0,4.3,0,4.3,0,8.5l0,0c0,25.5,12.8,51.1,29.8,72.4
			c34.1,29.8,72.4,51.1,110.7,59.6C446.5,231.4,446.5,231.4,450.8,231.4L450.8,231.4z M357.1,146.2c-8.5-4.3-12.8-12.8-17-21.3l0,0
			v-4.3c0,0,0,0,0-4.3c0,0,0,0,0-4.3l0,0c0-4.3,0-4.3,0-8.5c17,0,34.1,8.5,42.6,21.3c17,17,29.8,42.6,38.3,63.9
			C395.4,176,374.2,163.2,357.1,146.2L357.1,146.2z"/>
		<path id="svg_2" d="M970.1,244.1H710.4c12.8-8.5,21.3-17,29.8-25.5C799.8,159,804.1,65.3,765.8,27s-132-38.3-191.6,25.5
			c-25.5,25.5-46.8,59.6-59.6,93.7c-12.8-34.1-34.1-63.9-59.6-93.7C391.2-11.3,297.5-11.3,259.2,27s-34.1,132,25.5,191.6
			c8.5,8.5,21.3,17,29.8,25.5H54.9c-8.5,0-17,8.5-17,17v170.3c0,8.5,8.5,17,17,17H89V938c0,46.8,38.3,85.1,85.1,85.1h676.8
			c46.8,0,85.1-38.3,85.1-85.1V448.4h34.1c8.5,0,17-8.5,17-17V261.1C987.1,252.6,978.6,244.1,970.1,244.1L970.1,244.1z M595.5,73.8
			C642.3,27,714.7,27,740.2,48.3c21.3,25.5,21.3,97.9-25.5,144.7c-21.3,21.3-46.8,38.3-76.6,51.1H535.9l0,0c0-4.3,0-8.5,0-12.8V227
			c0-4.3,0-8.5,0-8.5v-4.3c0-4.3,0-8.5-4.3-12.8l0,0c0-4.3,0-8.5-4.3-8.5l0,0C544.4,146.2,565.7,107.9,595.5,73.8L595.5,73.8z
			 M578.5,414.4H442.3V278.2h136.2V414.4z M310.3,193c-51.1-46.8-51.1-119.2-25.5-140.5C310.3,27,378.4,27,429.5,73.8
			c29.8,34.1,55.3,76.6,68.1,119.2c0,4.3,4.3,12.8,4.3,17v4.3c0,4.3,0,8.5,4.3,12.8v4.3c0,4.3,0,8.5,0,12.8H382.7
			C357.1,231.4,331.6,214.3,310.3,193L310.3,193z M71.9,278.2h340.5v136.2H71.9V278.2z M123,938V448.4h323.5V989H174.1
			C144.3,989.1,123,967.8,123,938L123,938z M476.3,989.1V448.4h68.1V989L476.3,989.1L476.3,989.1z M902,938
			c0,29.8-21.3,51.1-51.1,51.1H578.5V448.4H902V938L902,938z M953.1,414.4H612.5V278.2H953L953.1,414.4L953.1,414.4z"/>
		<path id="svg_3" d="M574.2,231.4h4.3c42.6-12.8,80.9-34.1,110.7-59.6c25.5-21.3,34.1-55.3,25.5-89.4c0-4.3-4.3-8.5-8.5-8.5
			c-34.1-8.5-68.1,4.3-89.4,25.5c-25.5,34.1-46.8,72.4-59.6,110.7c0,4.3,0,12.8,4.3,17C565.7,231.4,570,231.4,574.2,231.4
			L574.2,231.4z M642.3,124.9c12.8-12.8,25.5-17,42.6-21.3c0,17-8.5,34.1-21.3,42.6c-17,17-42.6,29.8-63.9,38.3
			C612.5,163.2,625.3,142,642.3,124.9z"/>
	</g>
</g>
</svg>
