<svg width="1025" height="1024" xmlns="http://www.w3.org/2000/svg" xml:space="preserve" version="1.1">

 <g>
  <title>Layer 1</title>
  <g stroke="null" id="svg_4">
   <path stroke="null" id="svg_1" d="m654.11115,1021.80007l-283.22225,0c-254.90003,0 -368.18893,-108.56853 -368.18893,-368.18893l0,-283.22225c0,-254.90003 108.56853,-368.18893 368.18893,-368.18893l283.22225,0c254.90003,0 368.18893,108.56853 368.18893,368.18893l0,283.22225c0,254.90003 -113.2889,368.18893 -368.18893,368.18893zm-283.22225,-944.07417c-217.13706,0 -292.66299,75.52593 -292.66299,292.66299l0,283.22225c0,217.13706 75.52593,297.38336 297.38336,297.38336l283.22225,0c217.13706,0 297.38336,-75.52593 297.38336,-297.38336l0,-283.22225c0,-217.13706 -75.52593,-297.38336 -297.38336,-297.38336l-287.94262,0l0,4.72037z"/>
   <path stroke="null" id="svg_2" d="m512.50002,1021.80007c-18.88148,0 -37.76297,-14.16111 -37.76297,-37.76297l0,-944.07417c0,-18.88148 14.16111,-37.76297 37.76297,-37.76297s37.76297,14.16111 37.76297,37.76297l0,944.07417c0,18.88148 -18.88148,37.76297 -37.76297,37.76297z"/>
   <path stroke="null" id="svg_3" d="m984.53711,549.76299l-944.07417,0c-18.88148,0 -37.76297,-14.16111 -37.76297,-37.76297s14.16111,-37.76297 37.76297,-37.76297l944.07417,0c18.88148,0 37.76297,14.16111 37.76297,37.76297s-18.88148,37.76297 -37.76297,37.76297z"/>
  </g>
 </g>
</svg>