<svg width="1152" height="1024" xmlns="http://www.w3.org/2000/svg" xml:space="preserve" version="1.1">

 <g>
  <title>Layer 1</title>
  <g stroke="null" id="svg_1">
   <path stroke="null" id="svg_2" d="m575.93785,1023.62659c-16.27762,0 -32.55523,-2.36088 -45.85069,-6.95837c-83.6247,-28.57902 -211.98177,-99.15677 -321.70036,-211.60901c-60.63723,-62.1283 -108.60028,-130.09667 -142.39807,-202.04125c-39.76211,-84.37024 -59.89169,-174.08351 -59.89169,-266.53043c0,-89.83753 34.79185,-174.20777 97.91421,-237.70289c63.12236,-63.49513 147.24408,-98.41123 236.58458,-98.41123c53.5546,0 104.74832,12.42566 151.96583,36.77996c30.69138,15.78059 58.89763,36.53144 83.37618,61.13425c24.47855,-24.47855 52.80906,-45.22941 83.6247,-61.13425c46.72048,-23.98153 99.15677,-36.77996 151.84158,-36.77996c89.3405,0 173.46223,34.91611 236.58458,98.41123c63.12236,63.49513 97.91421,147.86536 97.91421,237.70289c0,92.44692 -20.12957,182.16019 -59.89169,266.53043c-33.7978,71.82032 -81.76085,139.78869 -142.39807,202.04125c-109.71859,112.45223 -238.19992,183.02999 -321.82462,211.60901c-13.29546,4.72175 -29.57307,6.95837 -45.85069,6.95837zm-235.34202,-943.72895c-140.65848,0 -254.97456,115.06162 -254.97456,256.5899c0,362.70504 348.29128,563.25521 470.43552,604.88117c0.12426,0 0.24851,0.12426 0.37277,0.12426c9.56776,3.35493 29.69733,3.35493 39.26509,0c0.12426,0 0.24851,-0.12426 0.37277,-0.12426c122.01999,-41.62596 470.43552,-242.17613 470.43552,-604.88117c0,-141.52828 -114.44034,-256.5899 -254.97456,-256.5899c-79.64849,0 -155.69353,38.39529 -203.53233,102.76022c-7.4554,10.06479 -19.38403,16.0291 -31.93395,16.0291s-24.47855,-5.96432 -31.93395,-16.0291c-48.58433,-65.23472 -122.76553,-102.76022 -203.53233,-102.76022z"/>
  </g>
 </g>
</svg>