<svg width="1025" height="1024" xmlns="http://www.w3.org/2000/svg" xml:space="preserve" version="1.1">

 <g>
  <title>Layer 1</title>
  <path stroke="null" id="svg_1" d="m512.5,969.07374c-13.64399,0 -34.10998,0 -47.75397,-6.822c-177.3719,-61.39797 -463.89575,-279.70185 -463.89575,-600.33568c0,-170.54991 136.43993,-306.98983 306.98983,-306.98983c75.04196,0 150.08392,27.28799 204.65989,75.04196c54.57597,-47.75397 129.61793,-75.04196 204.65989,-75.04196c170.54991,0 306.98983,136.43993 306.98983,306.98983c0,320.63383 -279.70185,538.93771 -463.89575,600.33568c-13.64399,6.822 -34.10998,6.822 -47.75397,6.822zm13.64399,-102.32994l13.64399,47.75397l-13.64399,-47.75397c102.32994,-34.10998 388.85379,-204.65989 388.85379,-504.82773c0,-109.15194 -88.68595,-204.65989 -204.65989,-204.65989c-61.39797,0 -115.97394,34.10998 -156.90592,81.86396c-20.46599,27.28799 -61.39797,27.28799 -81.86396,0c-40.93198,-47.75397 -95.50795,-81.86396 -163.72791,-81.86396c-109.15194,0 -204.65989,88.68595 -204.65989,204.65989c0,300.16784 293.34584,470.71775 388.85379,504.82773c13.64399,0 27.28799,0 34.10998,0z"/>
 </g>
</svg>