<svg width="1025" height="1024" xmlns="http://www.w3.org/2000/svg" xml:space="preserve" version="1.1">

 <g>
  <title>Layer 1</title>
  <g stroke="null" id="svg_5">
   <path stroke="null" id="svg_1" fill="#191919" d="m788.7785,1021.0247l-549.76486,0c-131.03204,0 -236.42737,-105.39534 -236.42737,-236.42737l0,-350.36828c0,-65.51602 39.87932,-145.27465 91.15272,-185.15397l256.36703,-199.39658c76.91011,-59.81897 199.39658,-62.6675 279.15521,-5.69705l293.39782,205.09362c56.97045,39.87932 99.69829,125.33499 99.69829,193.69953l0,344.67123c2.84852,128.18352 -102.54681,233.57885 -233.57885,233.57885zm-393.09611,-917.22427l-256.36703,199.39658c-34.18227,25.6367 -62.6675,88.3042 -62.6675,128.18352l0,353.2168c0,91.15272 74.06159,165.21431 165.21431,165.21431l549.76486,0c91.15272,0 165.21431,-74.06159 165.21431,-165.21431l0,-344.67123c0,-45.57636 -34.18227,-108.24386 -71.21306,-133.88056l-296.24635,-205.09362c-54.12193,-39.87932 -142.42613,-37.03079 -193.69953,2.84852z" class="st0"/>
   <path stroke="null" id="svg_2" fill="#191919" d="m586.5334,833.02221l-142.42613,0c-96.84977,0 -179.45692,-79.75863 -179.45692,-179.45692l0,-142.42613c0,-99.69829 79.75863,-179.45692 179.45692,-179.45692l142.42613,0c99.69829,0 179.45692,79.75863 179.45692,179.45692l0,142.42613c0,99.69829 -79.75863,179.45692 -179.45692,179.45692zm-142.42613,-427.27839c-59.81897,0 -108.24386,48.42488 -108.24386,108.24386l0,142.42613c0,59.81897 48.42488,108.24386 108.24386,108.24386l142.42613,0c59.81897,0 108.24386,-48.42488 108.24386,-108.24386l0,-142.42613c0,-59.81897 -48.42488,-108.24386 -108.24386,-108.24386l-142.42613,0z" class="st0"/>
   <path stroke="null" id="svg_3" fill="#191919" d="m515.32034,833.02221c-19.93966,0 -37.03079,-17.09114 -37.03079,-37.03079l0,-427.27839c0,-19.93966 17.09114,-37.03079 37.03079,-37.03079s37.03079,17.09114 37.03079,37.03079l0,427.27839c0,19.93966 -17.09114,37.03079 -37.03079,37.03079z" class="st0"/>
   <path stroke="null" id="svg_4" fill="#191919" d="m728.95953,619.38302l-427.27839,0c-19.93966,0 -37.03079,-17.09114 -37.03079,-37.03079s17.09114,-37.03079 37.03079,-37.03079l427.27839,0c19.93966,0 37.03079,17.09114 37.03079,37.03079s-17.09114,37.03079 -37.03079,37.03079z" class="st0"/>
  </g>
 </g>
</svg>