<svg width="1025" height="1024" xmlns="http://www.w3.org/2000/svg" xml:space="preserve" version="1.1">

 <g>
  <title>Layer 1</title>
  <g stroke="null" id="svg_4">
   <path stroke="null" id="svg_1" d="m674.3393,1021.93195l-319.00956,0c-236.84043,0 -338.34347,-101.50304 -338.34347,-338.34347l0,-4.83348c0,-212.67304 87.00261,-319.00956 275.50826,-338.34347c19.33391,0 38.66783,14.50043 38.66783,33.83435s-9.66696,33.83435 -33.83435,38.66783c-149.83782,14.50043 -207.83956,87.00261 -207.83956,265.8413l0,4.83348c0,198.1726 67.66869,265.8413 265.8413,265.8413l314.17608,0c198.1726,0 265.8413,-67.66869 265.8413,-265.8413l0,-4.83348c0,-178.83869 -58.00174,-251.34086 -212.67304,-265.8413c-19.33391,0 -33.83435,-19.33391 -33.83435,-38.66783c0,-19.33391 19.33391,-33.83435 38.66783,-33.83435c193.33913,14.50043 280.34173,120.83695 280.34173,338.34347l0,4.83348c4.83348,236.84043 -96.66956,338.34347 -333.50999,338.34347z"/>
   <path stroke="null" id="svg_2" d="m514.83452,698.08891c-19.33391,0 -38.66783,-14.50043 -38.66783,-38.66783l0,-618.68521c0,-19.33391 14.50043,-38.66783 38.66783,-38.66783s38.66783,14.50043 38.66783,38.66783l0,623.51868c0,19.33391 -19.33391,33.83435 -38.66783,33.83435z"/>
   <path stroke="null" id="svg_3" d="m514.83452,751.25717c-9.66696,0 -19.33391,-4.83348 -24.16739,-9.66696l-159.50478,-164.33826c-14.50043,-14.50043 -14.50043,-38.66783 0,-53.16826c14.50043,-14.50043 38.66783,-14.50043 53.16826,0l135.33739,135.33739l135.33739,-135.33739c14.50043,-14.50043 38.66783,-14.50043 53.16826,0s14.50043,38.66783 0,53.16826l-159.50478,164.33826c-14.50043,9.66696 -24.16739,9.66696 -33.83435,9.66696z"/>
  </g>
 </g>
</svg>