<svg width="1025" height="1024" xmlns="http://www.w3.org/2000/svg" xml:space="preserve" version="1.1">

 <g>
  <title>Layer 1</title>
  <g stroke="null" id="svg_4">
   <path stroke="null" id="svg_1" d="m729.93635,1023.81167l-441.56297,0c-160.56835,0 -287.68497,-127.11661 -287.68497,-287.68497l0,-448.25332c0,-160.56835 127.11661,-287.68497 287.68497,-287.68497l448.25332,0c160.56835,0 287.68497,127.11661 287.68497,287.68497l0,448.25332c0,153.87801 -133.80696,287.68497 -294.37531,287.68497zm-441.56297,-896.50664c-86.97452,0 -153.87801,66.90348 -153.87801,153.87801l0,448.25332c0,86.97452 66.90348,153.87801 153.87801,153.87801l448.25332,0c86.97452,0 153.87801,-66.90348 153.87801,-153.87801l0,-441.56297c0,-86.97452 -66.90348,-153.87801 -153.87801,-153.87801l-448.25332,0l0,-6.69035z"/>
   <path stroke="null" id="svg_2" d="m509.15487,749.5074c-13.3807,0 -26.76139,0 -40.14209,0c-53.52278,-6.69035 -100.35522,-33.45174 -133.80696,-66.90348c-33.45174,-33.45174 -60.21313,-80.28418 -66.90348,-133.80696c-6.69035,-53.52278 0,-107.04557 26.76139,-153.87801c26.76139,-46.83244 60.21313,-80.28418 107.04557,-107.04557c40.14209,-20.07104 93.66487,-33.45174 147.18766,-26.76139c53.52278,6.69035 100.35522,33.45174 140.49731,66.90348c40.14209,40.14209 60.21313,86.97452 66.90348,140.49731c0,0 0,0 0,0c6.69035,53.52278 0,100.35522 -26.76139,147.18766c-26.76139,46.83244 -60.21313,80.28418 -107.04557,107.04557c-33.45174,20.07104 -73.59383,26.76139 -113.73592,26.76139zm0,-354.58845c-20.07104,0 -33.45174,6.69035 -53.52278,13.3807c-20.07104,13.3807 -33.45174,26.76139 -46.83244,46.83244c-13.3807,20.07104 -13.3807,46.83244 -13.3807,66.90348c6.69035,20.07104 13.3807,46.83244 33.45174,60.21313c13.3807,13.3807 40.14209,26.76139 60.21313,33.45174c20.07104,6.69035 46.83244,0 66.90348,-13.3807c20.07104,-13.3807 40.14209,-26.76139 46.83244,-46.83244c13.3807,-20.07104 13.3807,-46.83244 13.3807,-66.90348c0,-20.07104 -6.69035,-46.83244 -26.76139,-60.21313c-13.3807,-20.07104 -40.14209,-26.76139 -60.21313,-33.45174c-6.69035,0 -13.3807,0 -20.07104,0z"/>
   <path stroke="null" id="svg_3" d="m756.69775,328.01547c-40.14209,0 -66.90348,-26.76139 -66.90348,-66.90348s26.76139,-66.90348 66.90348,-66.90348l0,0c40.14209,0 66.90348,26.76139 66.90348,66.90348s-33.45174,66.90348 -66.90348,66.90348z"/>
  </g>
 </g>
</svg>