<svg width="1025" height="1024" xmlns="http://www.w3.org/2000/svg" xml:space="preserve" version="1.1">

 <g>
  <title>Layer 1</title>
  <path stroke="null" id="svg_1" fill="#191919" d="m1010.98991,90.20086c-4.2606,-8.5212 -12.78179,-17.04239 -21.30299,-21.30299c-8.5212,-4.2606 -17.04239,-8.5212 -29.82418,-8.5212l0,0c-12.78179,0 -21.30299,4.2606 -38.34538,8.5212c-21.30299,8.5212 -42.60598,21.30299 -76.69076,38.34538c-8.5212,4.2606 -12.78179,8.5212 -21.30299,12.78179c-76.69076,46.86657 -170.4239,102.25434 -272.67825,115.03614c-8.5212,-17.04239 -25.56359,-29.82418 -42.60598,-29.82418c-21.30299,0 -38.34538,12.78179 -42.60598,29.82418c-34.08478,-4.2606 -63.90896,-12.78179 -102.25434,-25.56359c-25.56359,-12.78179 -59.64837,-29.82418 -97.99375,-51.12717c-21.30299,-12.78179 -42.60598,-25.56359 -63.90896,-38.34538c-8.5212,-4.2606 -21.30299,-8.5212 -29.82418,-17.04239c-29.82418,-17.04239 -51.12717,-29.82418 -72.43016,-38.34538c-12.78179,-4.2606 -25.56359,-4.2606 -34.08478,-4.2606l0,0c-12.78179,0 -21.30299,0 -29.82418,8.5212c-12.78179,4.2606 -21.30299,17.04239 -25.56359,38.34538c-4.2606,12.78179 -8.5212,34.08478 -8.5212,63.90896c0,38.34538 4.2606,80.95135 17.04239,119.29673c8.5212,38.34538 25.56359,72.43016 42.60598,106.51494c4.2606,4.2606 8.5212,8.5212 12.78179,8.5212c4.2606,0 4.2606,0 8.5212,0c4.2606,0 4.2606,-4.2606 8.5212,-8.5212c0,-4.2606 0,-8.5212 0,-12.78179c-17.04239,-29.82418 -34.08478,-63.90896 -42.60598,-102.25434c-8.5212,-34.08478 -17.04239,-72.43016 -17.04239,-110.77554c0,-29.82418 4.2606,-55.38777 8.5212,-68.16956c4.2606,-4.2606 8.5212,-8.5212 12.78179,-8.5212c4.2606,0 8.5212,-4.2606 12.78179,-4.2606l0,0c4.2606,0 12.78179,0 25.56359,4.2606c17.04239,4.2606 38.34538,17.04239 68.16956,34.08478c8.5212,4.2606 21.30299,12.78179 29.82418,17.04239c38.34538,25.56359 85.21195,51.12717 132.07853,72.43016c51.12717,25.56359 102.25434,38.34538 149.12092,42.60598c4.2606,21.30299 25.56359,34.08478 46.86657,34.08478c21.30299,0 38.34538,-12.78179 46.86657,-34.08478c34.08478,0 76.69076,-8.5212 119.29673,-25.56359c46.86657,-17.04239 89.47255,-42.60598 119.29673,-59.64837c12.78179,-8.5212 25.56359,-17.04239 38.34538,-21.30299c21.30299,-12.78179 38.34538,-25.56359 59.64837,-34.08478c12.78179,-8.5212 25.56359,-12.78179 38.34538,-17.04239c8.5212,-4.2606 21.30299,-4.2606 25.56359,-4.2606l0,0c4.2606,0 8.5212,0 12.78179,4.2606c4.2606,4.2606 8.5212,8.5212 12.78179,21.30299c0,4.2606 4.2606,21.30299 4.2606,46.86657c0,29.82418 -4.2606,59.64837 -8.5212,89.47255c-4.2606,29.82418 -17.04239,55.38777 -29.82418,85.21195c-12.78179,25.56359 -25.56359,51.12717 -42.60598,76.69076c-17.04239,25.56359 -38.34538,46.86657 -59.64837,68.16956c-21.30299,21.30299 -46.86657,38.34538 -72.43016,55.38777c-25.56359,17.04239 -51.12717,29.82418 -80.95135,42.60598c-29.82418,12.78179 -59.64837,21.30299 -89.47255,25.56359c-29.82418,4.2606 -63.90896,8.5212 -97.99375,8.5212l0,0c-38.34538,0 -76.69076,-4.2606 -115.03614,-12.78179c-38.34538,-8.5212 -72.43016,-21.30299 -106.51494,-38.34538c-34.08478,-17.04239 -63.90896,-34.08478 -93.73315,-59.64837c-25.56359,-25.56359 -51.12717,-51.12717 -72.43016,-76.69076c-4.2606,-4.2606 -8.5212,-8.5212 -12.78179,-8.5212c-4.2606,0 -8.5212,0 -8.5212,4.2606c-8.5212,4.2606 -8.5212,12.78179 -4.2606,21.30299c21.30299,29.82418 51.12717,55.38777 80.95135,80.95135c29.82418,25.56359 63.90896,46.86657 97.99375,63.90896c25.56359,12.78179 55.38777,25.56359 80.95135,29.82418l0,12.78179c-25.56359,8.5212 -42.60598,29.82418 -42.60598,55.38777c0,29.82418 25.56359,59.64837 59.64837,59.64837c29.82418,0 59.64837,-25.56359 59.64837,-59.64837c0,-25.56359 -17.04239,-46.86657 -42.60598,-55.38777l0,-4.2606c34.08478,8.5212 68.16956,12.78179 106.51494,12.78179l0,4.2606l-72.43016,144.86032c-4.2606,4.2606 -4.2606,8.5212 0,12.78179l72.43016,144.86032c4.2606,4.2606 8.5212,8.5212 12.78179,8.5212s12.78179,-4.2606 12.78179,-8.5212l72.43016,-144.86032c4.2606,-4.2606 4.2606,-8.5212 0,-12.78179l-72.43016,-144.86032l0,-4.2606c29.82418,0 59.64837,-4.2606 85.21195,-8.5212c4.2606,0 12.78179,-4.2606 17.04239,-4.2606l0,4.2606c-25.56359,8.5212 -42.60598,29.82418 -42.60598,55.38777c0,29.82418 25.56359,59.64837 59.64837,59.64837s59.64837,-25.56359 59.64837,-59.64837c0,-25.56359 -17.04239,-46.86657 -42.60598,-55.38777l0,-12.78179c17.04239,-4.2606 29.82418,-8.5212 46.86657,-17.04239c29.82418,-12.78179 59.64837,-25.56359 85.21195,-42.60598c25.56359,-17.04239 51.12717,-38.34538 76.69076,-59.64837c21.30299,-21.30299 42.60598,-46.86657 63.90896,-72.43016c17.04239,-25.56359 34.08478,-51.12717 46.86657,-80.95135c12.78179,-29.82418 21.30299,-59.64837 29.82418,-89.47255c8.5212,-29.82418 12.78179,-59.64837 12.78179,-93.73315c0,-38.34538 -4.2606,-63.90896 -12.78179,-80.95135zm-498.48992,178.9451c-8.5212,0 -17.04239,-8.5212 -17.04239,-17.04239c0,-8.5212 8.5212,-17.04239 17.04239,-17.04239s17.04239,8.5212 17.04239,17.04239c0,12.78179 -8.5212,17.04239 -17.04239,17.04239zm-110.77554,426.05976c0,12.78179 -12.78179,25.56359 -25.56359,25.56359c-12.78179,0 -25.56359,-12.78179 -25.56359,-25.56359s12.78179,-25.56359 25.56359,-25.56359c12.78179,0 25.56359,12.78179 25.56359,25.56359zm166.16331,106.51494l-55.38777,110.77554l-55.38777,-110.77554l55.38777,-110.77554l55.38777,110.77554zm106.51494,-106.51494c0,12.78179 -12.78179,25.56359 -25.56359,25.56359c-12.78179,0 -25.56359,-12.78179 -25.56359,-25.56359s12.78179,-25.56359 25.56359,-25.56359s25.56359,12.78179 25.56359,25.56359z" class="st0"/>
 </g>
</svg>