<svg width="1025" height="1024" xmlns="http://www.w3.org/2000/svg" xml:space="preserve" version="1.1">

 <g>
  <title>Layer 1</title>
  <g stroke="null" id="svg_13">
   <g stroke="null" id="svg_1">
    <path stroke="null" id="svg_2" d="m512.50001,132.4571l-450.94203,0"/>
    <path stroke="null" id="svg_3" d="m512.50001,192.58271l-450.94203,0c-30.0628,0 -52.6099,-30.0628 -52.6099,-60.1256s22.5471,-52.6099 52.6099,-52.6099l450.94203,0c30.0628,0 60.1256,22.5471 60.1256,60.1256s-30.0628,52.6099 -60.1256,52.6099z"/>
   </g>
   <g stroke="null" id="svg_4">
    <path stroke="null" id="svg_5" d="m512.50001,380.47522l-450.94203,0"/>
    <path stroke="null" id="svg_6" d="m512.50001,440.60082l-450.94203,0c-30.0628,0 -60.1256,-22.5471 -60.1256,-60.1256s30.0628,-52.6099 60.1256,-52.6099l450.94203,0c30.0628,0 60.1256,22.5471 60.1256,60.1256s-30.0628,52.6099 -60.1256,52.6099z"/>
   </g>
   <g stroke="null" id="svg_7">
    <path stroke="null" id="svg_8" d="m963.44204,636.00904l-901.88406,0"/>
    <path stroke="null" id="svg_9" d="m963.44204,688.61894l-901.88406,0c-30.0628,0 -60.1256,-22.5471 -60.1256,-60.1256s30.0628,-52.6099 60.1256,-52.6099l901.88406,0c30.0628,0 60.1256,22.5471 60.1256,60.1256s-30.0628,52.6099 -60.1256,52.6099z"/>
   </g>
   <g stroke="null" id="svg_10">
    <path stroke="null" id="svg_11" d="m963.44204,884.02716l-901.88406,0"/>
    <path stroke="null" id="svg_12" d="m963.44204,944.15276l-901.88406,0c-30.0628,0 -60.1256,-22.5471 -60.1256,-60.1256s22.5471,-60.1256 60.1256,-60.1256l901.88406,0c30.0628,0 60.1256,22.5471 60.1256,60.1256s-30.0628,60.1256 -60.1256,60.1256z"/>
   </g>
  </g>
 </g>
</svg>