<svg width="1025" height="1024" xmlns="http://www.w3.org/2000/svg" xml:space="preserve" version="1.1">

 <g>
  <title>Layer 1</title>
  <g stroke="null" id="svg_1">
   <path stroke="null" id="svg_2" d="m512.45883,629.49384c-107.58603,0 -195.03333,-87.55499 -195.03333,-195.03333s87.4473,-195.03333 195.03333,-195.03333c107.58603,0 195.03333,87.55499 195.03333,195.03333s-87.4473,195.03333 -195.03333,195.03333zm0,-286.68068c-50.50835,0 -91.64736,41.139 -91.64736,91.64736s41.139,91.64736 91.64736,91.64736c50.50835,0 91.64736,-41.139 91.64736,-91.64736s-41.139,-91.64736 -91.64736,-91.64736z"/>
   <path stroke="null" id="svg_3" d="m512.45883,1023.00669c-75.4933,0 -147.10962,-28.86192 -201.60264,-81.30876c-82.92416,-79.90874 -146.03268,-163.90984 -187.71015,-249.84943c-56.96998,-117.49385 -72.47787,-236.06463 -46.09291,-352.48155l0,0c24.0157,-105.75523 81.52415,-193.741 166.17141,-254.26487c75.81638,-54.27763 171.34071,-84.1088 269.2343,-84.1088c0.10769,0 0.21539,0 0.21539,0c98.00129,0.10769 193.63331,30.04655 269.44969,84.43188c84.53957,60.73926 141.94032,148.72503 165.84833,254.48026c26.38496,116.41691 10.76937,234.9877 -46.20061,352.26616c-41.67747,85.83189 -105.00138,169.833 -188.03323,249.63404c-54.38533,52.33915 -125.78626,81.20106 -201.27956,81.20106zm-334.60439,-660.80867c-47.27754,208.81812 85.18573,389.95896 204.61807,505.08355c36.50817,35.00046 83.24725,52.55454 129.87863,52.55454c46.73907,0 93.37046,-17.44638 129.55554,-52.55454l0.10769,-0.10769c119.64772,-114.9092 252.32639,-295.61926 205.04884,-504.54508c-43.18518,-190.61788 -207.20272,-258.35723 -334.49669,-258.35723c-0.10769,0 -0.10769,0 -0.21539,0c-127.29398,0 -291.20382,67.52396 -334.49669,257.92646z"/>
  </g>
 </g>
</svg>