<svg width="1025" height="1024" xmlns="http://www.w3.org/2000/svg" xml:space="preserve" version="1.1">

 <g>
  <title>Layer 1</title>
  <g stroke="null" id="svg_4">
   <path stroke="null" id="svg_1" d="m671.46908,1021.96061l-4.95107,0c-217.84725,0 -326.77087,-89.11933 -346.57517,-282.21121c0,-19.8043 14.85322,-39.60859 34.65752,-39.60859c19.8043,0 39.60859,14.85322 39.60859,34.65752c14.85322,153.48329 89.11933,212.89618 272.30906,212.89618l4.95107,0c202.99403,0 272.30906,-69.31503 272.30906,-272.30906l0,-326.77087c0,-202.99403 -69.31503,-272.30906 -272.30906,-272.30906l-4.95107,0c-183.18973,0 -257.45584,59.41289 -272.30906,217.84725c0,19.8043 -19.8043,34.65752 -39.60859,34.65752c-19.8043,0 -34.65752,-19.8043 -34.65752,-39.60859c14.85322,-198.04295 123.77685,-287.16228 346.57517,-287.16228l4.95107,0c242.60262,0 346.57517,103.97255 346.57517,346.57517l0,321.8198c4.95107,247.55369 -99.02148,351.52624 -346.57517,351.52624z"/>
   <path stroke="null" id="svg_2" d="m661.56693,551.60859l-564.42242,0c-19.8043,0 -39.60859,-14.85322 -39.60859,-39.60859s14.85322,-39.60859 39.60859,-39.60859l564.42242,0c19.8043,0 39.60859,14.85322 39.60859,39.60859s-19.8043,39.60859 -39.60859,39.60859z"/>
   <path stroke="null" id="svg_3" d="m206.06814,714.99403c-9.90215,0 -19.8043,-4.95107 -24.75537,-9.90215l-163.38544,-168.33651c-14.85322,-14.85322 -14.85322,-39.60859 0,-54.46181l163.38544,-163.38544c14.85322,-14.85322 39.60859,-14.85322 54.46181,0c14.85322,14.85322 14.85322,39.60859 0,54.46181l-138.63007,138.63007l138.63007,138.63007c14.85322,14.85322 14.85322,39.60859 0,54.46181c-9.90215,4.95107 -19.8043,9.90215 -29.70644,9.90215z"/>
  </g>
 </g>
</svg>