<svg width="1025" height="1024" xmlns="http://www.w3.org/2000/svg" xml:space="preserve" version="1.1">

 <g>
  <title>Layer 1</title>
  <g stroke="null" id="svg_4">
   <path stroke="null" id="svg_1" d="m817.22845,717.89757c-16.47181,0 -32.94362,-8.2359 -41.17952,-16.47181c-24.70771,-24.70771 -24.70771,-65.88723 0,-90.59494l98.83085,-98.83085l-98.83085,-98.83085c-24.70771,-24.70771 -24.70771,-65.88723 0,-90.59494s65.88723,-24.70771 90.59494,0l140.01037,140.01037c8.2359,16.47181 16.47181,32.94362 16.47181,49.41542s-8.2359,32.94362 -16.47181,49.41542l-140.01037,140.01037c-16.47181,8.2359 -32.94362,16.47181 -49.41542,16.47181z"/>
   <path stroke="null" id="svg_2" d="m957.23882,577.8872l-560.04147,0c-32.94362,0 -57.65133,-24.70771 -57.65133,-65.88723s24.70771,-65.88723 65.88723,-65.88723l560.04147,0c24.70771,8.2359 49.41542,32.94362 49.41542,65.88723s-24.70771,65.88723 -57.65133,65.88723z"/>
   <path stroke="null" id="svg_3" d="m504.2641,1014.39011c-296.49254,0 -502.39014,-205.8976 -502.39014,-502.39014c0,-296.49254 205.8976,-502.39014 502.39014,-502.39014c32.94362,0 65.88723,24.70771 65.88723,65.88723s-24.70771,57.65133 -65.88723,57.65133c-181.18989,0 -370.61568,115.30266 -370.61568,378.85158c0,263.54893 189.42579,378.85158 378.85158,378.85158c32.94362,0 65.88723,24.70771 65.88723,65.88723s-32.94362,57.65133 -74.12314,57.65133z"/>
  </g>
 </g>
</svg>