<svg width="1025" height="1024" xmlns="http://www.w3.org/2000/svg" xml:space="preserve" version="1.1">

 <g>
  <title>Layer 1</title>
  <g stroke="null" id="svg_6">
   <path stroke="null" id="svg_1" fill="#191919" d="m912.12472,945.8783c-8.56339,0 -17.12677,-2.85446 -25.69016,-11.41785l-305.42748,-302.57302c-14.27231,-14.27231 -14.27231,-37.10801 0,-51.38032l368.22565,-365.37119c8.56339,-8.56339 22.8357,-11.41785 34.25355,-8.56339c11.41785,2.85446 22.8357,14.27231 25.69016,25.69016c8.56339,39.96247 14.27231,85.63387 14.27231,137.0142l0,285.44624c0,131.30527 -28.54462,219.79361 -88.48834,282.59178c-5.70892,5.70892 -14.27231,5.70892 -22.8357,8.56339zm-254.04716,-339.68103l251.19269,251.19269c28.54462,-45.6714 42.81694,-111.32403 42.81694,-202.66683l0,-285.44624c0,-19.98124 0,-37.10801 -2.85446,-54.23479l-291.15517,291.15517z" class="st0"/>
   <path stroke="null" id="svg_2" fill="#191919" d="m238.47159,1011.53094c-2.85446,0 -5.70892,0 -8.56339,0c-156.99543,-37.10801 -228.35699,-151.28651 -228.35699,-356.8078l0,-285.44624c0,-259.75608 108.46957,-368.22565 368.22565,-368.22565l285.44624,0c205.5213,0 319.69979,74.21602 353.95334,231.21146c2.85446,11.41785 0,25.69016 -8.56339,34.25355l-736.45131,733.59685c-5.70892,5.70892 -14.27231,11.41785 -25.69016,11.41785zm131.30527,-939.11814c-219.79361,0 -296.86409,77.07049 -296.86409,296.86409l0,285.44624c0,165.55882 45.6714,248.33823 156.99543,279.73732l707.90668,-707.90668c-31.39909,-111.32403 -114.1785,-156.99543 -279.73732,-156.99543l-288.30071,2.85446l0,0z" class="st0"/>
   <path stroke="null" id="svg_3" fill="#191919" d="m655.22311,1022.94879l-285.44624,0c-51.38032,0 -97.05172,-2.85446 -137.0142,-14.27231c-11.41785,-2.85446 -22.8357,-11.41785 -25.69016,-25.69016c-2.85446,-11.41785 0,-25.69016 8.56339,-34.25355l368.22565,-368.22565c14.27231,-14.27231 37.10801,-14.27231 51.38032,0l302.57302,302.57302c5.70892,5.70892 11.41785,17.12677 11.41785,25.69016c0,8.56339 -2.85446,19.98124 -11.41785,25.69016c-62.79817,62.79817 -151.28651,88.48834 -282.59178,88.48834zm-339.68103,-71.36156c17.12677,0 34.25355,2.85446 54.23479,2.85446l285.44624,0c91.3428,0 156.99543,-14.27231 202.66683,-42.81694l-251.19269,-251.19269l-291.15517,291.15517z" class="st0"/>
   <path stroke="null" id="svg_4" fill="#191919" d="m375.48579,574.79819c-31.39909,0 -59.94371,-11.41785 -82.77941,-34.25355c-74.21602,-71.36156 -105.61511,-151.28651 -88.48834,-228.35699c17.12677,-79.92495 85.63387,-131.30527 171.26775,-131.30527c85.63387,0 154.14097,54.23479 171.26775,131.30527c17.12677,77.07049 -14.27231,156.99543 -88.48834,228.35699c-22.8357,22.8357 -54.23479,34.25355 -82.77941,34.25355zm-102.76065,-245.48377c-14.27231,65.65264 28.54462,122.74188 68.5071,159.8499c19.98124,19.98124 48.52586,19.98124 68.5071,0c39.96247,-37.10801 82.77941,-94.19726 68.5071,-159.8499c-14.27231,-57.08925 -62.79817,-77.07049 -102.76065,-77.07049c-39.96247,0 -88.48834,19.98124 -102.76065,77.07049z" class="st0"/>
   <path stroke="null" id="svg_5" fill="#191919" d="m375.48579,392.11259c-25.69016,0 -48.52586,-22.8357 -48.52586,-48.52586c0,-25.69016 19.98124,-48.52586 48.52586,-48.52586l0,0c25.69016,0 48.52586,22.8357 48.52586,48.52586c0,28.54462 -19.98124,48.52586 -48.52586,48.52586z" class="st0"/>
  </g>
 </g>
</svg>