<svg width="1025" height="1024" xmlns="http://www.w3.org/2000/svg" xml:space="preserve" version="1.1">

 <g>
  <title>Layer 1</title>
  <g stroke="null" id="svg_3">
   <path stroke="null" id="svg_1" d="m782.11684,982.10118c-20.73976,0 -34.56627,-6.91325 -48.39277,-13.82651l-179.74458,-110.61205c-20.73976,0 -34.56627,0 -55.30602,-6.91325c-20.73976,0 -34.56627,-13.82651 -41.47952,-34.56627c-6.91325,-20.73976 0,-34.56627 6.91325,-55.30602c27.65301,-34.56627 41.47952,-69.13253 41.47952,-110.61205c0,-103.6988 -89.87229,-186.65783 -200.48434,-186.65783c-41.47952,13.82651 -82.95904,20.73976 -117.5253,48.39277c-13.82651,6.91325 -34.56627,6.91325 -48.39277,0c-13.82651,-6.91325 -27.65301,-20.73976 -27.65301,-41.47952c0,-13.82651 0,-27.65301 0,-41.47952c0,-235.0506 207.39759,-428.62169 456.2747,-428.62169c255.79036,0 456.2747,193.57108 456.2747,428.62169c0,124.43855 -55.30602,241.96386 -159.00482,324.92289l13.82651,117.5253c6.91325,34.56627 -13.82651,76.04578 -41.47952,96.78554c-20.73976,13.82651 -34.56627,13.82651 -55.30602,13.82651zm-193.57108,-214.31084c0,0 6.91325,0 0,0l186.65783,110.61205l-13.82651,-131.35181c0,-20.73976 6.91325,-34.56627 20.73976,-48.39277c89.87229,-62.21928 138.26506,-159.00482 138.26506,-262.70361c0,-179.74458 -159.00482,-324.92289 -352.5759,-324.92289c-179.74458,-6.91325 -331.83615,117.5253 -352.5759,276.53012c27.65301,-13.82651 62.21928,-13.82651 89.87229,-13.82651c165.91807,0 304.18313,131.35181 304.18313,290.35663c0,34.56627 -6.91325,69.13253 -20.73976,103.6988z"/>
   <path stroke="null" id="svg_2" d="m166.83732,1023.5807c-13.82651,0 -27.65301,-6.91325 -41.47952,-13.82651c-27.65301,-13.82651 -41.47952,-41.47952 -34.56627,-76.04578l6.91325,-62.21928c-62.21928,-55.30602 -96.78554,-131.35181 -96.78554,-214.31084c0,-96.78554 48.39277,-186.65783 131.35181,-241.96386c48.39277,-27.65301 110.61205,-41.47952 172.83133,-41.47952c165.91807,0 304.18313,131.35181 304.18313,290.35663c0,62.21928 -20.73976,131.35181 -69.13253,179.74458c-55.30602,62.21928 -138.26506,103.6988 -221.2241,110.61205l-110.61205,62.21928c-6.91325,6.91325 -20.73976,6.91325 -41.47952,6.91325zm-6.91325,-96.78554c0,0 0,0 0,0l0,0zm145.17831,-449.36145c-41.47952,0 -82.95904,6.91325 -117.5253,34.56627c-55.30602,34.56627 -82.95904,89.87229 -82.95904,152.09157c0,55.30602 27.65301,110.61205 76.04578,145.17831c13.82651,13.82651 27.65301,27.65301 20.73976,48.39277l-6.91325,41.47952l82.95904,-48.39277c6.91325,-6.91325 13.82651,-6.91325 27.65301,-6.91325c62.21928,0 124.43855,-27.65301 159.00482,-69.13253c27.65301,-34.56627 41.47952,-69.13253 41.47952,-110.61205c0,-103.6988 -89.87229,-186.65783 -200.48434,-186.65783z"/>
  </g>
 </g>
</svg>