<svg width="1025" height="1024" xmlns="http://www.w3.org/2000/svg" xml:space="preserve" version="1.1">

 <g>
  <title>Layer 1</title>
  <path stroke="null" id="svg_1" fill="#191919" d="m843.82689,321.91181l-4.24778,-4.24778c-29.73446,-16.99112 -50.97337,-29.73446 -72.21227,-42.47781c-67.96449,-33.98224 -93.45117,-46.72559 -84.95561,-161.41566c4.24778,-42.47781 -21.2389,-80.70783 -63.71671,-93.45117c-63.71671,-25.48668 -144.42454,-25.48668 -208.14125,0l0,0c-42.47781,16.99112 -67.96449,50.97337 -63.71671,93.45117c8.49556,114.69008 -16.99112,127.43342 -84.95561,161.41566c-21.2389,12.74334 -46.72559,25.48668 -76.46005,42.47781l-4.24778,4.24778c-76.46005,46.72559 -118.93786,72.21227 -101.94673,182.65457c29.73446,191.15013 229.38015,501.23811 433.27362,518.22923c0,0 0,0 0,0c0,0 0,0 0,0c203.89347,-16.99112 403.53916,-327.07911 433.27362,-518.22923c16.99112,-110.4423 -25.48668,-135.92898 -101.94673,-182.65457zm-101.94673,38.23003c0,-16.99112 12.74334,-33.98224 33.98224,-33.98224c16.99112,0 33.98224,12.74334 33.98224,33.98224c0,16.99112 -12.74334,33.98224 -33.98224,33.98224c-21.2389,-4.24778 -33.98224,-16.99112 -33.98224,-33.98224zm-369.55691,-246.37128c0,-29.73446 16.99112,-55.22115 42.47781,-67.96449l0,0c59.46893,-21.2389 131.6812,-21.2389 191.15013,0c29.73446,8.49556 46.72559,38.23003 42.47781,67.96449c-8.49556,127.43342 21.2389,148.67232 101.94673,186.90235c0,0 0,0 4.24778,0c-25.48668,8.49556 -42.47781,29.73446 -42.47781,55.22115c0,16.99112 8.49556,33.98224 16.99112,42.47781c0,0 -4.24778,0 -4.24778,0c-38.23003,0 -67.96449,29.73446 -67.96449,67.96449c0,16.99112 4.24778,29.73446 16.99112,42.47781c-8.49556,-4.24778 -16.99112,-4.24778 -25.48668,-4.24778c-42.47781,0 -76.46005,33.98224 -76.46005,76.46005c0,8.49556 0,16.99112 4.24778,25.48668c-16.99112,-16.99112 -38.23003,-25.48668 -63.71671,-25.48668c-25.48668,0 -46.72559,8.49556 -63.71671,25.48668c4.24778,-8.49556 4.24778,-16.99112 4.24778,-25.48668c0,-42.47781 -33.98224,-76.46005 -76.46005,-76.46005c-8.49556,0 -16.99112,0 -25.48668,4.24778c8.49556,-12.74334 16.99112,-25.48668 16.99112,-42.47781c0,-38.23003 -29.73446,-67.96449 -67.96449,-67.96449c0,0 -4.24778,0 -4.24778,0c12.74334,-12.74334 16.99112,-25.48668 16.99112,-42.47781c0,-25.48668 -16.99112,-46.72559 -42.47781,-55.22115c0,0 0,0 4.24778,0c76.46005,-38.23003 106.19452,-59.46893 97.69895,-186.90235zm322.83133,471.50365c0,25.48668 -21.2389,46.72559 -46.72559,46.72559c-25.48668,0 -46.72559,-21.2389 -46.72559,-46.72559c0,-25.48668 21.2389,-46.72559 46.72559,-46.72559c25.48668,-4.24778 46.72559,16.99112 46.72559,46.72559zm-8.49556,-114.69008c0,-21.2389 16.99112,-38.23003 38.23003,-38.23003s42.47781,16.99112 42.47781,38.23003c0,21.2389 -16.99112,38.23003 -38.23003,38.23003s-42.47781,-16.99112 -42.47781,-38.23003zm-118.93786,195.39791c0,29.73446 -25.48668,55.22115 -55.22115,55.22115s-55.22115,-25.48668 -55.22115,-55.22115s25.48668,-55.22115 55.22115,-55.22115s55.22115,25.48668 55.22115,55.22115zm-267.61018,-237.87571c21.2389,0 38.23003,16.99112 38.23003,38.23003c0,21.2389 -16.99112,38.23003 -38.23003,38.23003s-42.47781,-12.74334 -42.47781,-33.98224c0,-21.2389 16.99112,-42.47781 42.47781,-42.47781zm80.70783,106.19452c25.48668,0 46.72559,21.2389 46.72559,46.72559c0,25.48668 -21.2389,46.72559 -46.72559,46.72559c-25.48668,0 -46.72559,-21.2389 -46.72559,-46.72559c-4.24778,-25.48668 16.99112,-46.72559 46.72559,-46.72559zm-127.43342,-208.14125c16.99112,0 33.98224,12.74334 33.98224,33.98224c0,16.99112 -12.74334,33.98224 -33.98224,33.98224s-33.98224,-16.99112 -33.98224,-33.98224c0,-16.99112 16.99112,-33.98224 33.98224,-33.98224zm666.90156,174.159c-29.73446,182.65457 -225.13237,475.75143 -407.78694,492.74255c-182.65457,-16.99112 -378.05247,-310.08798 -407.78694,-492.74255c-12.74334,-93.45117 16.99112,-110.4423 89.20339,-157.16788c0,4.24778 0,8.49556 0,12.74334c0,33.98224 25.48668,59.46893 59.46893,59.46893c0,0 0,0 4.24778,0c-12.74334,12.74334 -25.48668,29.73446 -25.48668,50.97337c0,38.23003 29.73446,67.96449 67.96449,67.96449c8.49556,0 16.99112,0 21.2389,-4.24778c-12.74334,12.74334 -16.99112,29.73446 -16.99112,50.97337c0,42.47781 33.98224,76.46005 76.46005,76.46005c21.2389,0 42.47781,-8.49556 55.22115,-25.48668c-4.24778,8.49556 -4.24778,21.2389 -4.24778,29.73446c0,46.72559 38.23003,84.95561 84.95561,84.95561c46.72559,0 84.95561,-38.23003 84.95561,-84.95561c0,-12.74334 -4.24778,-21.2389 -4.24778,-29.73446c12.74334,12.74334 33.98224,25.48668 55.22115,25.48668c42.47781,0 76.46005,-33.98224 76.46005,-76.46005c0,-16.99112 -8.49556,-38.23003 -16.99112,-50.97337c8.49556,4.24778 12.74334,4.24778 21.2389,4.24778c38.23003,0 67.96449,-29.73446 67.96449,-67.96449c0,-21.2389 -8.49556,-38.23003 -25.48668,-50.97337c0,0 0,0 4.24778,0c33.98224,0 59.46893,-25.48668 59.46893,-59.46893c0,-4.24778 0,-8.49556 0,-12.74334c63.71671,46.72559 93.45117,63.71671 80.70783,157.16788z" class="st0"/>
 </g>
</svg>