<svg width="1025" height="1024" xmlns="http://www.w3.org/2000/svg" xml:space="preserve" version="1.1">

 <g>
  <title>Layer 1</title>
  <g stroke="null" id="svg_5">
   <path stroke="null" id="svg_1" d="m699.82986,1021.82178l-379.40225,0c-142.27584,0 -227.64135,-80.62298 -227.64135,-227.64135l0,-460.02523c0,-151.7609 75.88045,-227.64135 227.64135,-227.64135c18.97011,0 37.94023,14.22758 37.94023,37.94023c0,18.97011 9.48506,37.94023 18.97011,52.16781c14.22758,14.22758 33.1977,18.97011 52.16781,18.97011l165.98849,0c37.94023,0 71.13792,-33.1977 71.13792,-71.13792c0,-18.97011 14.22758,-37.94023 37.94023,-37.94023c147.01837,0 227.64135,75.88045 227.64135,227.64135l0,460.02523c-4.74253,142.27584 -90.10803,227.64135 -232.38388,227.64135zm-412.59995,-844.17001c-71.13792,9.48506 -118.5632,42.68275 -118.5632,156.50343l0,460.02523c0,104.33562 47.42528,156.50343 156.50343,156.50343l379.40225,0c104.33562,0 156.50343,-47.42528 156.50343,-156.50343l0,-460.02523c0,-113.82068 -47.42528,-147.01837 -123.30573,-151.7609c-14.22758,61.65287 -71.13792,104.33562 -137.53332,104.33562l-165.98849,0c-37.94023,0 -71.13792,-14.22758 -99.59309,-42.68275c-23.71264,-18.97011 -37.94023,-42.68275 -47.42528,-66.39539z"/>
   <path stroke="null" id="svg_2" d="m595.49424,286.72991l-165.98849,0c-37.94023,0 -75.88045,-14.22758 -99.59309,-42.68275c-28.45517,-28.45517 -42.68275,-61.65287 -42.68275,-99.59309c0,-80.62298 66.39539,-142.27584 142.27584,-142.27584l165.98849,0c37.94023,0 75.88045,14.22758 99.59309,42.68275c28.45517,28.45517 42.68275,61.65287 42.68275,99.59309c0,75.88045 -66.39539,142.27584 -142.27584,142.27584zm-165.98849,-213.41377c-37.94023,0 -71.13792,33.1977 -71.13792,71.13792c0,18.97011 9.48506,37.94023 18.97011,52.16781c14.22758,14.22758 33.1977,18.97011 52.16781,18.97011l165.98849,0c37.94023,0 71.13792,-33.1977 71.13792,-71.13792c0,-18.97011 -9.48506,-37.94023 -18.97011,-52.16781c-14.22758,-14.22758 -33.1977,-18.97011 -52.16781,-18.97011l-165.98849,0z"/>
   <path stroke="null" id="svg_3" d="m510.12873,594.99424l-189.70113,0c-18.97011,0 -37.94023,-14.22758 -37.94023,-37.94023s14.22758,-37.94023 37.94023,-37.94023l189.70113,0c18.97011,0 37.94023,14.22758 37.94023,37.94023s-18.97011,37.94023 -37.94023,37.94023z"/>
   <path stroke="null" id="svg_4" d="m699.82986,784.69537l-379.40225,0c-18.97011,0 -37.94023,-14.22758 -37.94023,-37.94023s14.22758,-37.94023 37.94023,-37.94023l379.40225,0c18.97011,0 37.94023,14.22758 37.94023,37.94023s-18.97011,37.94023 -37.94023,37.94023z"/>
  </g>
 </g>
</svg>