<?xml version="1.0" encoding="utf-8"?>
<!-- Generator: Adobe Illustrator 17.0.0, SVG Export Plug-In . SVG Version: 6.00 Build 0)  -->
<!DOCTYPE svg PUBLIC "-//W3C//DTD SVG 1.1//EN" "http://www.w3.org/Graphics/SVG/1.1/DTD/svg11.dtd">
<svg version="1.1" id="Layer_1" xmlns="http://www.w3.org/2000/svg" xmlns:xlink="http://www.w3.org/1999/xlink" x="0px" y="0px"
	 width="1025px" height="1024px" viewBox="0 0 1025 1024" enable-background="new 0 0 1025 1024" xml:space="preserve">
<g>
	<path d="M1011.285 14.179c-8.354-1.393-13.926 5.571-15.317 12.534 0 4.178-43.174 427.563-484.663 611.4-440.097-183.838-483.271-607.222-483.271-611.4 0-6.964-6.964-13.927-15.32-12.534-6.964 0-13.927 6.964-12.534 15.32 0 4.178 44.567 437.308 491.627 629.505l-188.016 189.41c-1.393 1.391-1.393 2.782-2.785 4.177v1.391c0 1.395 0 2.786-1.393 4.177 0 0 0 0 0 1.395 0 0 0 0 0 1.391 0 1.395 0 2.786 0 2.786v1.395c0 0 0 0 0 1.391l76.599 136.486c2.785 4.177 6.963 6.963 12.534 6.963h245.115c5.572 0 9.749-2.786 12.535-6.963l76.599-136.486c0 0 0 0 0-1.391v-1.395c0-1.391 0-2.786 0-2.786s0 0 0-1.391c0 0 0 0 0-1.395 0-1.391 0-2.782-1.391-4.177v-1.391c0-1.395-1.395-2.786-2.786-4.177l-186.624-189.41c447.061-192.196 491.627-625.327 491.627-629.505 1.391-8.356-5.572-15.32-12.535-15.32zM482.057 707.746l-51.529 136.486h-83.564l135.093-136.486zM397.101 980.719l-59.887-108.629h94.704l59.887 108.629h-94.705zM463.953 872.090h100.275l-50.138 91.917-50.138-91.917zM626.897 980.719h-90.526l59.887-108.629h90.526l-59.887 108.629zM677.035 844.233h-79.381l-48.747-129.519 128.128 129.519zM568.405 844.233h-108.634l54.319-143.45 54.315 143.45z"></path>
</g>
</svg>
