<svg width="1025" height="1024" xmlns="http://www.w3.org/2000/svg" fill="none">

 <g>
  <title>Layer 1</title>
  <g stroke="null" id="svg_5">
   <path stroke="#191919" id="svg_1" fill="#191919" d="m349.40143,679.36644c-3.0687,0 -5.95054,-1.05555 -8.38924,-3.49473c-4.50463,-4.50748 -4.50463,-12.27671 0,-16.77943l311.43373,-311.43516c4.50273,-4.50463 12.27671,-4.50463 16.77943,0c4.50273,4.50463 4.50273,12.27433 0,16.77896l-311.4342,311.43563c-2.4387,2.43918 -5.32054,3.49473 -8.38972,3.49473z"/>
   <path stroke="null" id="svg_2" fill="#191919" d="m368.90771,469.68293c-51.82653,0 -94.14409,-42.31708 -94.14409,-94.14171c0,-51.82653 42.31755,-94.14456 94.14409,-94.14456c51.82606,0 94.14314,42.31803 94.14314,94.14456c0,51.82463 -42.31708,94.14171 -94.14314,94.14171zm0,-116.48941c-12.36229,0 -22.82317,9.98588 -22.82317,22.82365c0,12.83777 9.9854,22.82174 22.82317,22.82174c12.83777,0 22.82174,-9.98398 22.82174,-22.82174c0,-12.83777 -10.45945,-22.82365 -22.82174,-22.82365z"/>
   <path stroke="null" id="svg_3" fill="#191919" d="m679.86644,742.12885c-51.82653,0 -94.14361,-42.31708 -94.14361,-94.14361c0,-51.82653 42.31708,-94.14361 94.14361,-94.14361c51.82653,0 94.14361,42.31708 94.14361,94.14361c0,51.82653 -42.31708,94.14361 -94.14361,94.14361zm0,-116.49083c-12.36229,0 -22.82269,9.98493 -22.82269,22.82269c0,12.83777 9.98493,22.82269 22.82269,22.82269c12.83777,0 22.82269,-9.98493 22.82269,-22.82269c0,-12.83777 -9.98493,-22.82269 -22.82269,-22.82269z"/>
   <path stroke="null" id="svg_4" fill="#191919" d="m512.50001,1023.13327c-281.95537,0 -511.13325,-229.17789 -511.13325,-511.13325c0,-281.95537 229.17789,-511.13325 511.13325,-511.13325c281.95537,0 511.13325,229.17789 511.13325,511.13325c0,281.95537 -229.17789,511.13325 -511.13325,511.13325zm0,-950.94559c-242.49112,0 -439.81233,197.32121 -439.81233,439.81233c0,242.49112 197.32121,439.81233 439.81233,439.81233c242.49112,0 439.81233,-197.32121 439.81233,-439.81233c0,-242.49112 -197.32121,-439.81233 -439.81233,-439.81233z"/>
  </g>
 </g>
</svg>