<svg width="1025" height="1024" xmlns="http://www.w3.org/2000/svg" xml:space="preserve" version="1.1">

 <g>
  <title>Layer 1</title>
  <g stroke="null" id="svg_1">
   <path stroke="null" id="svg_2" d="m450.76194,704.19125c-16.29932,0 -31.54329,-3.86962 -45.02834,-11.72613c-32.01233,-18.52728 -49.60153,-56.28542 -49.60153,-106.47325l0,-147.98375c0,-50.30509 17.58919,-88.06323 49.60153,-106.59051c32.01233,-18.52728 73.75735,-14.89218 117.37855,10.31899l128.04933,74.10914c43.50394,25.09392 67.5425,59.33421 67.5425,96.27152c0,37.05457 -24.03856,71.1776 -67.5425,96.27152l-128.04933,73.99187c-25.32844,14.5404 -49.83605,21.8106 -72.35022,21.8106zm-0.11726,-361.98561c-12.4297,0 -23.80404,2.81427 -33.77125,8.56007c-24.74213,14.30588 -38.34444,45.26286 -38.34444,87.12514l0,148.10101c0,41.74502 13.60231,72.702 38.4617,87.00788c24.85939,14.30588 58.51338,10.78804 94.86438,-10.20173l128.04933,-73.99187c36.351,-20.87251 56.28542,-48.19439 56.28542,-76.80615c0,-28.61176 -19.93442,-55.93364 -56.28542,-76.80615l-128.04933,-74.10914c-21.8106,-12.4297 -42.68311,-18.87907 -61.21039,-18.87907z"/>
   <path stroke="null" id="svg_3" d="m512.44138,1023.611c-69.0669,0 -136.0231,-13.48505 -199.10967,-40.22062c-60.97587,-25.79748 -115.61963,-62.61753 -162.64141,-109.63931c-47.02178,-47.02178 -83.84182,-101.66554 -109.63931,-162.64141c-26.61831,-63.08657 -40.10336,-130.04277 -40.10336,-199.10967s13.48505,-136.0231 40.10336,-199.10967c25.79748,-60.97587 62.61753,-115.61963 109.63931,-162.64141c47.02178,-47.02178 101.66554,-83.84182 162.64141,-109.63931c63.08657,-26.61831 130.04277,-40.22062 199.10967,-40.22062c69.0669,0 136.0231,13.48505 199.10967,40.22062c60.97587,25.79748 115.61963,62.61753 162.64141,109.63931c47.02178,47.02178 83.84182,101.66554 109.63931,162.64141c26.73557,63.08657 40.22062,130.04277 40.22062,199.10967c0,69.0669 -13.48505,136.0231 -40.22062,199.10967c-25.79748,60.97587 -62.61753,115.61963 -109.63931,162.64141s-101.66554,83.84182 -162.64141,109.63931c-63.08657,26.61831 -130.04277,40.22062 -199.10967,40.22062zm0,-1000.70786c-269.70097,0 -488.97958,219.39588 -488.97958,489.09684c0,269.70097 219.27861,489.09684 488.97958,489.09684c269.70097,0 489.09684,-219.39588 489.09684,-489.09684c0,-269.70097 -219.39588,-489.09684 -489.09684,-489.09684z"/>
  </g>
 </g>
</svg>