<svg width="1024" height="1024" xmlns="http://www.w3.org/2000/svg">

 <g>
  <title>Layer 1</title>
  <g id="svg_1">
   <path id="svg_2" d="m221.677,430.44248c72.018,0 129.408,21.144 172.168,63.434c43.51,42.288 65.266,99.302 65.266,171.043c0,67.965 -22.13,123.469 -66.39,166.514c-43.512,43.045 -99.774,64.566 -168.792,64.566c-64.516,0 -118.154,-21.899 -160.914,-65.699c-42.01,-43.8 -63.015,-106.101 -63.015,-186.902c0,-94.395 30.382,-187.28 91.147,-278.654s142.534,-170.29 245.31,-236.744l63.014,74.761c-96.773,64.944 -165.04,141.592 -204.8,229.946c6.002,-1.509 15.005,-2.264 27.006,-2.264l0,-0.001zm564.888,0c72.018,0 129.408,21.144 172.168,63.434c43.51,42.288 65.266,99.302 65.266,171.043c0,67.965 -22.13,123.469 -66.39,166.514c-43.512,43.045 -99.774,64.566 -168.792,64.566c-64.515,0 -118.154,-21.899 -160.914,-65.699c-42.011,-43.8 -63.016,-106.101 -63.016,-186.902c0,-94.395 30.382,-187.28 91.147,-278.654s142.534,-170.29 245.31,-236.744l63.014,74.761c-96.773,64.944 -165.414,141.592 -205.925,229.946c6.752,-1.509 16.13,-2.264 28.131,-2.264l0.001,-0.001z" fill="rgb(0, 0, 0)"/>
  </g>
 </g>
</svg>