<?xml version="1.0" encoding="utf-8"?>
<!-- Generator: Adobe Illustrator 23.0.0, SVG Export Plug-In . SVG Version: 6.00 Build 0)  -->
<svg version="1.1" id="Layer_1" xmlns="http://www.w3.org/2000/svg" xmlns:xlink="http://www.w3.org/1999/xlink" x="0px" y="0px"
	 viewBox="0 0 1025 1024" style="enable-background:new 0 0 1025 1024;" xml:space="preserve">
<g>
	<title>Layer 1</title>
	<g id="svg_13">
		<path id="svg_4" d="M514.6,1022.7c-195.8,0-353.3-157.5-353.3-349c0-161.7,106.4-302.2,263.9-340.5c8.5-4.3,17,4.3,21.3,12.8
			c4.3,8.5-4.3,17-12.8,21.3C293.3,405.6,195.4,529,195.4,673.7c0,174.5,144.7,319.2,319.2,319.2s319.2-144.7,319.2-319.2
			c0-144.7-97.9-272.4-234.1-306.4c-12.8-4.3-17-12.8-17-25.5c4.3-8.5,12.8-12.8,21.3-12.8c153.2,42.6,259.6,183,259.6,340.5
			C863.6,865.3,706.2,1022.7,514.6,1022.7z M514.6,924.8c-140.4,0-251.1-114.9-251.1-251.1s110.7-255.4,251.1-255.4
			s251.1,114.9,251.1,251.1S650.8,924.8,514.6,924.8z M514.6,452.4c-119.2,0-221.3,97.9-221.3,221.3c0,119.2,97.9,221.3,221.3,221.3
			c119.2,0,221.3-97.9,221.3-221.3C731.7,550.3,633.8,452.4,514.6,452.4L514.6,452.4z"/>
		<path id="svg_5" d="M514.6,443.9c-4.3,0-8.5,0-12.8-4.3L306.1,231.1c-4.3-4.3-4.3-12.8,0-17s8.5-8.5,17-8.5h387.3
			c8.5,0,12.8,4.3,17,8.5s0,12.8-4.3,17L531.7,439.6C523.1,443.9,518.9,443.9,514.6,443.9z M357.2,235.4l153.2,166l153.2-166H357.2
			L357.2,235.4z"/>
		<path id="svg_6" d="M706.2,235.4H318.8c-4.3,0-12.8-4.3-12.8-8.5c-4.3-4.3-4.3-12.8,0-17l63.8-102.1c4.3-4.3,8.5-4.3,17-4.3h255.4
			c4.3,0,12.8,4.3,12.8,8.5l63.8,102.1c4.3,4.3,4.3,12.8,0,17C718.9,231.1,714.7,235.4,706.2,235.4L706.2,235.4z M348.6,201.3h323.5
			l-42.6-68.1H395.5L348.6,201.3L348.6,201.3z"/>
		<path id="svg_7" d="M514.6,443.9c-8.5,0-12.8-4.3-17-12.8l-72.4-204.3c0-4.3,0-12.8,0-17l72.4-106.4c4.3-4.3,8.5-8.5,12.8-8.5
			s12.8,4.3,12.8,8.5l72.4,110.7c4.3,4.3,4.3,8.5,0,12.8l-68.1,204.3C527.4,439.6,518.9,443.9,514.6,443.9L514.6,443.9z
			 M459.3,226.8l55.3,153.2l51.1-153.2l-51.1-76.6L459.3,226.8L459.3,226.8z"/>
		<path id="svg_8" d="M514.6,69.4c-8.5,0-17-8.5-17-17v-34c0-8.5,8.5-17,17-17s17,8.5,17,17v34C531.7,60.9,523.1,69.4,514.6,69.4z"
			/>
		<path id="svg_9" d="M663.6,69.4c-4.3,0-4.3,0-8.5-4.3c-8.5-4.3-8.5-17-4.3-21.3l17-29.8c4.3-8.5,17-8.5,21.3-4.3
			c8.5,4.3,8.5,17,4.3,21.3l-17,29.8C676.4,69.4,672.1,69.4,663.6,69.4z"/>
		<path id="svg_10" d="M740.2,163c-4.3,0-8.5,0-8.5-4.3c-8.5-4.3-8.5-17-4.3-25.5l25.5-29.8c4.3-8.5,17-8.5,25.5-4.3
			c8.5,4.3,8.5,17,4.3,25.5l-25.5,29.8C753,163,744.5,163,740.2,163L740.2,163z"/>
		<path id="svg_11" d="M361.4,69.4c-4.3,0-12.8-4.3-12.8-8.5l-17-25.5c-8.5-8.5-4.3-21.3,4.3-25.5s17-4.3,21.3,4.3l17,29.8
			c4.3,8.5,4.3,17-4.3,21.3C365.7,69.4,365.7,69.4,361.4,69.4z"/>
		<path id="svg_12" d="M284.8,163c-4.3,0-8.5-4.3-12.8-4.3L250.8,129c-8.5-8.5-8.5-17,0-25.5c8.5-4.3,17-4.3,25.5,4.3l25.5,29.8
			c4.3,8.5,4.3,17-4.3,25.5C293.3,163,289.1,163,284.8,163L284.8,163z"/>
	</g>
</g>
</svg>
