<svg width="1025" height="1024" xmlns="http://www.w3.org/2000/svg" xml:space="preserve" version="1.1">

 <g>
  <title>Layer 1</title>
  <g stroke="null" id="svg_3">
   <path stroke="null" id="svg_1" fill="#191919" d="m465.55003,928.74622c-252.7805,0 -464.56956,-204.95716 -464.56956,-457.73766s204.95716,-464.56956 464.56956,-464.56956s464.56956,204.95716 464.56956,464.56956s-204.95716,457.73766 -464.56956,457.73766zm0,-819.82864c-198.12526,0 -362.09098,163.96573 -362.09098,362.09098s163.96573,355.25908 362.09098,355.25908s362.09098,-163.96573 362.09098,-355.25908s-163.96573,-362.09098 -362.09098,-362.09098z" class="st0"/>
   <path stroke="null" id="svg_2" fill="#191919" d="m889.12817,1017.56099c-6.83191,0 -6.83191,0 -13.66381,0c-40.99143,-6.83191 -75.15096,-40.99143 -95.64668,-95.64668l0,0c-13.66381,-40.99143 -6.83191,-81.98286 13.66381,-109.31049c20.49572,-27.32762 61.48715,-47.82334 102.47858,-47.82334c54.65524,0 95.64668,20.49572 116.14239,61.48715c20.49572,34.15953 13.66381,81.98286 -13.66381,129.8062c-34.15953,40.99143 -68.31905,61.48715 -109.31049,61.48715zm-13.66381,-122.9743c6.83191,13.66381 13.66381,20.49572 13.66381,27.32762c0,0 6.83191,-6.83191 20.49572,-20.49572c6.83191,-13.66381 6.83191,-20.49572 6.83191,-20.49572c0,0 -6.83191,0 -20.49572,0c-6.83191,0 -13.66381,0 -13.66381,6.83191c-6.83191,-13.66381 -6.83191,-6.83191 -6.83191,6.83191l0,0z" class="st0"/>
  </g>
 </g>
</svg>