<svg width="1025" height="1024" xmlns="http://www.w3.org/2000/svg" xml:space="preserve" version="1.1">

 <g>
  <title>Layer 1</title>
  <g stroke="null" id="svg_1">
   <path stroke="null" id="svg_2" d="m489.45272,978.22012c-66.04594,0 -130.14261,-12.95693 -190.45539,-38.41213c-58.24885,-24.65256 -110.53522,-59.9688 -155.48315,-104.80206c-44.94793,-45.06259 -80.1495,-97.34896 -104.80206,-155.59781c-25.56987,-60.31278 -38.41213,-124.40945 -38.41213,-190.45539s12.95693,-130.14261 38.41213,-190.45539c24.65256,-58.24885 59.9688,-110.53522 104.80206,-155.48315c44.94793,-44.94793 97.2343,-80.1495 155.48315,-104.80206c60.31278,-25.56987 124.40945,-38.41213 190.45539,-38.41213s130.14261,12.84227 190.45539,38.41213c58.24885,24.65256 110.53522,59.9688 155.48315,104.80206c44.94793,44.94793 80.1495,97.2343 104.80206,155.48315c25.56987,60.31278 38.41213,124.40945 38.41213,190.45539s-12.84227,130.14261 -38.41213,190.45539c-24.65256,58.24885 -59.9688,110.53522 -104.80206,155.48315c-44.94793,44.94793 -97.2343,80.1495 -155.48315,104.80206c-60.31278,25.56987 -124.40945,38.5268 -190.45539,38.5268zm0,-874.87936c-212.58537,0 -385.61197,173.0266 -385.61197,385.61197c0,212.58537 173.0266,385.61197 385.61197,385.61197c212.58537,0 385.61197,-173.0266 385.61197,-385.61197c0,-212.58537 -173.0266,-385.61197 -385.61197,-385.61197z"/>
   <path stroke="null" id="svg_3" d="m972.8723,1024.20002c-13.30092,0 -26.48717,-5.04518 -36.57753,-15.13553l-92.07446,-92.07446c-20.1807,-20.1807 -20.1807,-52.97435 0,-73.26971s52.97435,-20.1807 73.26971,0l92.07446,92.07446c20.1807,20.1807 20.1807,52.97435 0,73.26971c-10.09035,10.09035 -23.39127,15.13553 -36.69219,15.13553z"/>
  </g>
 </g>
</svg>