<svg width="1025" height="1024" xmlns="http://www.w3.org/2000/svg" xml:space="preserve" version="1.1">

 <g>
  <title>Layer 1</title>
  <g stroke="null" id="svg_3">
   <path stroke="null" id="svg_1" d="m625.87132,1019.41925l0,0c-63.39989,0 -153.2164,-42.26659 -221.89961,-253.59955l-36.98327,-116.23313l-110.94981,-31.69994c-211.33296,-68.68321 -253.59955,-158.49972 -253.59955,-221.89961c0,-63.39989 42.26659,-153.2164 253.59955,-221.89961l0,0l449.08254,-147.93307c110.94981,-36.98327 206.04964,-26.41662 264.1662,31.69994c58.11656,58.11656 68.68321,153.2164 31.69994,264.1662l-147.93307,449.08254c-73.96654,206.04964 -163.78305,248.31623 -227.18293,248.31623zm-348.69939,-771.36531c-142.64975,52.83324 -195.48299,110.94981 -195.48299,147.93307c0,36.98327 52.83324,95.09983 200.76631,142.64975l132.0831,42.26659c10.56665,5.28332 21.1333,15.84997 26.41662,26.41662l42.26659,132.0831c47.54992,147.93307 105.66648,200.76631 142.64975,200.76631c36.98327,0 95.09983,-52.83324 142.64975,-200.76631l147.93307,-449.08254c26.41662,-79.24986 21.1333,-147.93307 -10.56665,-184.91634c-36.98327,-36.98327 -100.38316,-36.98327 -179.63302,-10.56665l-449.08254,153.2164z"/>
   <path stroke="null" id="svg_2" d="m409.25504,639.01991c-10.56665,0 -21.1333,-5.28332 -26.41662,-10.56665c-15.84997,-15.84997 -15.84997,-42.26659 0,-58.11656l190.19967,-190.19967c15.84997,-15.84997 42.26659,-15.84997 58.11656,0s15.84997,42.26659 0,58.11656l-190.19967,190.19967c-10.56665,5.28332 -21.1333,10.56665 -31.69994,10.56665z"/>
  </g>
 </g>
</svg>