<svg width="1152" height="1024" xmlns="http://www.w3.org/2000/svg" xml:space="preserve" version="1.1">

 <g>
  <title>Layer 1</title>
  <g stroke="null" id="svg_1">
   <path stroke="null" id="svg_2" d="m790.31964,351.79078c-19.75245,0 -35.71064,-15.95819 -35.71064,-35.71064l0,-65.7299c0,-50.32968 -21.42638,-98.53905 -58.69936,-132.46416c-37.60777,-34.1483 -86.48671,-50.32968 -137.37437,-45.30787c0,0 -0.1116,0 -0.1116,0c-85.70554,8.03489 -160.92107,95.30277 -160.92107,186.81129l0,46.20064c0,19.75245 -15.95819,35.71064 -35.71064,35.71064s-35.71064,-15.95819 -35.71064,-35.71064l0,-46.20064c0,-60.15011 23.6583,-122.30894 65.06032,-170.7415c43.07596,-50.55287 100.10139,-81.4649 160.58628,-87.15628c36.04543,-3.45947 71.30968,0.55798 105.1232,12.05234c32.36277,11.04798 61.71245,28.34532 87.15628,51.44564c52.22681,47.42819 82.13447,114.94362 82.13447,185.24894l0,65.7299c-0.1116,19.86404 -16.06979,35.82224 -35.82224,35.82224z"/>
   <path stroke="null" id="svg_3" d="m718.89836,1023.70879l-285.68512,0c-97.53469,0 -166.27767,-19.41766 -209.91161,-59.36894c-45.08468,-41.17883 -56.35585,-97.53469 -61.15447,-142.17299l-35.71064,-285.35033c0,-0.1116 0,-0.33479 -0.1116,-0.44638c-4.01745,-36.26862 -3.45947,-67.18064 1.67394,-94.5216c6.36096,-33.59032 19.97564,-62.27043 40.50926,-85.25915c42.74117,-47.65139 113.71607,-70.8633 217.05373,-70.8633l380.87629,0c103.33766,0 174.31256,23.21192 217.05373,70.8633c20.53362,22.98872 34.1483,51.66883 40.50926,85.25915c5.1334,27.34096 5.69138,58.25298 1.67394,94.5216c0,0.1116 0,0.33479 -0.1116,0.44638l-35.48745,285.23874c-4.79862,44.6383 -16.18138,101.10575 -61.15447,142.17299c-43.74553,40.06287 -112.48852,59.48053 -210.0232,59.48053zm-285.68512,-71.42128l285.68512,0c78.8982,0 131.79458,-13.27989 161.81384,-40.62085c21.98436,-20.08723 33.14394,-48.32096 38.38894,-97.42309c0,-0.22319 0,-0.44638 0.1116,-0.66957l35.71064,-285.46193c6.47255,-58.69936 -1.33915,-98.09266 -24.55106,-123.98288c-28.01053,-31.24681 -83.13883,-47.09341 -163.82256,-47.09341l-380.98789,0c-80.68373,0 -135.81203,15.8466 -163.82256,47.09341c-23.21192,25.89021 -30.91202,65.28351 -24.55106,123.98288l35.71064,285.46193c0,0.22319 0,0.44638 0.1116,0.66957c5.245,49.10213 16.40458,77.33585 38.38894,97.42309c29.90766,27.34096 82.91564,40.62085 161.81384,40.62085l0,0c0,0 0,0 0,0l0,0z"/>
   <path stroke="null" id="svg_4" d="m742.89145,559.47047l-0.44638,0c-26.3366,0 -47.65139,-21.31479 -47.65139,-47.65139c0,-26.3366 21.31479,-47.65139 47.65139,-47.65139l0.44638,0c26.3366,0 47.65139,21.31479 47.65139,47.65139c0,26.3366 -21.31479,47.65139 -47.65139,47.65139z"/>
   <path stroke="null" id="svg_5" d="m409.55494,559.47047l-0.44638,0c-26.3366,0 -47.65139,-21.31479 -47.65139,-47.65139c0,-26.3366 21.31479,-47.65139 47.65139,-47.65139l0.44638,0c26.3366,0 47.65139,21.31479 47.65139,47.65139c0,26.3366 -21.31479,47.65139 -47.65139,47.65139z"/>
  </g>
 </g>
</svg>