<?xml version="1.0" encoding="utf-8"?>
<!-- Generator: Adobe Illustrator 17.0.0, SVG Export Plug-In . SVG Version: 6.00 Build 0)  -->
<!DOCTYPE svg PUBLIC "-//W3C//DTD SVG 1.1//EN" "http://www.w3.org/Graphics/SVG/1.1/DTD/svg11.dtd">
<svg version="1.1" id="Layer_1" xmlns="http://www.w3.org/2000/svg" xmlns:xlink="http://www.w3.org/1999/xlink" x="0px" y="0px"
	 width="1025px" height="1024px" viewBox="0 0 1025 1024" enable-background="new 0 0 1025 1024" xml:space="preserve">
<g><path d="M704 256c0-141.158-114.842-256-256-256-141.16 0-256 114.842-256 256h-192v608c0 88.366 71.634 160 160 160h576c88.366 0 160-71.634 160-160v-608h-192zM448 64c105.87 0 192 86.13 192 192h-384c0-105.87 86.13-192 192-192zM832 864c0 52.934-43.066 96-96 96h-576c-52.934 0-96-43.066-96-96v-544h128v96c0 17.674 14.328 32 32 32s32-14.326 32-32v-96h384v96c0 17.674 14.326 32 32 32s32-14.326 32-32v-96h128v544z"></path></g>
</svg>
