<svg width="1025" height="1024" xmlns="http://www.w3.org/2000/svg" xml:space="preserve" version="1.1">

 <g>
  <title>Layer 1</title>
  <path stroke="null" id="svg_1" d="m760.48251,1016.82155c-26.56956,0 -61.99563,-8.85652 -106.27822,-35.42607l-132.84778,-79.70867c0,0 -17.71304,0 -17.71304,0l-132.84778,79.70867c-97.4217,53.13911 -150.56082,35.42607 -185.98689,8.85652c-26.56956,-17.71304 -70.85215,-70.85215 -44.28259,-177.13037l35.42607,-132.84778c0,0 0,-17.71304 -8.85652,-17.71304l-106.27822,-106.27822c-53.13911,-53.13911 -70.85215,-106.27822 -53.13911,-159.41733s61.99563,-88.56519 132.84778,-97.4217l141.7043,-26.56956c0,0 8.85652,-8.85652 17.71304,-8.85652l79.70867,-159.41733c26.56956,-61.99563 79.70867,-97.4217 132.84778,-97.4217c0,0 0,0 0,0c53.13911,0 106.27822,35.42607 132.84778,97.4217l79.70867,159.41733c0,0 8.85652,8.85652 17.71304,8.85652l141.7043,26.56956c70.85215,8.85652 115.13474,44.28259 132.84778,97.4217c17.71304,53.13911 0,106.27822 -53.13911,159.41733l-106.27822,106.27822c0,0 -8.85652,17.71304 -8.85652,17.71304l35.42607,132.84778c26.56956,106.27822 -17.71304,159.41733 -44.28259,177.13037c-17.71304,17.71304 -44.28259,26.56956 -79.70867,26.56956zm-247.98252,-247.98252c26.56956,0 53.13911,8.85652 79.70867,17.71304l132.84778,79.70867c17.71304,8.85652 26.56956,8.85652 35.42607,17.71304c0,-8.85652 0,-17.71304 0,-35.42607l-44.28259,-132.84778c-8.85652,-53.13911 8.85652,-115.13474 44.28259,-141.7043l106.27822,-115.13474c8.85652,-8.85652 17.71304,-17.71304 17.71304,-26.56956l0,0c0,0 -8.85652,-8.85652 -26.56956,-8.85652l-141.7043,-17.71304c-44.28259,-8.85652 -88.56519,-44.28259 -115.13474,-79.70867l-70.85215,-159.41733c0,0 0,0 0,0c-8.85652,-17.71304 -17.71304,-26.56956 -17.71304,-26.56956c0,0 -8.85652,8.85652 -17.71304,26.56956l-79.70867,159.41733c-17.71304,35.42607 -61.99563,70.85215 -106.27822,79.70867l-141.7043,17.71304c-17.71304,0 -26.56956,8.85652 -26.56956,8.85652c0,0 8.85652,8.85652 17.71304,26.56956l106.27822,106.27822c35.42607,35.42607 53.13911,97.4217 44.28259,141.7043l-35.42607,132.84778c0,17.71304 0,26.56956 0,35.42607c8.85652,0 17.71304,-8.85652 35.42607,-17.71304l132.84778,-79.70867c17.71304,0 44.28259,-8.85652 70.85215,-8.85652z"/>
 </g>
</svg>