<svg width="1025" height="1024" xmlns="http://www.w3.org/2000/svg" xml:space="preserve" version="1.1">

 <g>
  <title>Layer 1</title>
  <g stroke="null" id="svg_6">
   <path stroke="null" id="svg_1" fill="#191919" d="m979.72484,437.93717c-28.09281,-25.53891 -68.95507,-35.75448 -107.26344,-28.09281c-33.20059,5.10778 -56.18561,35.75448 -56.18561,68.95507l0,48.52394c0,30.6467 20.43113,56.18561 48.52394,66.40118c-30.6467,130.24846 -127.69457,232.40411 -255.38914,268.15859c-10.21557,-25.53891 -35.75448,-43.41615 -63.84728,-43.41615l-63.84728,0c-33.20059,0 -63.84728,25.53891 -68.95507,58.7395c-2.55389,17.87724 -2.55389,35.75448 2.55389,53.63172c-15.32335,-2.55389 -28.09281,-5.10778 -40.86226,-7.66167c-201.75742,-51.07783 -342.22144,-232.40411 -342.22144,-439.26932c0,-250.28135 204.31131,-452.03877 452.03877,-452.03877c194.09574,0 365.20647,125.14068 429.05375,306.46696c-5.10778,0 -12.76946,2.55389 -15.32335,7.66167c-5.10778,7.66167 -2.55389,15.32335 5.10778,20.43113l25.53891,15.32335c0,0 2.55389,0 2.55389,0c0,0 0,0 0,0c0,0 2.55389,0 2.55389,0c0,0 0,0 0,0c0,0 0,0 2.55389,0c0,0 0,0 0,0c0,0 0,0 0,0c0,0 0,0 2.55389,0c0,0 0,0 0,0c0,0 0,0 2.55389,0c0,0 0,0 0,0c0,0 0,0 0,0c0,0 0,0 0,0c0,0 0,0 0,0c0,0 0,0 0,0c0,0 0,0 0,0c0,0 0,0 0,0c0,0 0,0 0,0c0,0 0,0 0,0c0,0 0,0 0,0c2.55389,0 2.55389,-2.55389 5.10778,-5.10778l15.32335,-28.09281c5.10778,-7.66167 2.55389,-15.32335 -5.10778,-20.43113c-5.10778,-2.55389 -12.76946,-2.55389 -17.87724,2.55389c-63.84728,-196.64964 -245.17357,-329.45199 -454.59266,-329.45199c-127.69457,0 -250.28135,51.07783 -342.22144,140.46403s-140.46403,214.52688 -140.46403,342.22144c0,109.81733 35.75448,211.97298 104.70955,298.80529c66.40118,84.27842 158.34127,143.01792 260.49692,168.55683c20.43113,5.10778 40.86226,7.66167 61.29339,10.21557c5.10778,7.66167 10.21557,15.32335 15.32335,20.43113c22.98502,25.53891 56.18561,40.86226 91.94009,40.86226c2.55389,0 5.10778,0 7.66167,0c125.14068,-7.66167 242.61968,-61.29339 332.00588,-150.67959c89.3862,-89.3862 140.46403,-206.8652 148.1257,-334.55977c2.55389,-35.75448 -12.76946,-74.06285 -43.41615,-99.60176zm12.76946,99.60176c-12.76946,245.17357 -206.8652,441.82321 -452.03877,454.59266c-28.09281,2.55389 -56.18561,-10.21557 -74.06285,-30.6467c-20.43113,-20.43113 -28.09281,-51.07783 -22.98502,-81.72452c2.55389,-20.43113 20.43113,-33.20059 38.30837,-33.20059l63.84728,0c20.43113,0 35.75448,15.32335 38.30837,33.20059l0,7.66167c0,7.66167 7.66167,15.32335 15.32335,15.32335c7.66167,0 12.76946,-5.10778 15.32335,-10.21557c68.95507,-17.87724 132.80235,-56.18561 181.32629,-107.26344c51.07783,-51.07783 84.27842,-117.479 99.60176,-186.43407c5.10778,-2.55389 10.21557,-7.66167 10.21557,-15.32335c0,-7.66167 -7.66167,-15.32335 -15.32335,-15.32335l-7.66167,0l-5.10778,0c-17.87724,-2.55389 -33.20059,-20.43113 -33.20059,-38.30837l0,-48.52394c0,-17.87724 12.76946,-35.75448 33.20059,-38.30837c30.6467,-5.10778 58.7395,2.55389 81.72452,20.43113c22.98502,17.87724 35.75448,45.97004 33.20059,74.06285z" class="st0"/>
   <path stroke="null" id="svg_2" fill="#191919" d="m760.09018,157.00911c-5.10778,-5.10778 -15.32335,-5.10778 -20.43113,0l-579.73334,579.73334c-5.10778,5.10778 -5.10778,15.32335 0,20.43113c2.55389,2.55389 7.66167,5.10778 10.21557,5.10778s7.66167,-2.55389 10.21557,-5.10778l579.73334,-577.17945c5.10778,-7.66167 5.10778,-15.32335 0,-22.98502z" class="st0"/>
   <path stroke="null" id="svg_3" fill="#191919" d="m216.11132,345.99708l-81.72452,71.50896c-10.21557,10.21557 -5.10778,25.53891 10.21557,25.53891l99.60176,0c7.66167,0 15.32335,-7.66167 15.32335,-15.32335c0,-7.66167 -7.66167,-15.32335 -15.32335,-15.32335l-61.29339,0l53.63172,-45.97004c45.97004,-38.30837 17.87724,-114.92511 -43.41615,-114.92511c-61.29339,0 -81.72452,79.17063 -51.07783,79.17063c7.66167,0 15.32335,-7.66167 15.32335,-15.32335c0,-20.43113 15.32335,-35.75448 35.75448,-35.75448c33.20059,5.10778 45.97004,45.97004 22.98502,66.40118z" class="st0"/>
   <path stroke="null" id="svg_4" fill="#191919" d="m297.83584,294.91925l-30.6467,91.94009c-2.55389,10.21557 5.10778,20.43113 15.32335,20.43113l74.06285,0c0,25.53891 -2.55389,30.6467 5.10778,35.75448c10.21557,10.21557 25.53891,2.55389 25.53891,-10.21557l0,-25.53891l25.53891,0c7.66167,0 15.32335,-7.66167 15.32335,-15.32335c0,-7.66167 -7.66167,-15.32335 -15.32335,-15.32335l-25.53891,0l0,-104.70955c0,-7.66167 -7.66167,-15.32335 -15.32335,-15.32335s-15.32335,7.66167 -15.32335,15.32335l0,104.70955l-53.63172,0c0,0 25.53891,-71.50896 25.53891,-71.50896c2.55389,-22.98502 -25.53891,-28.09281 -30.6467,-10.21557z" class="st0"/>
   <path stroke="null" id="svg_5" fill="#191919" d="m553.22498,683.11074c2.55389,0 5.10778,2.55389 7.66167,2.55389c5.10778,0 10.21557,-2.55389 12.76946,-7.66167l79.17063,-160.89516c2.55389,-5.10778 2.55389,-10.21557 0,-15.32335c-2.55389,-5.10778 -7.66167,-7.66167 -12.76946,-7.66167l-91.94009,0c-7.66167,0 -15.32335,7.66167 -15.32335,15.32335c0,7.66167 7.66167,15.32335 15.32335,15.32335l66.40118,0l-68.95507,137.91013c-2.55389,7.66167 0,17.87724 7.66167,20.43113z" class="st0"/>
  </g>
 </g>
</svg>