<svg width="1025" height="1024" xmlns="http://www.w3.org/2000/svg" xml:space="preserve" version="1.1">

 <g>
  <title>Layer 1</title>
  <g stroke="null" id="svg_1">
   <path stroke="null" id="svg_2" d="m779.40371,490.50371c-14.57778,0 -29.15556,-5.57037 -40.17778,-16.71111c-22.16296,-22.16296 -22.16296,-58.19259 0,-80.47407l147.91111,-147.91111l-147.91111,-147.79259c-22.16296,-22.16296 -22.16296,-58.19259 0,-80.47407c22.16296,-22.16296 58.19259,-22.16296 80.47407,0l188.08889,188.08889c22.16296,22.16296 22.16296,58.19259 0,80.47407l-188.08889,188.08889c-11.14074,11.14074 -25.71852,16.71111 -40.2963,16.71111z"/>
   <path stroke="null" id="svg_3" d="m967.61112,302.41482l-910.22223,0c-31.40741,0 -56.88889,-25.48148 -56.88889,-56.88889s25.48148,-56.88889 56.88889,-56.88889l910.22223,0c31.40741,0 56.88889,25.48148 56.88889,56.88889s-25.48148,56.88889 -56.88889,56.88889z"/>
   <path stroke="null" id="svg_4" d="m245.47778,1023.48149c-14.57778,0 -29.15556,-5.57037 -40.17778,-16.71111l-188.08889,-188.08889c-22.16296,-22.16296 -22.16296,-58.19259 0,-80.47407l188.08889,-188.08889c22.16296,-22.16296 58.19259,-22.16296 80.47407,0c22.16296,22.16296 22.16296,58.19259 0,80.47407l-147.91111,147.91111l147.91111,147.91111c22.16296,22.16296 22.16296,58.19259 0,80.47407c-11.14074,11.02222 -25.71852,16.59259 -40.2963,16.59259z"/>
   <path stroke="null" id="svg_5" d="m967.61112,835.3926l-910.22223,0c-31.40741,0 -56.88889,-25.48148 -56.88889,-56.88889s25.48148,-56.88889 56.88889,-56.88889l910.22223,0c31.40741,0 56.88889,25.48148 56.88889,56.88889s-25.48148,56.88889 -56.88889,56.88889z"/>
  </g>
 </g>
</svg>