<svg width="1025" height="1024" xmlns="http://www.w3.org/2000/svg" style="vector-effect: non-scaling-stroke;" stroke="null" xml:space="preserve" version="1.1">

 <g stroke="null">
  <title stroke="null">Layer 1</title>
  <g stroke="null" id="svg_6">
   <path stroke="null" id="svg_1" d="m777.6201,398.37709l-250.91725,0c-18.93715,0 -37.8743,-14.20286 -37.8743,-37.8743s14.20286,-37.8743 37.8743,-37.8743l250.91725,0c18.93715,0 37.8743,14.20286 37.8743,37.8743s-18.93715,37.8743 -37.8743,37.8743z"/>
   <path stroke="null" id="svg_2" d="m280.5199,436.25139c-9.46858,0 -18.93715,-4.73429 -23.67144,-9.46858l-37.8743,-37.8743c-14.20286,-14.20286 -14.20286,-37.8743 0,-52.07716c14.20286,-14.20286 37.8743,-14.20286 52.07716,0l9.46858,9.46858l80.48289,-80.48289c14.20286,-14.20286 37.8743,-14.20286 52.07716,0c14.20286,14.20286 14.20286,37.8743 0,52.07716l-104.15433,104.15433c-9.46858,9.46858 -18.93715,14.20286 -28.40573,14.20286z"/>
   <path stroke="null" id="svg_3" d="m777.6201,729.77723l-250.91725,0c-18.93715,0 -37.8743,-14.20286 -37.8743,-37.8743s14.20286,-37.8743 37.8743,-37.8743l250.91725,0c18.93715,0 37.8743,14.20286 37.8743,37.8743s-18.93715,37.8743 -37.8743,37.8743z"/>
   <path stroke="null" id="svg_4" d="m280.5199,767.65153c-9.46858,0 -18.93715,-4.73429 -23.67144,-9.46858l-37.8743,-37.8743c-14.20286,-14.20286 -14.20286,-37.8743 0,-52.07716c14.20286,-14.20286 37.8743,-14.20286 52.07716,0l9.46858,9.46858l80.48289,-80.48289c14.20286,-14.20286 37.8743,-14.20286 52.07716,0c14.20286,14.20286 14.20286,37.8743 0,52.07716l-104.15433,104.15433c-9.46858,9.46858 -18.93715,14.20286 -28.40573,14.20286z"/>
   <path stroke="null" id="svg_5" d="m654.52862,1023.30306l-284.05726,0c-255.65153,0 -369.27444,-108.88862 -369.27444,-369.27444l0,-284.05726c0,-255.65153 108.88862,-369.27444 369.27444,-369.27444l284.05726,0c255.65153,0 369.27444,108.88862 369.27444,369.27444l0,284.05726c0,255.65153 -113.6229,369.27444 -369.27444,369.27444zm-284.05726,-946.85753c-217.77723,0 -293.52583,75.7486 -293.52583,293.52583l0,284.05726c0,217.77723 75.7486,298.26012 298.26012,298.26012l284.05726,0c217.77723,0 298.26012,-75.7486 298.26012,-298.26012l0,-284.05726c0,-217.77723 -75.7486,-298.26012 -298.26012,-298.26012l-288.79155,0l0,4.73429z"/>
  </g>
 </g>
</svg>