<svg width="1025" height="1024" xmlns="http://www.w3.org/2000/svg" xml:space="preserve" version="1.1">

 <g>
  <title>Layer 1</title>
  <g stroke="null" id="svg_3">
   <path stroke="null" id="svg_1" d="m510.12629,1022.34911c-280.09857,0 -507.97538,-232.62424 -507.97538,-512.72281s227.87681,-507.97538 507.97538,-507.97538s512.72281,227.87681 512.72281,507.97538s-232.62424,512.72281 -512.72281,512.72281zm0,-949.48669c-242.11911,0 -441.51131,194.64477 -441.51131,441.51131s194.64477,441.51131 441.51131,441.51131s441.51131,-194.64477 441.51131,-441.51131s-199.39221,-441.51131 -441.51131,-441.51131z"/>
   <path stroke="null" id="svg_2" d="m443.66222,680.5339c-9.49487,0 -18.98973,-4.74743 -23.73717,-9.49487l-132.92814,-132.92814c-14.2423,-14.2423 -14.2423,-37.97947 0,-52.22177s37.97947,-14.2423 52.22177,0l109.19097,109.19097l242.11911,-242.11911c14.2423,-14.2423 37.97947,-14.2423 52.22177,0c14.2423,14.2423 14.2423,37.97947 0,52.22177l-270.60371,270.60371c-9.49487,0 -18.98973,4.74743 -28.4846,4.74743z"/>
  </g>
 </g>
</svg>