<?xml version="1.0" encoding="utf-8"?>
<!-- Generator: Adobe Illustrator 17.0.0, SVG Export Plug-In . SVG Version: 6.00 Build 0)  -->
<!DOCTYPE svg PUBLIC "-//W3C//DTD SVG 1.1//EN" "http://www.w3.org/Graphics/SVG/1.1/DTD/svg11.dtd">
<svg version="1.1" id="Layer_1" xmlns="http://www.w3.org/2000/svg" xmlns:xlink="http://www.w3.org/1999/xlink" x="0px" y="0px"
	 width="1025px" height="1024px" viewBox="0 0 1025 1024" enable-background="new 0 0 1025 1024" xml:space="preserve">
<g><path d="M1019.304 519.966l-17.177-20.437c-3.415-4.066-8.305-6.608-13.599-7.067-5.262-0.446-10.543 1.204-14.611 4.619l-55.26 46.439c6.164-88.637-13.485-177.527-57.476-256.155-81.18-145.090-235.224-235.222-402.024-235.222-78.041 0-155.432 20.218-223.795 58.469-107.020 59.884-184.369 158.033-217.791 276.362-33.417 118.329-18.851 242.438 41.036 349.463 81.25 145.21 234.917 235.417 401.039 235.417 16.926 0 34.060-0.945 50.927-2.809 10.991-1.215 18.917-11.109 17.703-22.1l-2.931-26.534c-1.215-10.991-11.066-18.917-22.097-17.703-14.438 1.594-29.094 2.4-43.564 2.4-142.004 0-273.366-77.117-342.832-201.258-105.835-189.156-38.049-429.151 151.105-534.989 58.437-32.696 124.568-49.977 191.254-49.977 142.626 0 274.338 77.047 343.734 201.074 37.867 67.68 54.63 144.252 49.018 220.536l-48.936-58.231c-7.117-8.466-19.745-9.563-28.208-2.448l-20.439 17.177c-4.066 3.417-6.608 8.308-7.067 13.599-0.459 5.289 1.199 10.545 4.619 14.611l108.096 128.623c3.959 4.715 9.624 7.141 15.335 7.141 4.546 0 9.12-1.54 12.873-4.693l128.626-108.096c4.061-3.417 6.608-8.308 7.064-13.599 0.459-5.291-1.204-10.548-4.621-14.614z"></path><path d="M699.936 891.148h-63.189l37.603-46.824c48.682-57.353 46.64-96.534 36.343-119.311-10.807-23.902-35.902-39.060-65.506-39.562-34.041-0.55-65.541 18.178-79.973 47.443-1.404 2.849-1.621 6.138-0.603 9.146 1.020 3.006 3.196 5.486 6.047 6.89l21.478 10.596c5.932 2.926 13.111 0.486 16.037-5.444 7.555-15.313 23.824-20.749 35.467-20.749l0.748 0.008c11.050 0.187 19.524 4.448 22.658 11.397 4.888 10.812-0.272 34.565-29.404 68.809-0.069 0.085-0.147 0.174-0.216 0.259l-84.942 105.76c-2.886 3.591-3.452 8.522-1.466 12.676 1.994 4.154 6.194 6.797 10.804 6.797h138.114c6.613 0 11.971-5.361 11.971-11.974v-23.95c0.005-6.608-5.355-11.968-11.968-11.968z"></path><path d="M902.28 841.481h-11.221v-137.012c0-6.613-5.358-11.974-11.974-11.974h-24.091c-3.895 0-7.545 1.89-9.79 5.067l-122.059 172.935c-2.579 3.655-2.905 8.444-0.846 12.414 2.056 3.973 6.156 6.466 10.631 6.466h110.232v35.547c0 6.613 5.361 11.976 11.971 11.976h23.953c6.616 0 11.974-5.363 11.974-11.976v-35.547h11.221c6.616 0 11.976-5.361 11.976-11.974v-23.95c0.003-6.613-5.358-11.974-11.976-11.974zM843.163 841.481h-40.902l40.902-57.954v57.954z"></path><path d="M699.175 291.502l-18.875-18.877c-2.507-2.504-5.903-3.911-9.443-3.911s-6.936 1.407-9.437 3.908l-201.525 201.522-125.289-125.289c-2.504-2.504-5.897-3.908-9.437-3.908s-6.936 1.407-9.437 3.911l-18.875 18.877c-5.214 5.214-5.214 13.664 0 18.877l153.601 153.606c2.504 2.504 5.897 3.908 9.437 3.908s6.936-1.407 9.437-3.908l229.84-229.84c5.211-5.214 5.211-13.664 0.003-18.877z"></path></g>
</svg>
