<svg width="1025" height="1024" xmlns="http://www.w3.org/2000/svg" xml:space="preserve" version="1.1">

 <g>
  <title>Layer 1</title>
  <g stroke="null" id="svg_1">
   <path stroke="null" id="svg_2" d="m83.67513,260.99142c-18.20035,0 -33.7209,-13.84567 -35.50744,-32.26934c-1.8982,-19.65192 12.39411,-37.07066 32.04602,-39.08051l97.14299,-9.49098c95.02148,-9.60264 191.38286,-14.51562 286.51599,-14.51562c158.44357,0 320.23689,8.03942 480.91363,24.0066c19.65192,1.8982 33.94422,19.4286 32.04602,39.08051c-1.8982,19.65192 -19.4286,33.94422 -39.08051,32.04602c-158.44357,-15.63221 -317.7804,-23.67163 -473.87914,-23.67163c-92.67665,0 -186.69319,4.80132 -279.36984,14.06898l-97.25465,9.49098c-1.22824,0.22332 -2.45649,0.33498 -3.57308,0.33498z"/>
   <path stroke="null" id="svg_3" d="m345.73789,212.86656c-2.00985,0 -3.90805,-0.11166 -5.91791,-0.44663c-19.4286,-3.2381 -32.60431,-21.66177 -29.36621,-41.20203l10.49591,-62.41716c4.35469,-25.79314 8.82103,-52.47955 28.02631,-74.25297c20.88016,-23.67163 52.92618,-34.61417 101.05104,-34.61417l124.83432,0c48.12486,0 80.28254,11.27752 101.38602,35.6191c19.20528,22.22006 23.78328,49.57642 27.69134,73.80634l10.49591,61.85887c3.2381,19.4286 -9.82596,37.85227 -29.25456,41.20203c-19.4286,3.34976 -37.85227,-9.82596 -41.20203,-29.25456l-10.49591,-61.97053c0,-0.11166 0,-0.11166 0,-0.22332c-2.67981,-16.30216 -5.1363,-31.71104 -11.16586,-38.52222c-6.14122,-7.14615 -23.00167,-11.0542 -47.45491,-11.0542l-124.83432,0c-24.67655,0 -41.537,3.68473 -47.45491,10.49591c-5.69459,6.4762 -8.26274,21.43845 -11.16586,38.8572l-10.49591,62.41716c-2.90312,17.30708 -18.08869,29.70119 -35.17246,29.70119z"/>
   <path stroke="null" id="svg_4" d="m665.41648,1024.06636l-305.83293,0c-73.13639,0 -120.033,-16.63713 -147.38936,-52.36789c-24.89987,-32.49266 -27.80299,-73.80634 -30.70612,-113.78012c0,-0.11166 0,-0.11166 0,-0.22332l-31.04109,-479.68538c-1.22824,-19.65192 13.62235,-36.73568 33.38592,-37.96393c19.65192,-1.22824 36.73568,13.62235 37.96393,33.38592l30.92943,479.68538c2.23317,32.04602 4.24303,59.73736 16.07884,75.14624c12.50576,16.1905 42.98856,24.45324 90.77845,24.45324l305.83293,0c47.78988,0 78.27268,-8.26274 90.77845,-24.45324c11.83581,-15.40889 13.73401,-43.10022 16.07884,-75.14624l30.92943,-479.57373c1.22824,-19.65192 18.20035,-34.61417 37.96393,-33.38592c19.65192,1.22824 34.61417,18.31201 33.38592,37.96393l-30.92943,479.79704c0,0.11166 0,0.11166 0,0.22332c-2.79147,39.97378 -5.69459,81.28747 -30.70612,113.78012c-27.57968,35.50744 -74.36463,52.14457 -147.50102,52.14457z"/>
   <path stroke="null" id="svg_5" d="m591.49848,762.11526l-158.55522,0c-19.76357,0 -35.73075,-15.96718 -35.73075,-35.73075s15.96718,-35.73075 35.73075,-35.73075l158.66688,0c19.76357,0 35.73075,15.96718 35.73075,35.73075s-16.07884,35.73075 -35.84241,35.73075z"/>
   <path stroke="null" id="svg_6" d="m631.58393,571.51402l-238.27947,0c-19.76357,0 -35.73075,-15.96718 -35.73075,-35.73075s15.96718,-35.73075 35.73075,-35.73075l238.16781,0c19.76357,0 35.73075,15.96718 35.73075,35.73075s-15.96718,35.73075 -35.6191,35.73075z"/>
  </g>
 </g>
</svg>