<svg width="1025" height="1024" xmlns="http://www.w3.org/2000/svg" xml:space="preserve" enable-background="new 0 0 1025 1024" version="1.1">

 <g>
  <title>Layer 1</title>
  <g stroke="null" id="svg_1">
   <path stroke="null" id="svg_2" d="m1023.83387,95.41205c-44.52085,31.39905 -93.80385,55.41464 -145.96746,71.12179c-27.99549,-32.19002 -65.20151,-55.00608 -106.58464,-65.36058c-41.38966,-10.35559 -84.95612,-7.75062 -124.81069,7.46191c-39.85675,15.21252 -74.07975,42.29829 -98.04087,77.59553s-36.50439,77.10091 -35.93132,119.75764l0,46.4852c-81.69092,2.11797 -162.63772,-15.99914 -235.63125,-52.73995s-135.76767,-90.96246 -182.73224,-157.83634c0,0 -185.93969,418.36349 232.4238,604.29992c-95.73442,64.9858 -209.77879,97.56912 -325.39419,92.97475c418.36349,232.42162 929.6952,0 929.6952,-534.57703c-0.0414,-12.94857 -1.28342,-25.86445 -3.71624,-38.58205c47.44286,-46.78807 80.91847,-105.85904 96.69099,-170.5997l-0.00109,-0.00109z"/>
  </g>
 </g>
</svg>