<svg width="1025" height="1024" xmlns="http://www.w3.org/2000/svg" xml:space="preserve" version="1.1">

 <g>
  <title>Layer 1</title>
  <g stroke="null" id="svg_3">
   <path stroke="null" id="svg_1" fill="#191919" d="m512.50001,547.55089c-151.68378,0 -274.92685,-123.24307 -274.92685,-274.92685s123.24307,-270.18673 274.92685,-270.18673c151.68378,0 274.92685,123.24307 274.92685,274.92685s-123.24307,270.18673 -274.92685,270.18673zm0,-474.0118c-109.02271,0 -199.08496,90.06224 -199.08496,199.08496s90.06224,203.82508 203.82508,203.82508c109.02271,0 203.82508,-90.06224 203.82508,-203.82508s-99.54248,-199.08496 -208.56519,-199.08496z" class="st0"/>
   <path stroke="null" id="svg_2" fill="#191919" d="m920.15016,1021.56269c-18.96047,0 -37.92094,-14.22035 -37.92094,-37.92094c0,-161.16401 -165.90413,-298.62744 -369.72921,-298.62744c-203.82508,0 -369.72921,132.7233 -369.72921,298.62744c0,18.96047 -14.22035,37.92094 -37.92094,37.92094s-33.18083,-18.96047 -33.18083,-37.92094c0,-203.82508 199.08496,-369.72921 440.83098,-369.72921c246.48614,0 440.83098,165.90413 440.83098,369.72921c0,18.96047 -14.22035,37.92094 -33.18083,37.92094z" class="st0"/>
  </g>
 </g>
</svg>