<svg width="1025" height="1024" xmlns="http://www.w3.org/2000/svg" xml:space="preserve" version="1.1">

 <g>
  <title>Layer 1</title>
  <g stroke="null" id="svg_1">
   <path stroke="null" id="svg_2" d="m512.5,889.97733c-2.87946,0 -72.27449,0 -151.45969,-2.39955c-165.66503,-4.89508 -203.96187,-15.16516 -216.53552,-18.52454c-0.09598,0 -0.19196,-0.09598 -0.38393,-0.09598c-28.98658,-7.96651 -55.66959,-23.32364 -77.07359,-44.53567c-21.404,-21.11605 -37.04907,-47.6071 -45.30353,-76.59368c-0.57589,-1.91964 -1.0558,-3.93526 -1.34375,-5.95089c-13.62945,-75.4419 -20.25221,-152.51549 -19.7723,-229.20515c-0.38393,-76.11377 6.33482,-152.61147 19.7723,-227.47747c0.28795,-1.34375 0.57589,-2.6875 0.86384,-4.03125c7.4866,-29.75444 22.74775,-57.30129 44.24773,-79.37716c21.404,-22.07587 48.47094,-38.20086 78.12939,-46.64728c0.28795,-0.09598 0.57589,-0.19196 0.86384,-0.19196c12.57365,-3.35937 50.96647,-13.62945 216.53552,-18.52454c79.28118,-2.39955 148.58022,-2.39955 151.45969,-2.39955c0.67187,0 72.17851,0 151.3637,2.20759c164.99316,4.51116 203.00205,13.72543 215.38374,16.79686c0.76786,0.19196 1.43973,0.38393 2.11161,0.57589c29.65846,8.35044 56.62941,24.47542 78.12939,46.64728c21.404,22.07587 36.76113,49.62272 44.24773,79.47314c0.28795,1.34375 0.57589,2.6875 0.86384,4.03125c13.62945,75.4419 20.25221,152.61147 19.7723,229.30113c0.28795,75.53788 -6.4308,151.45969 -19.7723,225.84578c-0.28795,1.34375 -0.57589,2.6875 -0.86384,4.03125c-7.4866,29.85042 -22.74775,57.39727 -44.24773,79.47314c-21.49998,22.07587 -48.47094,38.20086 -78.12939,46.64728c-0.28795,0.09598 -0.57589,0.19196 -0.86384,0.19196c-12.57365,3.35937 -50.96647,13.62945 -216.53552,18.52454c-79.1852,2.20759 -148.58022,2.20759 -151.45969,2.20759zm-336.12916,-139.55791c45.97541,12.18972 230.45292,16.70088 336.12916,16.70088c105.48428,0 289.48188,-4.51116 335.84122,-16.6049c8.73437,-2.49553 16.6049,-7.29464 22.93971,-13.82142c6.04687,-6.23883 10.46204,-13.82142 12.76561,-22.17186c11.80579,-66.3236 17.6607,-134.18292 17.46873,-201.46634c0,-0.19196 0,-0.38393 0,-0.57589c0.38393,-68.43521 -5.47098,-137.25434 -17.46873,-204.63375c-2.39955,-8.35044 -6.71874,-15.93302 -12.76561,-22.17186c-6.14285,-6.33482 -13.9174,-11.03794 -22.36382,-13.62945c-47.89505,-11.03794 -231.22077,-15.16516 -336.41711,-15.16516c-105.48428,0 -289.48188,4.51116 -335.84122,16.6049c-8.73437,2.49553 -16.6049,7.29464 -22.93971,13.82142c-6.04687,6.23883 -10.46204,13.82142 -12.76561,22.17186c-11.90178,66.80351 -17.75668,135.14274 -17.46873,203.00205c0,0.19196 0,0.47991 0,0.67187c-0.38393,68.05128 5.375,136.48648 17.27677,203.48196c2.59152,7.67856 7.00669,14.78124 12.76561,20.54016c6.33482,6.33482 14.20534,10.84597 22.84373,13.24552z"/>
   <path stroke="null" id="svg_3" d="m420.35722,646.75879l235.44399,-133.89497l-235.44399,-133.99095l0,267.88592z"/>
  </g>
 </g>
</svg>