<svg width="171" height="54" viewBox="0 0 171 54" fill="none" xmlns="http://www.w3.org/2000/svg">
<path d="M28.391 13.2848L24.9095 7.9086C24.6397 7.49192 24.1822 7.2431 23.6858 7.2431H8.32536C7.82968 7.2431 7.37261 7.49129 7.10268 7.90692L3.61043 13.2838C3.25355 13.8332 3.30868 14.5585 3.74449 15.0477L14.9109 27.5839C15.1872 27.8942 15.584 28.0722 15.9995 28.0722C15.9995 28.0722 15.9995 28.0722 15.9995 28.0722C16.415 28.0722 16.8119 27.8942 17.0882 27.584L28.2558 15.047C28.691 14.5584 28.7466 13.8338 28.391 13.2848ZM22.9805 8.49304L20.0527 13.0205L17.123 8.49304H22.9805ZM18.904 13.5463H13.095L15.9995 9.0576L18.904 13.5463ZM14.8759 8.49317L11.9544 13.0082L9.0338 8.49317H14.8759ZM7.87811 9.00785L10.8137 13.5463H4.93043L7.87811 9.00785ZM5.19443 14.7963H11.4847L14.8107 25.5922L5.19443 14.7963ZM15.9995 25.2052L12.7927 14.7963H19.2063L15.9995 25.2052ZM17.1882 25.5926L20.5143 14.7964H26.8052L17.1882 25.5926ZM21.2014 13.5463L24.1343 9.01098L27.0711 13.5463H21.2014Z" fill="#F55F1E"/>
<path d="M1.89581 13.5463H0.625C0.279875 13.5463 0 13.8261 0 14.1713C0 14.5165 0.279875 14.7963 0.625 14.7963H1.89581C2.24094 14.7963 2.52081 14.5165 2.52081 14.1713C2.52081 13.8261 2.24094 13.5463 1.89581 13.5463Z" fill="#F55F1E"/>
<path d="M31.3751 13.5463H30.1042C29.7591 13.5463 29.4792 13.8261 29.4792 14.1713C29.4792 14.5165 29.7591 14.7963 30.1042 14.7963H31.3751C31.7202 14.7963 32.0001 14.5165 32.0001 14.1713C32.0001 13.8261 31.7202 13.5463 31.3751 13.5463Z" fill="#F55F1E"/>
<path d="M27.3215 2.86084C27.0774 2.61678 26.6817 2.61678 26.4376 2.86084L24.3615 4.9369C24.1175 5.18097 24.1175 5.57672 24.3615 5.82078C24.4836 5.94284 24.6436 6.00384 24.8035 6.00384C24.9635 6.00384 25.1234 5.94278 25.2454 5.82078L27.3215 3.74472C27.5656 3.50066 27.5656 3.10497 27.3215 2.86084Z" fill="#F55F1E"/>
<path d="M7.66544 4.9258L5.58944 2.84967C5.34545 2.60561 4.94982 2.60561 4.70551 2.84967C4.46145 3.09374 4.46145 3.48949 4.70551 3.73355L6.78157 5.80962C6.90363 5.93168 7.06357 5.99268 7.22351 5.99268C7.38344 5.99268 7.54338 5.93162 7.66544 5.80962C7.90951 5.56562 7.90951 5.1698 7.66544 4.9258Z" fill="#F55F1E"/>
<path d="M48.502 16.5645L55.8832 27.5538L63.3031 16.5645L64.9262 30H71.805L67.4381 2.33871L55.8832 18.4086L44.3669 2.33871L40 30H46.8789L48.502 16.5645Z" fill="black"/>
<path d="M89.7673 24.9194H104.066L103.641 20.0645H90.231L89.7673 24.9194ZM96.8394 13.328L100.665 21.871L100.433 23.4892L103.68 30H111.099L96.8394 2L82.6179 30H89.9991L93.3613 23.2258L93.0521 21.8333L96.8394 13.328Z" fill="black"/>
<path d="M123.486 3.65591V30H130.133V3.65591H123.486Z" fill="black"/>
<path d="M149.668 24.9194H163.967L163.541 20.0645H150.132L149.668 24.9194ZM156.74 13.328L160.566 21.871L160.334 23.4892L163.58 30H171L156.74 2L142.518 30H149.9L153.262 23.2258L152.953 21.8333L156.74 13.328Z" fill="black"/>
<path d="M0.751886 51.9351C1.00251 52.3623 1.45251 52.5759 2.10186 52.5759C2.36388 52.5759 2.62021 52.4513 2.87084 52.2021C3.13286 51.9647 3.26387 51.5553 3.26387 50.9738V37.623H4.63093V51.1518C4.63093 52.125 4.39739 52.8429 3.93031 53.3058C3.46323 53.7686 2.82527 54 2.01642 54C1.56073 54 1.14492 53.8932 0.768974 53.6796C0.381639 53.4778 0.125314 53.288 0 53.1099L0.751886 51.9351Z" fill="#6B6B6B"/>
<path d="M24.4574 37.623H31.2927V39.0471H25.9099V42.6073H30.9509V44.0314H25.9099V48.6597H31.2927V50.0838H24.4574V37.623Z" fill="#6B6B6B"/>
<path d="M61.5869 46.7906L64.697 37.623H66.3204L61.6211 50.7068L58.0326 41.023L54.444 50.7068L49.7447 37.623H51.3681L54.5465 46.7906L58.0326 37L61.5869 46.7906Z" fill="#6B6B6B"/>
<path d="M84.9506 37.623H91.786V39.0471H86.4031V42.6073H91.4442V44.0314H86.4031V48.6597H91.786V50.0838H84.9506V37.623Z" fill="#6B6B6B"/>
<path d="M111.434 37.623H112.887V48.6597H117.586V50.0838H111.434V37.623Z" fill="#6B6B6B"/>
<path d="M136.216 37.623H139.462C140.237 37.623 140.926 37.7773 141.53 38.0859C142.145 38.3825 142.629 38.8098 142.983 39.3675C143.347 39.9253 143.529 40.5899 143.529 41.3613C143.529 42.2988 143.262 43.082 142.726 43.711C142.202 44.3281 141.519 44.7435 140.676 44.9571L144.247 50.0838H142.453L139.121 45.0995H137.668V50.0838H136.216V37.623ZM139.462 38.9581H137.668V43.7644H139.462C140.237 43.7644 140.864 43.5567 141.342 43.1414C141.832 42.7141 142.077 42.1208 142.077 41.3613C142.077 40.5899 141.832 39.9965 141.342 39.5812C140.864 39.1658 140.237 38.9581 139.462 38.9581Z" fill="#6B6B6B"/>
<path d="M169.377 37.623H171L167.018 44.7079V50.0838H165.566V44.7257L161.584 37.623H163.208L166.284 43.3906L169.377 37.623Z" fill="#6B6B6B"/>
</svg>
